<mxfile host="app.diagrams.net" modified="2025-01-09T17:48:39.185Z" agent="Mozilla/5.0 (X11; Ubuntu; Linux x86_64; rv:134.0) Gecko/20100101 Firefox/134.0" etag="ehyFHhhfaZX1z_HGYVZl" version="24.3.1" type="device">
  <diagram name="Page-1" id="UxBh77iw0aSJ2QiuGRF8">
    <mxGraphModel dx="1362" dy="752" grid="1" gridSize="10" guides="1" tooltips="1" connect="1" arrows="1" fold="1" page="1" pageScale="1" pageWidth="850" pageHeight="1100" math="0" shadow="0">
      <root>
        <mxCell id="0" />
        <mxCell id="1" parent="0" />
        <mxCell id="s8cMF6kNTprsF7-LKTiT-11" value="" style="shape=image;imageAspect=0;aspect=fixed;verticalLabelPosition=bottom;verticalAlign=top;image=data:image/png,iVBORw0KGgoAAAANSUhEUgAAD40AAAYqCAYAAAB+bxkPAAAAOXRFWHRTb2Z0d2FyZQBNYXRwbG90bGliIHZlcnNpb24zLjguNCwgaHR0cHM6Ly9tYXRwbG90bGliLm9yZy8fJSN1AAAACXBIWXMAAD2EAAA9hAHVrK90AAEAAElEQVR4nOzdd5iU1dk44GeW3juiolLEiIqAoIKNYu+9gr1Hk6ipRmNion6aosZoEmNUsCOIBVExKgJRwEZXRFBABKT3ssvu/P7wJxF3BrbM7jBw39c118ec877PeWZ32S/ynOe8iWQymQwAAAAAAAAAAAAAAAAAAAByUl62EwAAAAAAAAAAAAAAAAAAAKDsNI0DAAAAAAAAAAAAAAAAAADkME3jAAAAAAAAAAAAAAAAAAAAOUzTOAAAAAAAAAAAAAAAAAAAQA7TNA4AAAAAAAAAAAAAAAAAAJDDNI0DAAAAAAAAAAAAAAAAAADkME3jAAAAAAAAAAAAAAAAAAAAOUzTOAAAAAAAAAAAAAAAAAAAQA7TNA4AAAAAAAAAAAAAAAAAAJDDNI0DAAAAAAAAAAAAAAAAAADkME3jAAAAAAAAAAAAAAAAAAAAOUzTOAAAAAAAAAAAAAAAAAAAQA7TNA4AAAAAAAAAAAAAAAAAAJDDNI0DAAAAAAAAAAAAAAAAAADkME3jAAAAAAAAAAAAAAAAAAAAOUzTOAAAAAAAAAAAAAAAAAAAQA7TNA4AAAAAAAAAAAAAAAAAAJDDNI0DAAAAAAAAAAAAAAAAAADkME3jAAAAAAAAAAAAAAAAAAAAOUzTOAAAAAAAAAAAAAAAAAAAQA7TNA4AAAAAAAAAAAAAAAAAAJDDNI0DAAAAAAAAAAAAAAAAAADkME3jAAAAAAAAAAAAAAAAAAAAOUzTOAAAAAAAAAAAAAAAAAAAQA7TNA4AAAAAAAAAAAAAAAAAAJDDNI0DAAAAAAAAAAAAAAAAAADkME3jAAAAAAAAAAAAAAAAAAAAOUzTOAAAAAAAAAAAAAAAAAAAQA7TNA4AAAAAAAAAAAAAAAAAAJDDNI0DAAAAAAAAAAAAAAAAAADkME3jAAAAAAAAAAAAAAAAAAAAOUzTOAAAAAAAAAAAAAAAAAAAQA7TNA4AAAAAAAAAAAAAAAAAAJDDNI0DAAAAAAAAAAAAAAAAAADkME3jAAAAAAAAAAAAAAAAAAAAOUzTOAAAAAAAAAAAAAAAAAAAQA7TNA4AAAAAAAAAAAAAAAAAAJDDNI0DAAAAAAAAAAAAAAAAAADkME3jAAAAAAAAAAAAAAAAAAAAOUzTOAAAAGRRv379IpFIFHtddNFF2U4NAAAAAAAAANhK2W8AAADA91XNdgIAAAAAAAAAAAAAwJYlk8lYuXJlLFu2LNasWRO1a9eOOnXqRJ06daJmzZrZTg8AAACALNI0DgBATlqwYEEsWLAgK2vvvvvuCq0AAAAAAAAAlEsm6t5Vq1aN+vXrR/369aNu3boZymzz7r333li2bFmx8VatWuXU022TyWS0bds2vvjii5TzjRs3jnnz5kX16tUrObP/yc/Pj7feeivGjBkT7733Xnz00UexaNGiKCwsTHl9o0aNolWrVtG6devYY489omvXrrH//vvHrrvuWuI1p02bFvn5+Zn6CBWidevWUadOnWynAQAAALDV0TQOAEBO+vvf/x633nprVtYeN25cdOrUKStrAwAAAAAAALBtyHTdu0qVKtGmTZvo1KlTdOrUKY455pjYb7/9Mhb/W/fee2/MmjWr2HiPHj1yqml8xIgRaRvGIyKWLFkSQ4YMidNPP70Ss/rG559/Hg8++GA8+uijsXDhwhLft3Tp0li6dGmMGzduk/HmzZtHr1694rjjjoujjz46dthhh7QxjjrqqJTf363J8OHDo2fPntlOAwAAAGCro2kcAACArcLvfve7Uo0DAAAAAAAA/1NYWBifffZZfPbZZzFw4MC46aabYu+9946LL744rrnmmqhZs2a2U9yq9OvXr0TXVGbT+Pr16+P3v/99/PGPf4wNGzZkLO6CBQtiwIABMWDAgEgkEvH73/8+br755ozFh2yz3wAAAAC+oWkcAACArUK6pygo4gIAAAAAAEDZTJkyJX72s5/FP/7xj/jb3/4Wxx57bLZT2iqsWrUqBg0atMXrXnvttfj66683+2TuTJk8eXKcc845MWXKlApdJ5lMxqJFiyp0Dahs9hsAAADAN/KynQAAAAAAAAAAAAAAFWfGjBlx3HHHxY033pjtVLYKgwYNitWrV2/xug0bNsSTTz5Z4fm89957ceihh1Z4wzgAAAAA2zZPGgcAAAAAAAAAAADYDtx5551RrVq1+P3vf5/tVLKqX79+Jb62f//+ccMNN1RYLrNnz44TTzwxli1bttnrOnToEKecckp07Ngx9t5772jcuHHUr18/EolELF68OBYvXhxz5syJ999/P95///0YO3ZsLFy4sMLyBgAAAGDro2kcAIBtzhdffBGtWrXKdhoAAAAAAAAAUCYlrXuvXbs2Vq5cGXPnzo0JEybEW2+9Fc8//3ysXLky7T233XZbHHbYYXHEEUdkMOPc8cUXX8TIkSNLfP3EiRPjo48+iv32269C8rnoootiwYIFaeePOuqouOuuu6JTp05pr9lpp51ip512ig4dOsSxxx4bERFFRUXxzjvvxMCBA+O5556LuXPnliifmTNnlib9lC666KLo379/yrlkMlnu+AAAAACklpftBAAAAAAAAAAAAAAovVq1akXz5s2jU6dOceGFF0b//v1j7ty58dOf/jSqVKmS8p5kMhnXXXfddtu8279//5Sffccdd4zddtst5T2leTJ5abzwwgsxfPjwlHN5eXnxj3/8I4YNG7bZhvF08vLy4tBDD4377rsv5syZEy+//HIcfvjh5cwYAAAAgK2ZpnEAAAAAAAAAAACAbUTdunXjz3/+czz66KORSCRSXjNlypR46623Kjmz7Esmk/HYY4+lnDvvvPOiT58+KeeefvrpKCgoyHg+f/7zn9POPfDAA3HVVVdlZJ1EIhHHH398vPHGGzFx4sQ46qijMhIXAAAAgK2LpnEAAAAAAAAAAACAbcz5558fF110Udr5F198sfKS2UqMGDEivvjii5Rzffv2jfPPPz/l3KJFi+Lll1/OaC6zZs2Kd955J+Vcz549M9Yw/n0dOnSI4447rkJiAwAAAJBdmsYBAAAAAAAAAAAAtkE333xz2rkxY8ZUYiZbh379+qUc32effaJTp06x5557xv7771+qe8tqc096/+EPf5jRtQAAAADYPmgaBwCArVR+fn7MnTs3Pv300/j8889j+fLl2U4JAAAAAAAAgBzSpk2b2GOPPVLOff7555WcTXatWrUqBg0alHKub9++G/+c7mnjr776aixcuDBj+UycODHt3DHHHJOxdQAAAADYflTNdgIAAMA3kslkvPHGGzF48OAYMWJEfPbZZ7Fhw4ZNrtlhhx3i4IMPjlNOOSXOPPPMqFmzZoXls3bt2nj99dfjgw8+iHHjxsWMGTNi+fLlsWLFili3bl3UqlUrateuHfXq1Ytddtkldtttt2jbtm0ccMABceCBB0bDhg0rLLeKtnz58hg6dGi8/vrrMXny5Jg1a1asWLEiqlSpEo0aNYr27dvHwQcfHH369Em7wWJzvvzyyxg4cGCMHj06Jk6cGAsXLoyVK1dGjRo1Yscdd4x99tknjjzyyDjnnHOicePGFfAJv5FMJmPKlCkxevTo+Pjjj+OTTz6JL774YuP3OT8/P2rVqhUNGzaMli1bxl577RUHHHBAHHPMMbHbbruVa+1ly5bFnDlzSnTt5MmTSxW7ZcuW5f75+/rrr+ONN96I0aNHx5QpU2LWrFmxePHiWLNmTVSpUiXq168fDRs2jHbt2sVee+0VnTt3jiOPPDKaNWtWrnVLatKkSfHCCy9s/N4tXrw41q9fH40bN47mzZtH69at46ijjorjjjsuWrduXSk5feu9996L4cOHx3vvvRfTp0+Pr776KlavXh0FBQVRp06d2GGHHWL33XePAw88MI444og46KCDIpFIVFg+yWQyRo0aFWPGjIlx48bFxx9/HEuXLo0VK1bEqlWronr16lG7du2oU6dO7LTTTrHbbrtF69atY7/99ovu3btHy5YtKyw3AAAAAACAytC2bduYNm1asfHt7eDy5557LlavXl1sPC8vL/r06bPx/TnnnBM33HBDsXp9QUFBPPnkk3HddddlJJ9Zs2alHG/QoEHUq1cvI2tQ+ew3sN/AfoOys98AAAAgA5IAAJCDfvvb3yYjIuXriy++yHZ6G+22224lyvGVV15J7rPPPmk/U6pX06ZNk/fff39yw4YNGc35k08+SV566aXJ+vXrlyqf774SiUSyU6dOyTvuuCM5Y8aMjOZXFj169EiZ5/Dhwze5bunSpcnrr78+Wbdu3RJ/1pNPPjk5c+bMEuUxceLE5EknnZRMJBIlil2rVq3kTTfdlFy3bl3GvhYrV65MPvHEE8mzzjor2axZszJ/j7t3754cMGBAsqioqEx5PProo2Vee0uvRx99tEw5FRYWJp977rlkr169knl5eWX6ue/SpUvyz3/+c3LRokXl/lpceOGFxa59++23k4cddlip8jrttNMq/O/hsmXLkrfffnuyVatWpf667bbbbsl77703uXbt2ozmtGTJkuTNN9+c3HXXXcv187Trrrsmr7vuuuSYMWMymh8AAAAAAEBl1b3PO++8lGvUrl27TPHS1cF79OiRsZwrQs+ePVPm3bt372LXnnDCCSmv7dixY8byOeKII1KuseOOO2ZsjWy58MIL0/5s5xr7Df7HfoP07DcoO/sNAAAAMisvAACArCksLIxrrrkmjjvuuFKfbrxo0aK49tpro1evXjF37txy57J+/fq4+eabo2PHjvHwww/HihUryhwrmUzG+PHj49e//nV06dKl3LlVhjfffDP22muvuOeee2LVqlUlvu/FF1+MDh06xGuvvZb2mqKiorjtttuic+fO8dJLL0UymSxR7LVr18btt98e3bp1i3nz5pU4p1S+/vrrOOuss6J58+bRt2/fePbZZ2PhwoVljjd69Og4++yzo1u3bvHpp5+WK7etwciRI6NTp05x+umnx/Dhw6OoqKjUMZLJZHz44Yfxs5/9LHbeeecYOHBgxvLLz8+Pq6++Onr16hUjR44s1b2DBw+O9u3bx8MPP5yxfL6VTCbjn//8Z7Rq1SpuuummmDlzZqljzJo1K6677rrYZ599YsSIERnJ68knn4w999wzbrvttpg9e3a5Ys2ePTvuvffe6NatW0yYMCEj+QEAAAAAAFSmZcuWpRwv79N0c8nMmTPT1qL69u1bbOz8889Pee2ECRNi/PjxGcmpWrVqKccXL15cpnol2WO/QenYb1Cc/Qb2GwAAAGSKpnEAAMiSwsLCOOOMM+Lvf/97ueKMGjUqDjrooJg+fXqZY6xduzZOOumkuP322yM/P79c+XxfSQuW2fT000/HscceW+ZC6cqVK+PEE0+MV155pdhcQUFBnHnmmfGb3/wmCgsLyxR//Pjx0bNnz1iyZEmZ7o+I+PLLL2PgwIGxdu3aMsdI5b333osuXbrEsGHDMhq3smzYsCF++ctfRs+ePWPSpEkZi7t+/fr46quvMhJr2bJlccQRR8Q///nPMv99ys/Pj8svvzzuv//+jOQUEbF06dI47rjj4uqrr0670ag0ZsyYEYcffnjcd9995Ypzyy23RN++fWPBggXlzun7cuH3GQAAAAAAwPfNmDEj5Xjbtm0rOZPs6d+/f8paT61ateL0008vNn7SSSdFgwYNUsbq169fRnJq0qRJyvH8/Pz46KOPMrIGFc9+g7Kz3yA1+w1Kz34DAACA/9E0DgAAWXLDDTfECy+8kJFYs2bNiiOPPLLMRYszzzwzXn/99Yzkkmtef/31uOCCC6KgoKBccTZs2BDnnnvuJhsukslknHvuuTF48ODyphnTpk2LK6+8stxxKsLq1avjpJNOKvWJ1Nm2bt26OPXUU+OPf/zjVluc+/ZAh1GjRpU7VjKZjB//+McZ+T7Nnz8/Dj744M2eeF8WhYWF8ZOf/CT+9Kc/len+P/3pT/GHP/whozkBAAAAAADkspkzZ6Z9ku/+++9fydlkRzKZjMceeyzl3Mknnxz169cvNl6zZs0444wzUt7z1FNPlbu+HBGxww47pJ175JFHyh2fime/QfnZb1Bx7DcoHfsNAACAbUXVbCcAAADbo9deey3l6badO3eOvn37Rs+ePWPnnXeOhg0bxty5c+OLL76I5557LgYMGBCLFy9OGXPmzJlxxhlnxNtvvx15eSU/H+rJJ5+MoUOHpp1v0KBBHHHEEdGtW7fYfffdo2nTplGnTp0oLCyM5cuXx/Lly2P69OkxceLEGD9+fEyZMqXEa2fbV199FT/60Y9iw4YNm4y3bds2Tj755OjWrVvssMMOUadOnViwYEFMnDgxnnvuuXj//fdTxluxYkX85Cc/iZdffjkiIm677bZ47rnnNrmmatWqccghh8Txxx8fe+yxR+ywww5RVFQU8+bNi+HDh8fAgQPj66+/Thl/0KBB8Z///CeOPPLIDHz6b9SsWTM6deoUXbt2jU6dOkXTpk2jUaNGUb9+/Vi1alUsXbo0Pv744xgzZky8/vrrsWbNmpRx8vPz44wzzogpU6ZEs2bNMpZfRSksLIwzzjhjsz/7ERF169aNww8/PA4//PDYeeedo3nz5lG7du1YsmRJLFmyJKZMmRLvvfdejB07NpYuXZrxPH/4wx8WK+BWq1YtDj300Dj22GOjXbt20bx586hatWp8/fXX8cEHH8TgwYPTnmKeTCbjiiuuiAkTJkSNGjXKlNPy5cujd+/e8cknn6S9platWnHYYYdFr1694gc/+EE0bdo0ateuHYsWLYpZs2bF66+/HsOGDYuVK1emvP8Xv/hFtG3bNk477bQS5zVjxoy45ZZb0s5Xq1YtDjnkkOjRo0fssccesdNOO0WdOnWiSpUqsWLFili+fHnMmTMnJkyYEBMnTowPP/wwI5t9AAAAAAAAsun2229PO1eaWkwuGzlyZHz++ecp5/r27Zv2vvPPPz8efvjhYuMLFy6MV155JU4++eRy5dWtW7e0c//+97/j7LPPjh49epRrDSqO/Qb2G9hvUHr2GwAAAFSCJAAA5KDf/va3yYhI+friiy+ynd5Gu+22W8oc69evv8n7hg0bJp944oktxluxYkXy4osvTvvZIyJ51113lTi/oqKi5C677JIyTq1atZJ33313cvXq1aX6zF9++WXygQceSPbs2TMZEckGDRqU6v6K0KNHj5SfsUWLFpu832WXXZLPPPPMFuM9/fTTybp166b9HrzzzjvJsWPHJvPy8jYZP/HEE5PTpk3bbOzly5cnL7nkkrSxO3bsWKavwfvvv78xRu3atZNnnnlmctCgQcm1a9eWOMaSJUuSd9xxR7JWrVpp87vgggvKlF8ymUwbsyL89Kc/3ezfo2bNmiX//ve/J9evX1+iePn5+ckhQ4YkzzvvvGSNGjWSEZG85557SnTvo48+mjKHnXbaaZP3iUQied555yVnzZq12XhFRUXJ/v37J+vVq5f28913330lyi1V7OOOOy5t3Dp16iRvuumm5IIFC7YYa/Hixcmf/OQnySpVqqT9PTlnzpwS59anT5+0eV111VXJr776qlSfdfny5clnnnkmec455ySrV6+ejIjkuHHjShUDAAAAAABgcyq67v3UU08Vq1mWt+6YTKavg/fo0aPcOVeEiy66KG1NsKCgIO19RUVFaT/rKaecUu68Fi1alEwkEml/BurVq5d85JFHyr1ONlx44YWVWv+tSPYb2G/wffYb2G+wJfYbAAAA2VTyxw8CAAAZs2LFio1/btGiRXz44YfRp0+fLd5Xr169eOSRR+L+++9Pe80f/vCHmD9/fonyGDt2bHz55ZfFxmvWrBkjRoyI66+/PmrXrl2iWN9q2bJl/PCHP4zhw4fHhAkT4sILLyzV/ZXpu1+n/fffP8aPHx9nn332Fu8755xzYsiQIVGtWrWU8/fdd19ceeWVUVRUtHHs//7v/+Kll16Kdu3abTZ2/fr14+GHH45LLrkk5fyECRNi/PjxW8wxXeybb745vvzyy3j22Wfj9NNPj5o1a5b4/kaNGsWNN94YH330UfzgBz9Iec0TTzwR06ZNK1N+lWX48OFx9913p50/7bTTYvr06XH11VdH9erVSxSzWrVqccIJJ8STTz4ZM2bMiGuvvTZq1apVrjznzp27SfzHH388nnzyydh11103e18ikYgLLrggXn311bR/fx955JEy5fTPf/4zXnnllZRz7du3j/feey9uu+22Ep3+3rhx47j33nvj+eefT/m1WrFiRVx33XUlyis/Pz+GDBmScu5vf/tb/OMf/4iddtqpRLG+Vb9+/Tj77LPj6aefjlmzZsXNN98cderUKVUMAAAAAACAbFi9enXceOONcf75529Ss/xWXl5e/OMf/8hCZpVv9erVMWjQoJRz5557blStWjXtvYlEIu2TyIcOHRqLFi0qV25NmjSJE088Me38ypUr45JLLol99903/v3vf8eSJUvKtR6ZZb+B/Qap2G+Qnv0G9hsAAACVQ9M4AABkUZ06dWLo0KHRpk2bUt13zTXXxK9+9auUc6tWrYo777yzRHFee+21lOO/+tWvYv/99y9VTqnsu+++8de//rXccSraPvvsE2+++WY0bty4xPf07NkzrrrqqpRzAwYM2KTQevvtt6f9fqXz17/+NVq0aJFy7oknnihVrIiI3XffPWbOnBl/+MMfSvU5U9lzzz1j2LBhseOOOxabKyoqin/+85/lil+RCgsL44c//GEkk8mU85dcckk8++yzUb9+/TKvsfPOO8ff/va3uPLKK8sc4/ueeeaZEh0s8V0HH3xw3HTTTSnnxo8fHxMnTixVvMWLF6f9Od5zzz3jnXfeib322qtUMSMiTjzxxBg4cGAkEolic88991xMmDBhizHefffdTQ7j+FbPnj3j2muvLXVO39eiRYv4wx/+sMVNGAAAAAAAAJVt3bp1sWjRopgwYUI8/vjjcfHFF8fOO+8cd955ZxQWFqa854EHHoju3btXcqbZMWjQoFi1alXKuXQN4d91/vnnpxwvKCiIp556qly5RUT85je/2eI1kyZNissvvzx22GGH6NmzZ9xyyy3x2muvaSLfSthvUDr2G2ye/QalY78BAABAcZrGAQDY5rRu3ToSiUSFvMp64nI6N998c+y3335luvcPf/hD2oLJww8/nLKg8X2zZs1KOX7OOeeUKadcVK1atXjssceiXr16pb7317/+deTlbf4/qw499NBSF3AjIurWrZv21OPXX3+91PEaNmwYjRo1KvV96ey2225x7733ppx75plnMrZOpj3xxBMxderUlHOHHHJIPPTQQ1GlSpVKzmrzrr766jjttNPKdO/PfvazaNq0acq5N998s1Sx/vSnP6X8vVK/fv0YOnRouX6+jj/++PjJT35SbDyZTJbo4Am/ywAAAAAAgG1NSevetWrVimbNmkWnTp3iggsuiH79+sXy5ctTxmzSpEk8++yzaZtVt0X9+vVLOf6DH/ygRAepb+66dLFLo2vXrvGjH/2oRNdu2LAhRowYEX/4wx/i2GOPjSZNmsTuu+8e5513Xtxzzz0xZsyYKCgoKHdOlJz9BmVjv0Hlsd/AfgMAAGD7o2kcAACypFWrVnH99deX+f6qVavGX/7yl5Rzq1atisGDB28xxtdff502t+3FJZdcEp07dy7TvS1atIiDDz54s9fcfffdWyz0pnP66aenHJ86dWqsX7++TDEz6cwzz4x99tmn2Pi8efNi8uTJWchoy+67776U43Xq1Il+/fqV+XtVUerVqxd33XVXme+vXr16nHnmmSnnxo0bV+I469atiwcffDDl3K9+9ato06ZNmfL7rptvvjlq165dbHzgwIGxZs2azd7rdxkAAAAAAEB67dq1i9tvvz0+/fTTtLWjbdHMmTNjxIgRKefSPUG8NNeOGzcuJk2aVKbcvuvuu++OI444okz3zpgxI55++um44YYbonv37tGoUaM46qij4s4774zZs2eXOzc2z36DsrPfoOLZb2C/AQAAsH3auv7rFAAAtiM//OEPo0aNGuWKccwxx0T79u1Tzg0aNGiL9ycSiZTjK1euLFdeueTaa68t1/09evRIO3fggQdG165dyxx79913j5133rnYeEFBQUyZMqXMcTMlkUjESSedlHJuzJgxlZzNlk2aNCk++uijlHNXX311tG3btpIz2rJLLrmkTKfSf9fRRx+dcrw0Rdznn38+li1bVmy8SZMmaU+oL60mTZqk3HCzatWqGDly5Gbv9bsMAAAAAACguCpVqsQll1wSjz32WNx4443RpEmTbKdUqfr37x/JZLLYeCKRiD59+pQ4zjnnnBNVq1ZNOffoo4+WOb9vVa1aNV566aU466yzyh1r9erV8Z///CduvPHGaNWqVRx55JExcODAlF8Hys9+g7Kz36Di2W9gvwEAALB90jQOAABZkEgk4uyzz85IrHPOOSfl+MiRI6OwsHCz96bbFDB06NBy55UL9tprr5QnV5fGnnvumXYuE6f0pzsU4Isvvih37ExId/L51njy95AhQ1KOJxKJuPLKKys5m5JJ9/e7NDp06JByfObMmSWO8eKLL6YcP+WUU6JWrVplSSulI488MuX48OHDN3vf9v67DAAAAAAAIJXCwsJ45JFHonv37tGhQ4d46qmnoqioKNtpVYpkMhmPPfZYyrlDDjmkVE+QbdasWRxzzDEp55588snYsGFDWVLcRK1atWLAgAHx+OOPR4sWLcodL+Kbr8Ebb7wRZ511Vhx44IHx3//+NyNx+Yb9BuVnv0HFst/gG/YbAAAA2xtN4wAAkAX77bdf7LrrrhmJdeqpp6YcX7lyZUycOHGz96YrYP7617+OWbNmlTu3rV337t3LHWNzmwm6detWYfGXL19e7tiZsMMOO6QcL02BsLK8+eabKccPO+yw2H333Ss5my2rWbNm7LfffuWO07p166hSpUqx8dWrV5doU1AymYz//Oc/KefS/f4pq0MOOSTl+JZOKU/3u+yxxx6LYcOGlTsvAAAAAACAXDdlypTo06dPHHHEETF37txsp1PhRo0aFZ9//nnKuVRPo92SCy64IOX4ggUL4tVXXy11vHT69u0b06dPj7vvvjvatGmTsbjvv/9+HHroofHLX/5yuzk4oKLZb1B+9htUHPsN/sd+AwAAYHtTNdsJAABApg0bNix22mmnComdqUJPJgoz39prr72iRo0asX79+mJzU6ZMic6dO6e994gjjkg5Pnfu3Nh///3jtttuiwsuuCBq1qyZsXy3Jpv72pRU3bp108516tSpwuKvWLGi3LEzoXHjxinH58+fX8mZbFm6QmC6wmG27b333lG9evVyx0kkElG3bt1ihf9kMhkrV66MBg0abPb+L774IpYsWZJyrmPHjuXO77t22GGHqFq1arGnMUydOnWz93Xp0iUaNmwYy5Yt22S8qKgoTjzxxLjhhhvipz/9aTRr1iyj+QIAAAAAAFSUkta9k8lkrFq1KpYvXx5ffvllfPjhhzF8+PCYNm1ayuuHDx8enTt3jrfffjvtU4i3Bf369Us5XqNGjTI9wfnEE0+MBg0apGy27devX5x44omljplOnTp14vrrr4/rrrsu3n777Rg4cGC88sorGTn4/Y9//GN8+umnMWDAgKhRo0YGst1+2W9QfvYbVBz7Df7HfgMAAGB7o2kcAIBtzh577LHZ05i3Bvvuu2/GYlWpUiX22muvlAWqdBsBvrXffvtFt27dYsyYMcXmFi5cGFdeeWX8+te/jjPOOCNOPvnk6NGjR9SuXTtjuWdb06ZNyx0jXZG1Zs2aUadOnQqLv3LlynLHjogoLCyMsWPHxvjx42PSpEkxefLkWLRoUaxYsSJWrlwZq1atimQyWeq4mcovU+bOnRtLly5NOXfAAQdUcjYlk4mfz2/Vq1cv5QaWFStWbLGIO2nSpJTjdevWjZYtW2Ykv+9q3LhxLFiwYJOxefPmRTKZjEQikfKeKlWqxJVXXhl33XVXsbmCgoK466674p577okTTjghTj311Dj66KMVdAEAAAAAgK1aWevel19+eUREvP322/HrX/86Ro8eXeyaBQsWxBFHHBGjR4+OXXfdtbypbnXWrFkTgwYNSjl3wgknRMOGDUsds2bNmnHmmWfGv//972JzL7/8cixevDiaNGlS6ribk0gkolevXtGrV6+IiPjss8/inXfeibFjx8aHH34YEydOTHm4/Ja8+OKLcc0116T8LJSc/Qb2G0TYb2C/AQAAwNZH0zgAAGRBu3btMh4vVdP4vHnztnjvXXfdFb17947CwsKU84sXL44HH3wwHnzwwahWrVrsv//+ceihh8ZBBx0UhxxySNqTn3NBWTYDfF+VKlUqLPbm4qf7fpXU+PHjo1+/fjFgwIAKOaV73bp1GY9ZHl9++WXauQ4dOlRiJiXXqFGjjMUqz89RuicWrFq1Km1RNdM2bNgQy5cv3+zfq5/97Gfx2GOPpf29l5+fH4MHD47BgwdHIpGIvfbaa5PfZa1bt66g7AEAAAAAACpfz549Y9SoUfHrX/86/vjHPxabnzt3blx22WXx+uuvZyG7ijVo0KC0Tad9+/Ytc9zzzz8/ZaN1fn5+PP3003HttdeWOXZJtGvXLtq1axcXXXRRRHzTzDhlypQYO3ZsjBgxIt5+++0S7RGIiHj44Yfj4IMPjosvvrgCM9622W9gv0GE/QZbYr8BAABA5cvLdgIAALA9ql+/fqXEW7Ro0RbvPeyww+Kee+4p0ToFBQXx7rvvxl133RUnn3xyNGvWLPbbb7/4+c9/HqNGjSrTCdHZVKNGjZyMXR4LFy6Myy67LPbbb7/461//WiEF3IjyF5kz7euvv047t7UefLC1/AzNnTs32ylERMTatWs3O9+0adMYPHhwiU7cTyaTMWXKlPjnP/8ZF1xwQbRp0ybatGkTl112WTz33HNleiIDAAAAAADA1qZKlSpx1113pW2U/s9//hNPP/10JWdV8fr165dyvHHjxnHccceVOe6hhx4au+22W6nWrEjVqlWLTp06xZVXXhlPPfVUfPXVV/H222/HxRdfHNWqVdvi/TfddJO6WDnYb2C/QYT9BltivwEAAEDl0zQOAABZUK9evYzGS9c0vqWix7d+9KMfxbPPPlvqvIqKimLcuHHx5z//OQ477LBo06ZN/O53v4ulS5eWKg6V4+23344999wzHn744Zxr8C+vNWvWpBzPy8vL+CEO25p0T2GobPn5+Vu8plu3bjF69OjYfffdSx3/iy++iIcffjjOOOOMaNGiRVxxxRUxbdq0sqQKAAAAAACwVfnLX/4StWvXTjl39913V3I2FWvWrFnx9ttvp5w7++yzo3r16mWOnUgk0jbgf/jhhzF58uQyx86ERCIRPXr0iEceeSSmTp26xQb5efPmxcMPP1xJ2ZHr7Dcozn6DLbPfAAAAoPJpGgcAgCyoVatWRuOlK/AXFBSUOMaZZ54Zn332WVx99dVlPnF45syZceutt0br1q3jzjvvjKKiojLFIfNGjRoVxx57bCxZsiTbqWRFugJg7dq1I5FIVHI2uWVrOQW7pBsPOnToEJMnT44///nP0bRp0zKttWzZsnjooYdir732iksvvdRBGAAAAAAAQE5r3rx59OnTJ+XcBx98EBMmTKjkjCpO//7909aVunbtGpMnTy7Xa7/99ku7djaeNp5OmzZt4uWXX45f/vKXm73uySefrKSMyGX2G9hvUFb2G9hvAAAAVL6q2U4AAAC2R6tXr85ovFWrVqUcL+0p6TvssEP8/e9/j9tuuy2eeuqpePbZZ2PMmDGlaj6PiFi+fHnceOON8frrr8ezzz5b5kIKmbFo0aI466yzYt26dZu9bq+99oquXbvGHnvsEbvssks0a9Ys6tWrF7Vr145q1aqlLHbOnTs3jj766IpKPWPSHYSwZs2aSCaTCrmbkZeXe+fN1ahRI37605/Gj370o3jppZfiySefjLfeeitWrFhRqjiFhYXxyCOPxJtvvhmDBw/e7CYgAAAAAACArVnv3r3joYceSjn39ttvR8eOHSs5o8xLJpPx2GOPpZ2/9NJLK3T9J598Mu68886oWnXr2JqbSCTizjvvjGnTpsXzzz+f8pr3338/Vq9eHXXq1Knk7MgV9hvYb1Ae9hvYbwAAAFS+reNfpgAAYDuzcuXKjMZLV5hI9wTyLWncuHFce+21ce2118bq1atj5MiRMWLEiBg1alR88MEHaU9R/r7hw4fHSSedFMOHDy/z08spv1tvvTXmz5+fcq5Bgwbxs5/9LC666KJo2bJlqWOX9WessqXLs6ioKFasWBENGjSo5IxyR7qvXdOmTWP48OGVlsfOO+9c6nuqV68eZ5xxRpxxxhlRWFgY77//fgwfPjxGjRoV7777bixfvrxEcWbNmhVHH310jB07Ntq0aVPqPAAAAAAAALKtS5cuaefGjBkTP/nJTyoxm4oxatSomDFjRtbWnz9/fgwbNiyOP/74rOWQyp/+9KcYMmRIbNiwodhcQUFBjB07Nnr37p2FzMgF9hvYb1Ae9hvYbwAAAFQ+TeMAAJAFy5Ytq5R4zZs3L3fsOnXqxLHHHhvHHntsRESsXbs2xowZE8OHD48hQ4bE+PHjN3v/6NGj47e//W3ceeed5c6F0lu+fHk8/PDDKefat28fQ4YMibZt25Y5/tKlS8t8b2Xa3N+FpUuXKuJuRpMmTVKOr1q1KvbZZ59KzqbsqlSpEt26dYtu3brFjTfeGEVFRTF+/PgYOXJkvPzyyzFy5MgoKChIe/+iRYuiT58+MXr06ErMGgAAAAAAIDPS1XwiIr766qtKzKTi9OvXL9spRL9+/ba6pvG2bdvGQQcdFCNHjkw5P2/evErOiFxhv8E37DcoO/sNvmG/AQAAUJnysp0AAABsjz755JOMxps6dWrK8Z122imj60RE1KpVK3r16hW///3vY9y4cTFjxoz4xS9+EfXr1097z9/+9rdYsGBBxnNhy4YMGRJr164tNl6rVq0YPHhwuQq4ERFLliwp1/2VZdddd007N2nSpErMJPek+9qtW7cu1qxZU8nZZE5eXl7st99+cd1118Ubb7wRCxYsiL/+9a+bPdl7zJgxMXTo0ErMEgAAAAAAIDM2V8/NlZrf5qxZsyYGDRqU7TRiyJAhW+XX85BDDkk7t3jx4krMhFxiv8E37DcoO/sN/sd+AwAAoLJoGgcAgCyYOHFixmKtX78+Pv3005RzP/jBDzK2Tjpt2rSJu+66K6ZOnRoHH3xwymvWrFkTQ4YMqfBcKG7UqFEpx88999zYc889yx3/888/L3eMyrDjjjtG48aNU86NHTu2krPJLe3bt08799lnn1ViJhWrYcOG8eMf/zg+/vjj+OEPf5j2umeeeaYSswIAAAAAAMiM5cuXp51bv359JWZSMQYNGhQrV67Mdhqxfv36ePrpp7OdRjEtWrRIO7dixYpKzIRcYr/BN+w3KDv7DTZlvwEAAFAZNI0DAEAWvP/++xmLNW7cuCgsLEw516FDh4ytsyU77rhjvPzyy7HDDjuknH/rrbcqLRf+J92BAieddFJG4qcrEm+N9ttvv5Tj//3vfys5k9zSsWPHqF69esq5ESNGVHI2Fa9GjRrxwAMPxNFHH51y3u8yAAAAAAAgFy1atCjtXN26dSsxk4rRv3//lONNmjSJ/Pz8SCaTGX916tSpVLlkU5UqVdLO1apVqxIzIZfYb/A/9huUjf0Gm7LfAAAAqAyaxgEAIAumTp0aH3/8cUZiDRw4MOV406ZNM3Kyc2k0bNgwLrvsspRzs2bNqtRc+MaCBQtSju+2227ljl1UVJTRIl5eXur/RM3Pz89I/COOOCLl+MiRI2P69OkZWWNbVKNGjTjkkENSzr3xxhuVnE3l+dnPfpZyfO7cuVFQUFDJ2QAAAAAAAJTPe++9l3auZcuWlZhJ5s2ePTuGDx+ecu7MM8+MatWqVci6ffr0STn+/vvvZ2w/QKbMmzcv7VzTpk0rMRNyif0G/2O/QdnYb7Ap+w0AAIDKoGkcAACy5Omnny53jGQyGc8++2zKucMPPzwSiUS51yitrl27phzf3Mn1VJx0BdBMnBb/4osvxpw5c8od51s1a9ZMOb527dqMxD/xxBNTjieTyXjwwQczssa26tRTT005/sorr2yzBfB0v8siIhYvXlyJmQAAAAAAAJTf5prz9t5770rMJPP69+8fyWQy5dx5551XYeuec845aRtV+/XrV2HrlsX48ePTzu2+++6Vlwg5xX6D/7HfoOzsN9iU/QYAAEBF0zQOAABZ8o9//COWLVtWrhiPPfZY2iLaWWedVa7YZVW9evWU43Xq1KnkTIiIaNy4ccrxuXPnlituMpmMP/3pT+WK8X3pcv3qq68yEn+vvfaKAw44IOXcP/7xj/j8888zss626LzzzktZ+C8sLIw77rgjCxlVvHS/yyL8PgMAAAAAAHLLV199FQMGDEg736NHj0rMJvP69++fcnzXXXdN+4TbTGjZsmUcdthhKeeeeOKJKCwsrLC1S2PZsmXx+uuvp5yrVq1adO7cuZIzIlfYb/A/9huUnf0Gm7LfAAAAqGiaxgEAIEsWL14ct956a5nvX7NmTfz6179OOde8efM4/vjjyxy7PKZNm5ZyfKeddqrkTIiIaNasWcrxN998s1xx77333hg9enS5Ynxfy5YtU45/8sknGVvjxz/+ccrx1atXx0UXXRRFRUUZW2tb0rhx47jwwgtTzj366KMxaNCgSs6o4qX7XVa3bt2oV69eJWcDAAAAAABQNslkMn7yk5/E+vXrU843btw4Dj/88ErOKnNGjRoVM2bMSDl37rnnRiKRqND10z3JfN68eWkbtb/1xBNPxMiRIysirU3ccsstaZ8Yfcghh0Tt2rUrPAdyk/0Gm7LfoGzsN/gf+w0AAIDKoGkcAACy6G9/+1u8/PLLpb4vmUzGJZdckvb05muuuSZq1KixxTj33ntvrF69utTrp1NYWJj2FPd99tknY+tQculOhf/Xv/4Vy5cvL1PMkSNHxo033lietFJq3759yvEhQ4ZkbI1zzz039tprr5Rzo0aNiiuuuGKrOfF/a/Pb3/427YnXF110UcaL+hERK1eujFdffXWL1/Xv3z/mzJmT0bUfeeSRlON+lwEAAAAAALliw4YNcd1118Vzzz2X9pqrrrpqs09E3dr169cv7VyfPn0qfP0zzjgj7ddvc7lFRIwfPz569OgRxx9/fLz77rsVkF3E888/Hw888EDa+fPPP79C1mXbYL/Bpuw3KDv7Db5hvwEAAFAZNI0DAEAWFRYWxtlnn12q08OLioriJz/5SQwYMCDlfPPmzeP6668vUazrr78+dt1117jlllvi66+/LnEO6fzyl7+M8ePHp5w766yzyh2f0jv66KNTji9cuDD69u0bGzZsKFW8F154IY4++ui0TyIoj4MOOijl+JNPPhlvvPFGRtbIy8uLf/zjH2mfKPDwww/H2WefHStXrizzGnPnzo3rrrsuHnzwwTLH2Bq1aNEi7rrrrpRzq1evjp49e252w0lpzJs3L2688cbYZZdd4i9/+csWr3/00UejTZs2cdFFF8WkSZPKvf4LL7yQ9rP4XQYAAAAAAGztkslkDB8+PA4++OC477770l7XokWL+NnPflaJmWXWmjVrYuDAgSnn9tlnn+jQoUOF59CoUaM49thjU869+OKLsWzZsi3GeOWVV+Lggw+OQw45JJ566qm0TwUvjWQyGQ888ECceeaZaZ9+vOuuu1ZKYz25y36DTdlvUHb2G3zDfgMAAKAyVM12AgAAkGnTpk2LVatWVVj8WrVqRdu2bcsVo2XLlhtPqV2zZk307t07fvWrX8XNN98cNWvWTHvfZ599FhdffHG88847aa/5y1/+EvXq1StxLkuWLIk//OEPcccdd0TPnj3jrLPOitNOOy2aNm1a4hhTp06NX/ziF2lPaO7SpUvaE6ipWN27d482bdrE559/Xmzu5Zdfjl69esUjjzwS7dq122yc2bNnx4033hhPP/10JJPJjeO77LJLfPnllxnJ9fjjj4+8vLximxY2bNgQRx99dBx//PFxzDHHxA9+8INo0KBB2r8rLVu2jIYNG6Zd57DDDouf/exn8ac//Snl/HPPPRejRo2KW2+9NS655JISPVlhw4YN8cYbb8RTTz0VAwcOjHXr1sU999yzxftyzTXXXBNvvPFGvPDCC8Xm8vPz49prr43HH388fvnLX8bJJ58ceXklP6tu3rx58fzzz8egQYNi5MiRpT6BvaCgIPr37x/9+/ePfffdN84666w466yztviz/V2LFy+Ou+66K/7yl7+k3DxTp06dOPfcc0uVFwAAAAAAQFmUpu69atWqWL58ecyePTs++OCDeOutt2L69OmbvScvLy8eeeSRaNSoUSbSjYhvGv8mT56csXjf9/064HPPPZe2ObMym6H79OkTL774YrHx9evXx9NPPx1XX311ieK888478c4778S1114bp512Wpx22mnRo0ePtE/nTSU/Pz9effXVuO222+KDDz7Y7LX33ntvTj9lnopnv0Fx9huUnf0G9hsAAACVQ9M4AADbnHQnHWdKx44d0z5Nu6T++te/xllnnbWxSFFYWBi333573H///XHGGWdEz549Y+edd4769evH/Pnz4/PPP4/BgwfHiBEjNimgfd/ZZ58dffv2LVNOhYWF8eabb8abb74ZV111VbRr1y66du0aXbp0iZYtW0ajRo2icePGkUgkYvXq1TFnzpz4+OOP4z//+U+89957afOqWrVq/Pvf/y5TTpRf1apV43e/+11ccMEFKef/+9//xp577hnHHHNMHHnkkdGhQ4do1KhRrF+/Pr7++uv47LPPYujQofHOO+8UOyW8Zs2a8eCDD8Zxxx2XkVx33HHHOO2002LQoEHF5oqKimLIkCFpDyb4rkcffTQuuuiizV7zf//3fzFlypR45ZVXUs4vWLAgrr766vj5z38eRx55ZPTu3Tt23nnnaN68edSuXTuWLl0aS5YsiY8//jjef//9GD16dCxevLhEnzPXPfnkk3H44YfHmDFjUs6PHTs2TjvttGjevHkcdthhceihh8Yuu+wSjRs3jgYNGsSaNWti2bJlsWzZsvjiiy9i3LhxMW7cuJQbDcpq4sSJMXHixLj55pujRYsWsf/++0fXrl2jbdu20bhx42jcuHHUrFkzVq9eHQsXLoypU6fGqFGj4s0334x169aljXvXXXdFixYtMpYnAAAAAABAOhVZ904kEvH3v/897ROyy+qDDz6o0Kd7f78O2K9fv5TXJRKJOO+88yosj+878cQTo379+rFixYpic/379y9x0/i3li5dGg8//HA8/PDDUb169ejSpUvst99+0b59+9htt92iadOmUatWrSgoKIgVK1bE0qVL4+OPP46JEyfGm2++GUuXLt3iGtdee22ceuqppcqL7Y/9BqnZb1B29hvYbwAAAFQ8TeMAAJAF++23X/z5z3+O66+/fpPx5cuXbyz+llbXrl3jkUceyUh+yWQypk2bFtOmTYunnnqqXLH+8pe/RKdOnTKSF2XTp0+feOqpp+K1115LOV9UVBSvvPJK2oJmKolEIh599NFo3759ptKMiIg777wzXnvttRI/NaGsqlSpEs8991yceuqpab8uEd88leH555+P559/vkLzySW1a9eO119/PU4++eQYPnx42usWLFgQgwYNSlmUr0zz588v8QaAzTnjjDPihz/8YYayAgAAAAAAyI4mTZrEgw8+GKeffnq2UymX2bNnp61VHXzwwbHrrrtWWi41a9aMU089Nfr3719sbuzYsTF16tTYc889yxQ7Pz8/Ro8eHaNHjy5vmhtdeOGF8de//jVj8di22W9QnP0GZWe/AQAAQMXLy3YCAACwvbruuuvi5z//eUZiHXDAAfH6669H7dq1MxIvE/Ly8uKhhx6KH//4x9lOZbuXl5cXAwYMyNip/lWqVIl//vOfcc4552Qk3ne1bds2Bg8eHHXr1s147O+rWbNmvPTSS/GjH/2owtfa1tSrVy9ee+21uP766yORSGQ7nQp38cUXxzPPPLNdfFYAAAAAAGDbdfbZZ8fHH3+c8w3jEd88wTuZTKac69OnTyVns/k10z0RvbJVr1497rrrrujXr1/k5dk+TMnYb5Ca/QZlZ78BAABAxfKvPgAAkEV//OMf4957740aNWqUOcYll1wSb7/9djRq1KjU93bu3LnM625O165dY/To0XHZZZdVSHxKr379+jFq1Kg4+eSTyxVn5513jldffTWuuOKKDGVW3JFHHhkTJkyIs846K6pUqVJh60REVKtWLe6777545ZVXok2bNhmLW69evYzG2xpVr1497r777nj77bcr5HdJ3bp146KLLorbb799i9d26NAhqlWrlvEcdtxxx3jiiSfikUceqfCfRQAAAAAAgIrQtGnTuO6662LSpEnxzDPPRPPmzbOdUkakeqp3xDf1vzPPPLOSs4no3bt3tGjRIuXc448/HoWFhcXGf/e738WAAQPi7LPPjnr16lVofscff3x89NFH8Ytf/KJC12HbZL9BavYblJ39BgAAABWnarYTAACA7d1PfvKTOOqoo+Lmm2+OF154IYqKikp034EHHhh33HFH9O7du8xrf/TRRzFnzpx4+eWX49VXX4133nknFi9eXKZYeXl50bt377j44ovjnHPOcTL5VqhBgwbxwgsvxOOPPx7/93//F5988kmJ723SpElcddVV8ctf/rLCNyxERLRp0yYGDBgQCxYsiKFDh8a7774bn3zyScyZMycWL14ca9euTbmxoqyOPfbYmDp1ajz55JNx//33x4cffljqGFWqVIkDDzww+vbtG+eff36lnF6+NTjssMPiww8/jFdeeSX+/ve/x3/+858oKCgoU6wddtghDj/88Dj22GPj1FNPjTp16pTovr/97W9x++23x7Bhw2Lo0KExYsSImDlzZplyiPimKHzBBRfElVdeWSk/7wAAAAAAAOVRs2bNaNCgQdSvXz8aNWoU7du3jy5dukTXrl2jS5cuUb169WynmFFLliyJvn37ppzbeeedo0mTJpWc0Te1wvvvvz8mTZqUcn7hwoXFmsrr1q0bZ511Vpx11lmxfv36eOutt2L48OHx3//+Nz788MPIz88vV0677LJLnHrqqXHFFVfE3nvvXa5YYL9BevYblJ39BgAAAJmXSCaTyWwnAQAA26pWrVrFrFmzio1/8cUX0apVq2Ljs2bNihdffDFGjhwZU6ZMifnz58eqVauiatWq0bhx49hzzz3joIMOilNOOSW6dOlSITlPnTo1xowZE5988klMnz49Pv/881i4cGGsWrUqVq1aFdWrV4/69etHgwYNomXLltGpU6fo3Llz9O7dO3baaacKyYnMSyaTMXz48HjzzTfjv//9b3z55ZexePHiWL16ddSuXTsaNmwY7dq1i3333TeOPPLI6N27d9SsWTNlnPXr1xcbTyQSUaNGjcr4KBVi+vTp8frrr8eYMWPi008/jdmzZ8eKFSti3bp1UatWrahXr140atQo9thjj2jfvn3st99+ccQRR0SjRo2ynXrWLVu2LN54440YM2ZMTJo0KWbNmhVff/11rFmzJgoLC6Nu3bpRv379qF+/frRu3Trat28fe+65Z3Tt2jU6dOgQiUQiI3nMnz8/3n333Zg4cWJMnz49ZsyYEfPmzYuVK1fGypUrI5FIbMyjefPmse+++0bnzp3j4IMPjg4dOmQkBwAAAAAAACiLdevWxQcffBAff/xxTJs2LaZNmxazZs2K5cuXx4oVK2LlypWRTCajevXqUa9evWjWrFm0bNky2rVrFx07doyDDjoo9tprr2x/DLZR9htsnv0GZWe/AQAAQPlpGgcAgApU2qZxAAAAAAAAAAAAAAAAKK28bCcAAAAAAAAAAAAAAAAAAABA2WkaBwAAAAAAAAAAAAAAAAAAyGGaxgEAAAAAAAAAAAAAAAAAAHKYpnEAAAAAAAAAAAAAAAAAAIAcpmkcAAAAAAAAAAAAAAAAAAAgh2kaBwAAAAAAAAAAAAAAAAAAyGFVs50AAAAAAAAAwJIlS2LSpEnx2WefxZIlS6KoqCgaN24cu+22W3Tr1i0aNGhQ7jUKCgpi0qRJMXHixFiyZEmsXbs26tevHzvttFN07do1dttttwx8EgAAAAAAAADILWr22wZN4wAAAAAAAEClKyoqilGjRsXzzz8fb775ZkyePDnttYlEIg4//PC44YYb4thjjy31WnPnzo277rorHnvssVi2bFna6/bee++45ppr4oorrogqVaqUeh0AAAAAAAAAyAVq9tumRDKZTGY7CQAA2Fa1atUqZs2aVWz8iy++iFatWlV+QgAAAABbiXbt2sX06dNLfd8555wT//rXv6JevXoluv7FF1+Miy66aLOF5+874IAD4oUXXogdd9yx1PkBAAAAAAAAwNZOzX7bpGkcAAAqkKZxAAAAgNQaNmwYy5cv32SsXbt2ceCBB0aLFi2iZs2a8eWXX8abb74Zc+bM2eS6Hj16xGuvvRY1a9bc7Bqvv/56nHDCCVFQULBxrGrVqtG7d+/o0KFD1KlTJxYtWhTvvvtujB8/fpN727dvH2PGjIn69euX74MCAAAAAAAAwFZGzX7bpGkcAAAqkKZxAAAAgNS+LUC3atUqLrvssrjwwgujZcuWxa4rLCyMhx56KK6//vpYt27dxvGf/vSn8ec//zlt/LVr10b79u03+beZww47LB5//PHYddddi13/1ltvRd++fWPevHkbx66//vq4++67y/oRAQAAAAAAAGCrpGa/bdI0DgAAFUjTOAAAAEBqHTt2jOuuuy4uuOCCqFKlyhavf/XVV+OEE06IoqKiiIioVq1afPHFF7HzzjunvP7ZZ5+Ns88+e+P7du3axbhx46JOnTpp15gwYUJ07do1NmzYEBER9evXj4ULF0b16tVL89EAAAAAAAAAYKumZr9tyst2AgAAsC2bOXNmJJPJYi8N4wAAAMD27sMPP4yLL764RMXniIhjjz02zj333I3vCwoK4qWXXkp7/RtvvLHJ+xtuuGGzxeeIb4rip5566sb3K1asiPfff79E+QEAAAAAAABArlCz3zZpGgcAAAAAAAAqXdWqVUt9zznnnLPJ+/feey/ttV999dUm77t161aiNbp3777J+7lz55YwOwAAAAAAAADIDWr22yZN4wAAAAAAAEBO2H333Td5//XXX6e9tqioaJP3tWvXLtEa378ukUiUMDsAAAAAAAAA2Hap2W/9NI0DAAAAAAAAOWHlypWbvK9WrVraa1u3br3J+1mzZpVojZkzZ27yvm3btiVLDgAAAAAAAAC2YWr2W7/SPz8eAAAAAAAA2KZ9/PHHMXny5Jg7d26sWrUqatasGc2aNYv27dtH586dN1v4rUgTJ07c5H3Lli3TXnvMMcfEP/7xj43vBwwYEEceeeRm42/YsCEGDRq08f0uu+wSHTt2LGO2AAAAAAAAAFB6avbfULMvPU3jAAAAAAAAkCWff/55fPjhh5u8li5dWuy64cOHR8+ePSs0ly+//DLuu+++eOqpp2Lu3Llpr6tXr16cdNJJ8eMf/zgOOOCACs3p+5544olN3vfu3Tvttccff3zsu+++G4vW/fr1ixNPPDFOPvnklNcnk8n46U9/GtOnT984dsstt0ReXl4GMgcAAAAAAABga6NmXzpq9lu/RDKZTGY7CQAAAAAAANjWffHFF/HBBx9ssdicSkUWoIuKiuLOO++M2267LdauXVuqe88///z429/+Fg0aNKiQ3L5rxIgRm3wNGjRoEHPmzIm6deumveeTTz6JQw89NBYvXhwREXl5eXH55ZfHRRddFB06dIjatWvH4sWL491334277747RowYsfHeyy67LB566KEK+zwAAAAAAAAAVB41+/JRs88NmsYBAAAAAACgEjRs2DCWL19epnsrqgC9du3aOPPMM2Po0KFljtGuXbsYNmxYtG7dOoOZbWr16tWx3377xbRp0zaO/f73v4/f/OY3W7x3xowZcemll25SXN6c5s2bx6233hpXXXVVmfMFAAAAAAAAYOuiZl92ava5w3PZAQAAAAAAYDtUWFgYp59+etric7Vq1aJjx45x+OGHxwEHHJD2dPDPPvssevfuHfPmzauwXK+++upNis977rln/PznPy/RvW3bto233347Hn300WjUqNFmr+3cuXO89NJLis8AAAAAAAAAVCg1++LU7MtP0zgAAAAAAABsh2655ZZ49dVXi403bNgw7rnnnli4cGGMHz8+3njjjRg7dmwsWbIkBg0aFHvssUexe2bOnBnnnntuFBYWZjzPu+++Ox5//PGN72vUqBFPPPFE1KxZs0T3T506NY466qi4+OKLY+nSpZu9dty4cdGtW7c4/vjjY86cOeXKGwAAAAAAAADSUbMvTs2+/BLJZDKZ7SQAAAAAAABgW9ewYcNYvnz5JmO77rprdOnSJbp27RpdunSJpk2bRteuXYvdO3z48OjZs2fGcpkwYUJ06dKlWMG4devW8cYbb0SbNm3S3rt69eo4/fTTY9iwYcXm7r///rjmmmsyluezzz4b5557bhQVFW0c69evX1x44YUluv8///lPnHLKKbFmzZqIiKhevXpcdtllcc4550SHDh2iTp06sXjx4njvvffin//85yYF+WbNmsWIESOiffv2Gfs8AAAAAAAAAGSHmn3pqdnnHk3jAAAAAAAAUAn23Xff2H333aNLly4bi85Nmzbd5JqZM2dG69ati92b6QL0EUccEW+++eYmY3Xq1IkPPvgg9txzzy3ev2bNmjjggANiypQpm4w3btw4Zs2aFXXr1i13jm+88UYcf/zxkZ+fv3HszjvvjF/+8pclun/GjBnRsWPHWL16dUR8swHgtddeiwMPPDDtPf/85z/j6quv3vh+9913jwkTJkTt2rXL+CkAAAAAAAAA2Bqo2ZeOmn1uyst2AgAAAAAAALA9mDhxYgwePDhuuummOOaYY4oVnyvLBx98UKz4HBHxm9/8pkTF54iI2rVrx0MPPVRsfMmSJfGvf/2r3DmOHTs2Tj311E2Kzz//+c9LXHyOiPjlL3+5sfgcEfGvf/1rs8XniIirrrpqkwL09OnT4+9//3spMgcAAAAAAABga6RmX3Jq9rlL0zgAAAAAAABsR1IViJs0aRI/+tGPShWne/fucfTRRxcbT1WYLo3JkyfHcccdF6tWrdo4dtlll8Uf//jHEsdYvnx5vPDCCxvft23bNs4444wS3furX/1qk/ePP/54idcFAAAAAAAAgM1Rs988Nfvy0TQOAAAAAAAA24kNGzbEoEGDio336dMnateuXep4l19+ebGxqVOnxkcffVSm/GbMmBFHHnlkLFmyZOPYWWedFQ8++GCp4rz//vtRWFi48X2PHj0ikUiU6N5dd901WrduvfH95MmTY926daVaHwAAAAAAAAC+T81+y9Tsy0fTOAAAAAAAAGwnxowZE0uXLi02fvrpp5cp3vHHHx+1atUqNv7qq6+WOtZXX30VRxxxRMyfP3/j2HHHHRdPPPFE5OWVrqy5YMGCTd63aNGiVPd/9/qioqJNCuIAAAAAAAAAUBZq9iWjZl92msYBAAAAAABgOzF8+PBiY7Vr147u3buXKV7NmjXjoIMOKjb+1ltvlSrOokWL4ogjjoiZM2duHOvZs2c899xzUa1atTLl9V1r164t1f1r1qzZ5H2dOnVKnQMAAAAAAAAAfJeafcmo2ZedpnEAAAAAAADYTrz//vvFxjp37lymIu+3DjjggGJjH330UYnvX7FiRRxzzDExderUjWMHHnhgDBkypFghuaSaN2++yftPPvmkxPcWFBTE9OnTN76vUaNGNGjQoEx5AAAAAAAAAMC31Oy3TM2+fDSNAwAAAAAAwHZi4sSJxcb22WefcsXcd999i40tW7YsZs2atcV7165dGyeeeGJ8+OGHG8c6duwYr776atStW7fMOXXq1CmqV6++8f3bb78d8+fPL9G9L774YqxevXrj+27dupU5DwAAAAAAAAD4lpr9lqnZl0/VbCcA25uCRZ9nO4WcUbS0ZP+PgIjksnnZTiGnJJd+ne0UcsdiX6uSSi5ZnO0UckZy8dJsp5AzihYtz3YKOaPw69VbvoiIiFi/oCjbKeSUNUuqb/kiIiJi+bJa2U4hZyxbVyPbKeSMJYmyn5y5vVlc1dmQJbWoSrYzyC2LE4XZTiFnLImCbKeQMx6ZOSjbKWxTttd/c67WtE22U8hJ+fn58eWXXxYb33333csVt23btinHP//889htt93S3rdhw4Y488wzY+TIkRvHfvCDH8Trr78ejRo1KldOdevWjV69esWwYcMiImLdunXx4x//OJ599tnN3rd48eL4+c9/vsnYSSedVK5cANi6bK//+6ks1OxLR92+5NTsS0HNvsTU7EtOzb7k1OxLTs2+dNTtS07NvuTU7EtOzb7k1OxLTs2+5NTsS0fNvuTU7EtOzT6zttd/c1azLxs1ezX7yqBpHAAAAAAAgJwyevTojMXq3r17xmJt7b788ssoKiq+KXnnnXcuV9x098+cOTPtPclkMi666KIYOnToxrHWrVvHm2++Gc2bNy9XPt+65ZZbNhagIyIGDhwYZ555Zvztb3+LFi1aFLv+vffeiwsvvHCTvHfYYYe48sorM5IPAAAAAAAAwLZAzb5s1OzV7CuDpnEAAAAAAAByykEHHZSxWMlkMmOxtnYLFy5MOb7DDjuUK266+9OtFxExe/bsePLJJzcZmzVr1mZPOU+lVatWMX369JRzBx10UPz617+OO+64Y+PYoEGDYsiQIdGzZ8/o0KFD1KlTJxYvXhyjR4+ODz/8cJP7q1WrFk8++WTUqVOnVDkBAAAAAAAAbMvU7MtGzV7NvjJoGgcAAAAAAIDtwJIlS1KON2jQoFxxq1SpEnXq1InVq1dvMr548eK096Qq/Kc6UX1LNmzYsNn522+/PapVqxa33XZbFBYWRkTE+vXrY9iwYZucaP59zZo1i/79+8fhhx9e6pwAAAAAAAAA4PvU7NXsK0NethMAAAAAAAAAKt6qVatSjtetW7fcsVOd7P39gnS2/O53v4v3338/+vbtGzVr1tzstc2bN48bb7wxJk+eHMcee2wlZQgAAAAAAADAtk7NXs2+MnjSOOX21VdfxYcffhgTJkyIzz//PGbOnBkLFy6MxYsXx+rVqyM/Pz82bNgQ1apVixo1akT9+vWjSZMm0aJFi2jdunW0a9cuOnXqFF26dIn69etn++MAAAAAAEDuKCrMdgbkkIKCgpTjVauWv2RYrVq1YmP5+flpr2/VqlXKk8srSufOnePxxx+Pf//73zFu3Lj45JNPYunSpbF27dqoV69eNG3aNDp37hx77rlnJBKJSssLIBPU7AEAAAAAIEvU7CkFNXs1+8qgaZwyee+99+Kpp56KV199NaZPn15sPtUvjPXr18f69etjxYoVMWfOnJg4ceIm81WqVImuXbvGSSedFOedd17suuuuFZY/AAAAAACQu959991sp5CTCgtTb1ioUqVKuWOnirFhw4Zyx820GjVqRLdu3aJbt27ZTgWgXNTsAQAAAACAbFGzLxs1ezX7yqBpnFJ55pln4s4774xJkyZFROpC87c2d6JDMpksdu+GDRti7NixMXbs2Lj55pvjxBNPjJtuuim6du2ameQBAAAAAIBtQvfu3bOdQk5Kdzp5JgrFqWKkOskcgPJRswcAAAAAALJNzb5s1OypDHnZToDcMGXKlOjevXv06dMnJk6cuLGAnEgk0r42J90938YtKiqKl156Kbp16xaXXnpprFixopI+KQAAAAAAwLapRo0aKcfz8/PLHTtVjHTrAVB6avYAAAAAAAC5Tc2eyqBpnC165pln4sADD4z33ntv40njmysyf1tELsnr+75fjC4qKop+/fpFly5d4pNPPqnQzwkAAAAAALAtq1evXsrxlStXljt2qhj169cvd1wA1OwBAAAAAAC2BWr2VIbUz7OH/69fv35x2WWXRVFRUUREsaLzd4vINWvWjDZt2sTOO+8cLVq0iPr160edOnWiWrVqUaVKldiwYUPk5+fHypUrY9myZTF//vyYPXt2zJ49OwoLCzfG+XaNb/9vMpmMGTNmRI8ePWLEiBHRvn37iv7YAAAAAACQG5JF2c6AHNKkSZOU48uWLStX3HXr1sX69etLvB4AJadmDwAAAAAAWzE1e0pBzZ7KoGmctEaPHh1XXnllFBUVbVJ4/rbo3Lhx4zjppJPi8MMPjwMOOCDatWtXpnXy8/Nj0qRJMXr06Bg2bFj85z//ifz8/GKF6EWLFsXJJ58cH3zwgVMuAAAAAAAASqlFixYpx+fPn1+uuOnuT7ceACWjZg8AAAAAALDtULOnMuRlOwG2Ths2bIhLL700CgoKihWf995773j66adj/vz58cgjj0SfPn3KXHyOiKhevXp06dIlrr322hgyZEjMmzcv7rjjjmjYsOEmp6JHRMyYMSNuuummMq8FAAAAAACwvdppp52iRo0axcZnz55drrjp7m/dunW54gJsz9TsAQAAAAAAti1q9lQGTeOk9MQTT8TUqVM3Fp+/LQTfeuutMX78+Dj77LOjatWKeVB9o0aN4le/+lVMmzYtjj/++I1rJxKJSCaT8eCDD8acOXMqZG0AAAAAAIBtVSKRiLZt2xYbnzZtWrnifvbZZynHd99993LFBdieqdkDAAAAAABsW9TsqQyaxknpX//618Y/J5PJSCQS8eCDD8ZvfvObqFKlSqXk0KRJk3jxxRfjzDPP3OT08sLCwnjkkUcqJQcAAAAAANiqFRVtny/KrHPnzsXGJkyYUK6Y48aNKzbWsmXLaNq0abniAmzP1OwBAAAAACAHZLt2rmafc9TsqWiaxilm0aJFMXbs2I2nhCcSiTj33HPjsssuq/Rc8vLy4tFHH42WLVtGRGw8Rf3ll1+u9FwAAAAAAABy3YEHHlhs7OOPP47ly5eXOebo0aNLtA4AJaNmDwAAAAAAsG1Ss6eiaRqnmHHjxm1ySnhExE033ZSlbCJq164d119//cackslkTJgwIQoLC7OWEwAAAAAAQC464ogjio0VFhbGG2+8UaZ4CxYsSHlqeap1ACgZNXsAAAAAAIBtk5o9FU3TOMVMnz59k/e77LJLtG/fPkvZfOPYY4/d5P2GDRti9uzZWcoGAAAAAAAgN7Vv3z7atm1bbHzAgAFlivfss88Wa2xMJBJxwgknlCkeAGr2AAAAAAAA2yo1eyqapnGKWb58+cY/JxKJaN26dRaz+UabNm2KjX03TwAAAAAAAEqmb9++xcZeeOGF+PLLL0sVJ5lMxgMPPFBsvGfPntGyZcsy5wewvVOzBwAAAAAA2Hap2VORNI2zRYlEItspAAAAAAAAKSSTRdvli/K54ooronr16puMFRQUxM0331yqOI8++mhMnTq12Pi1115brvwA2JSaPQAAAAAAbJ2yXTtXs89NavZUJE3jFNOgQYONf04mkzFz5szsJfP/pcrhu3kCAAAAAABQMjvttFNccsklxcYfe+yxGDhwYIliTJs2LW644YZi4/vss0+ccsop5U0RYLumZg8AAAAAALDtUrOnImkap5jdd999k/ezZs2KTz/9NEvZfOPVV1/d5H3VqlVj1113zVI2AAAAAAAAue0Pf/hDNG7cuNj4+eefH08//fRm7x03blwcfvjhsXz58mJz9913X+TlKUEClIeaPQAAAAAAwLZNzZ6K4rtPMZ07d45EIrHJ2B133JGlbCLWrl0b99xzzyY5dezYMapUqZK1nAAAAAAAAEpr5syZkUgkNvtq3bp1ynt79eq1xXtL8yTapk2bxsMPP1xsfP369XHeeefFcccdFy+++GJ8/fXXUVhYGMuWLYsRI0bEFVdcEQceeGDMmTOn2L3XX3999OrVq8Q5AJCamj0AAAAAAEDmqdmzPdA0TjFNmzaNAw44IJLJZCQSiUgmk/HEE09Ev379spLPpZdeGrNnz46I2JjT8ccfn5VcAAAAAAAAthWnnHJK2ibEV199NU455ZRo0aJFVK1aNRo1ahQ9e/aMhx56KAoKCopdf8IJJ8Rdd91V0SkDbBfU7AEAAAAAALZ9avZUBE3jpHTFFVds/PO3RejLL7887rjjjkgmk5WSw9KlS+OUU06JAQMGbHJieZUqVeLSSy+tlBwAAAAAAGCrVlS0fb7ImBtvvDHuueeecj0ttm/fvjFo0KCoVq1aBjMD2L6p2QMAAAAAQA7Idu1czT7nqdmTaZrGSalv376xxx57bHyfSCSisLAwfvOb30SnTp1i0KBBUVhYWCFrL1++PP74xz/GHnvsEUOGDNlY8P72xPLLL788WrZsWSFrAwAAAAAAbG+uu+66eOedd6JLly6lum/HHXeMxx9/PB5//PGoUaNGBWUHsH1SswcAAAAAANg+qNmTSVWznQBbp2rVqsXDDz8cvXv3jg0bNkTE/04vnzRpUpx99tnRpEmTOOmkk+Lwww+PAw88MNq0aVOmtTZs2BCTJ0+Od999N4YNGxavv/565Ofnbyw8f/fE8tatW8cdd9xR/g8IAAAAAABQyXbccccYPXp0hcYvqwMPPDA++OCDeOONN+KJJ56IN954I7766qti1zVs2DAOPfTQOOOMM+Lss89WeAaoIGr2AAAAAAAAmaVmz/Ygkfy2ygcpPPLII3H55ZdvMvbdH5nvFodr1aoVbdq0iZ133jl22GGHaNCgQdStWzeqVq0aVapUiQ0bNkR+fn6sXLkyli1bFvPnz4/Zs2fHrFmzNjkBPVXhOZlMRpMmTeLtt9+Ovffeu6I+bqUoWPR5tlPIGUVL52c7hZyRXDYv2ynklOTSr7OdQu5Y7GtVUskli7OdQs5ILl6a7RRyRtGi5dlOIWcUfr062ynkjPULirKdQk5Zs6R6tlPIGcuX1cp2Cjlj2Tr/QFdSSxLVsp1CzlhcNS/bKeSMRVWynUFuWZyomCcXbouWREG2U8gZj8wclO0Utin5cyZlO4WsqN6yQ7ZT2C4sW7Ys5s6dG6tXr46aNWtG06ZNy1XkBqD01OwzT82+5NTsS0fdvuTU7EtBzb7E1OxLTs2+5NTsS07NvnTU7UtOzb7k1OxLTs2+5NTsS07NvuTU7EtHzb7k1OxLTs0+s9TsqUhq9pSFJ42zWZdccklUr149rrzyyli3bl1EFC8Mf2vNmjUxefLkmDJlSonjpzqz4Lvxv72mVatW8dJLL2Wt+JzJE0S6ttshY7EAAAAAAAAqSsOGDaNhw4bZTgNgu6Zm/w01ewAAAAAAYHujZk9ZaBpni/r27RsdO3aMSy+9ND744INNCsSpisWleXj99+//fqyIiAsuuCD++te/RoMGDUqZeeYcdNBBGYuVv3BGxmIBAAAAALCdS3oqEQBs69Ts1ewBAAAAANhKqdkDW5m8bCdAbujQoUOMHTs2Hnvssdh7773TFpoTiUSpXt/33bjHH398jB49Ovr165fV4jMAAAAAAAAAZJOaPQAAAAAAALAlnjROiSUSiejbt2/07ds3Ro8eHU8//XS8+uqrMWNG8VO4N3caeUSkLF7n5eXF/vvvHyeeeGL06dMnWrVqlanUAQAAAAAAACCnqdkDAAAAAAAAm6NpnDLp3r17dO/ePSIi5syZE++//35MnDgxZsyYETNnzoyFCxfGkiVLYtWqVVFQUBCFhYVRtWrVqFGjRtSrVy+aNGkSLVq0iNatW0e7du2ic+fO0bVrV6eTAwAAAAAAAMAWqNkDAAAAAAAA36dpnHJr2bJltGzZMk499dRsp1Jh3n333WynAAAAAAAAAADFqNkDAAAAAAAAEZrGoUS+PaE9EwoWfZ6xWAAAAAAAbOeKCrOdAQBAhVOzBwAAAABgq6RmD2xl8rKdAAAAAAAAAAAAAAAAAAAAAGWnaRwAAAAAAAAAAAAAAAAAACCHaRoHAAAAAAAAAAAAAAAAAADIYVWznQAAAAAAAABllCzKdgYAAAAAAAAAsH1Sswe2Mp40DgAAAAAAAAAAAAAAAAAAkMM0jQMAAAAAAAAAAAAAAAAAAOSwqtlOgNyzaNGiGDZsWMyaNSvmz58feXl5seOOO8buu+8eRx11VNSrVy+j640fPz5OO+20je8TiUTMmDEjo2sAAAAAAAAAQC5QswcAAAAAAABS0TROiY0ZMyZuuummGDlyZBQVFaW8plq1atG7d+/4+c9/Hr169crIuuvXr4+ZM2dGIpGIZDIZiUQiI3EBAAAAAAAAIFeo2QMAAAAAAACbo2mcLSosLIxrrrkm/v3vf0cymYxkMpn22vz8/Bg2bFgMGzYsTjjhhHjggQeiZcuWlZgtAAAAAABsR9I0jAEA2w41ewAAAAAA2Eqp2QNbmbxsJ8DWLT8/P04//fR46KGHoqioaOOp4Zt7fVukfvnll2PfffeNgQMHZvtjAAAAAAAAAEDOUbMHAAAAAAAASkrTOJt11VVXxUsvvbRJ4XlLvluIXrZsWZxzzjlx/fXXb/a0cwAAAAAAAABgU2r2AAAAAAAAQElpGietl19+Ofr161es8PztqeQREY0aNYrmzZtvclr5t75biL7vvvvijDPOiIKCgkr/HAAAAAAAAACQa9TsAQAAAAAAgNLQNE5KyWQyfvzjH6cc7969ewwePDhWrFgRixYtinnz5sWKFSti6NChcfrpp28sOn/r2/cvvPBCnHzyybF+/frK/CgAAAAAAAAAkFPU7AEAAAAAAIDS0jROSkOHDo2ZM2duPK3824LynXfeGe+8806ccsopUadOnY3X165dO4499tgYOHBgfPjhh3HggQemLEIPGzYsjjvuuFizZk3lfiAAAAAAANgGJZNF2+ULALZ1avYAAAAAALD1y3btXM0e+D5N46T073//e+Ofk8lkJBKJuPXWW+MXv/jFFu/t2LFjvPPOO/G73/1uYwE74n9F6LfffjuOOeaYWLVqVYXkDgAAAAAAAAC5TM0eAAAAAAAAKC1N46Q0atSoTYrHnTt3jptvvrnE9+fl5cUtt9wSQ4cOjfr1628c/7YI/c4778RRRx0VK1asyGjeAAAAAAAAAJDr1OwBAAAAAACA0tI0TjGffvppLF26NCL+d2L5z3/+8zLFOvroo+Odd96JXXbZZePYt0XosWPHxhFHHBHLli3LRNoAAAAAAAAAkPPU7AEAAAAAAICy0DROMR9//PEm7/Py8uL4448vc7y99tor3nnnndhzzz0jmUxGxP+K0B988EH07t07lixZUq6cAQAAAAAAAGBboGYPAAAAAAAAlIWmcYr59sTyb+2xxx5Rt27dcsXceeedY8SIEdGxY8dNitAREePHj4/evXvHokWLyrUGAAAAAABsd4qKts8XAGzD1OwBAAAAACBHZLt2rmYPfI+mcYr5bgE6kUhEs2bNMhK3adOmMXz48OjatWuxIvTEiROjV69esWDBgoysBQAAAAAAAAC5SM0eAAAAAAAAKAtN4xRTUFBQYbEbNmwYb775ZnTv3r1YEXrKlCnRq1ev+PrrrytsfQAAAAAAAADYmqnZAwAAAAAAAGWhaZxiGjRosPHPyWQy4yeJ16tXL15//fU45JBDihWhP/nkk+jVq1fMnz8/o2sCAAAAAAAAQC5QswcAAAAAAADKQtM4xTRu3HiT95kuQEdE1KlTJ1577bXo0aNHsSL01KlTo2fPnjFv3ryMrwsAAAAAAAAAWzM1ewAAAAAAAKAsNI1TTLt27TZ5v3Tp0pg5c2bG16ldu3a88sor0bt372JF6GnTpkWPHj3iq6++yvi6AAAAAACwzUgWbZ8vANiGqdkDAAAAAECOyHbtXM0e+B5N4xSz1157RV7epj8aI0eOrJC1atWqFS+//HIcccQRxYrQ06dPj549e8bs2bMrZG0AAAAAAAAA2Nqo2QMAAAAAAABloWmcYmrWrFns5PLhw4dX6HpDhgyJY445plgResaMGXHJJZdU2NoAAAAAAAAAsDVRswcAAAAAAADKomq2E2Dr1KNHj/j0008jkUhEMpmMwYMHx9///veoVatWhaxXo0aNeOGFF+L000+PoUOHRiKR2FiEXr16dYWsmTUF67OdQe7Y4GtVYhvys51Bbslfl+0MckeBn60SKyjIdga5Y72fq5JKrvdzVVJF+UXZTiFnFBU4O6w0CvKrZDuFnLGh0M9WSRU4w6/ECv7/vw2wZet9qUqsIJLZTiGn+HqVXH7S/yYFACBz1OwrkJp9yanZl466fcmp2Zecmn3JqdmXnJp9ianZl5yafemo25ecmn3JqdmXnJp9yanZl5yafcmpQZeOr1fJqdkDwDf8Fw8p9e7de5P3q1atikGDBlXomtWrV4/BgwfHySefvPH08oj/nWAOAAAAAAB8T1Hh9vkCgG2cmj0AAAAAAOSAbNfO1eyB79E0Tkq9evWKvLxNfzwefPDBCl+3WrVqMWjQoDj99NM3KUIDAAAAAAAAwPZCzR4AAAAAAAAoLU3jpNSsWbM47LDDIplMRiKRiGQyGaNHj47hw4dX+NpVqlSJAQMGxLnnnruxCO3kcgAAAAAAAAC2F2r2AAAAAAAAQGlpGietM888MyJiYxE4mUzGb3/720pZOy8vL5544om48MILnV4OAAAAAAAAwHZHzR4AAAAAAAAojarZToCt1+mnnx4fffRRsfF58+bFjjvuWOHrJxKJePTRR6NOnToxdOjQCl8PAAAAAAAAALYWavYAAAAAAABAaWgaJ63mzZvHQw89lO004v7774/7778/22kAAAAAAMDWJ1mU7QwAgAqiZg8AAAAAAFs5NXtgK5OX7QQAAAAAAAAAAAAAAAAAAAAoO03jAAAAAAAAAAAAAAAAAAAAOUzTOAAAAAAAAAAAAAAAAAAAQA7TNA4AAAAAAAAAAAAAAAAAAJDDqmY7AQAAAAAAAMqoqCjbGQAAAAAAAADA9knNHtjKeNI4AAAAAAAAAAAAAAAAAABADtM0DgAAAAAAAAAAAAAAAAAAkMM0jQMAAAAAAAAAAAAAAAAAAOQwTeMAAAAAAAAAAAAAAAAAAAA5rGq2EwAAAAAAAKCMkkXZzgAAAAAAAAAAtk9q9sBWxpPGAQAAAAAAAAAAAAAAAAAAcpimcQAAAAAAAAAAAAAAAAAAgBymaRwAAAAAAAAAAAAAAAAAACCHaRoHAAAAAAAAAAAAAAAAAADIYVWznQAAAAAAAABlVFSU7QwAAAAAAAAAYPukZg9sZTxpHAAAAAAAAAAAAAAAAAAAIIdpGgcAAAAAAAAAAAAAAAAAAMhhmsYBAAAAAAAAAAAAAAAAAABymKZxAAAAAAAAAAAAAAAAAACAHFY12wkAAAAAAABQNslkYbZTAAAAAAAAAIDtkpo9sLXxpHEAAAAAAAAAAAAAAAAAAIAcpmkcAAAAAAAAAAAAAAAAAAAgh2kaBwAAAAAAAAAAAAAAAAAAyGFVs50AAAAAAAAAZZQsynYGAAAAAAAAALB9UrMHtjKeNA4AAAAAAAAAAAAAAAAAAJDDNI0DAAAAAAAAAAAAAAAAAADkME3jAAAAAAAAAAAAAAAAAAAAOUzTOAAAAAAAAAAAAAAAAAAAQA6rmu0EAAAAAAAAKKOiomxnAAAAAAAAAADbJzV7YCvjSeMAAAAAAAAAAAAAAAAAAAA5TNM4AAAAAAAAAAAAAAAAAABADtM0DgAAAAAAAAAAAAAAAAAAkMM0jQMAAAAAAAAAAAAAAAAAAOSwqtlOAAAAAAAAgDJKFmU7AwAAAAAAAADYPqnZA1sZTxoHAAAAAAAAAAAAAAAAAADIYZrGAQAAAAAAAAAAAAAAAAAAcpimcQAAAAAAAAAAAAAAAAAAgBymaRwAAAAAAAAAAAAAAAAAACCHVc12AgAAAAAAAJRRUWG2MwAAAAAAAACA7ZOaPbCV8aRxAAAAAAAAAAAAAAAAAACAHKZpHAAAAAAAAAAAAAAAAAAAIIdpGgcAAAAAAAAAAAAAAAAAAMhhmsYBAAAAAAAAAAAAAAAAAAByWNVsJwAAAAAAAEAZJYuynQEAAAAAAAAAbJ/U7IGtjCeNAwAAAAAAAAAAAAAAAAAA5DBN4wAAAAAAAEBWrVq1KkaOHBl//vOf46yzzorWrVtHIpHY+GrVqlWFrf3jH/94k7USiURcdNFFFbYeAAAAAAAAAGxN1Oy3HVWznQAAAAAAAACwfbr77rvj0UcfjY8//jiKiooqff0xY8bEAw88UOnrAgAAAAAAAEC2qdlvezSNAwAAAAAA5KosFOwgk0aOHBmTJ0/OytoFBQVx+eWXZ6XwDQAAAAAAAGwD1BrJcWr22568bCcAAAAAAAAA8K26devGYYcdFnXq1KnQde68886Nxe8dd9yxQtcCAAAAAAAAgFygZp/bPGkcAAAAAAAAyIqaNWvGAQccEPvvv3/sv//+0bVr12jfvn3k5eVFq1atYvXq1RWy7qeffhq33357RETUrl077rjjjrj44osrZC0AAAAAAAAA2Bqp2W97NI0DAAAAAAAAWfHMM89U+prJZDIuv/zyWL9+fURE3HLLLdGqVatKzwMAAAAAAAAAsknNftuTl+0EAAAAAAAAACrLgw8+GKNGjYqIiH322SduuOGGLGcEAAAAAAAAANsHNfuK5UnjAAAAAAAAuSpZlO0MIKfMnTs3fvWrX0VERCKRiAcffDCqVauW5awAAAAAAACAnKRmD6WiZl/xPGkcAAAAAAAA2C5ce+21sXz58oiIuPzyy+Oggw7KckYAAAAAAAAAsH1Qs694njQOAAAAAAAAbOLjjz+OyZMnx9y5c2PVqlVRs2bNaNasWbRv3z46d+6ckyd9Dx48OJ5//vmIiGjevHnceeedWc4IAAAAAAAAAIpTs6esNI1DJUtuyM92Cjkjmb822ynkjOR6X6tSKfD3sMQKCrKdQe5Y///Yu/c4q+qyb/zXhhkgDgKCB9AUhA6aWjgGwt1dqDxZyu2tofmYGHcpVr88Ut3lIbOHNLXS+9FSEzXz0EFJy0q0UMNSNAc8pHgWBM8ggqDIHPb6/eHDyLBnYM+ew9pr9vv9eu0XrO+s77WuvRsm5eO1lu+rYiV1DWm3kBlJXWPaLWRG4o9g0RrW90i7hUxpbPB5Fash77MqVl34rIq1vkcu7RYyo95HVbS6XJJ2C5lSF/m0W8iMep8VUKLnnnsuFixY0Oz1xhtvFJx31113xcSJEzu1l2XLlsVFF10Uv/rVr+Kll15q9bwBAwbEwQcfHCeeeGKMHTu2U3vqKKtXr47jjz++6fiCCy6IwYMHp9gRAGmR2RdPZt82cvs2kNkXT2ZfPJl90WT2xZPZF09m3zZy++LJ7Isnsy+ezL54MvviyeyLJ7NvG5l98WT2QKlk9l1DZt91DI0DAAAAAABAF1i8eHHU1tZuMWzuavl8Ps4999z4wQ9+EOvWbXnYac2aNXH99dfH9ddfH0cffXRcfPHFMXDgwC7otHTf+ta34uWXX46IiEmTJsVRRx2VckcAAAAAAAAAdCWZfXpk9l3H0DgAAAAAAEBW5d0xP0vGjBkTq1evTruNZtatWxeHH354/PnPfy5p/7XXXhv33Xdf3H777TFy5MgO7q5j3H333XHFFVdERESfPn3i0ksvTbkjAAAAAAAAoFuQ2WeKzD4dMvuu1SPtBgAAAAAAAICu19jYGFOmTGk1fK6uro6PfvSjsf/++8fYsWOjf//+LZ739NNPx3777dd0V/Bysn79+jjuuOMiSZKIiDjttNNi9OjRKXcFAAAAAAAAQKWT2dMZDI0DAAAAAABABTrzzDNjzpw5BeuDBg2KCy+8MJYvXx4PPfRQzJ07N+6///5YuXJlzJ49Oz74wQ8W7FmyZEkceeSR0djY2BWtF23mzJnx5JNPRkTEhz70ofj2t7+dckcAAAAAAAAAILOncxgaBwAAAAAAgJTstNNOceihh8bZZ58dt912W9TW1nbJdR9++OE477zzCtZHjhwZCxYsiJNPPjkGDhzY7GvV1dUxZcqUWLhwYRxwwAEFe+fNmxeXXXZZp/XcVv/617/i/PPPbzq+7LLLolevXil2BAAAAAAAAEA5kdl3Hpl9OqrSbgAAAAAAAAAqwU477RSjR4+OmpqaqKmpib333juGDh3a7JwlS5Z0SS/f+MY3Cu4w3q9fv7j11ltjl1122ezefv36xU033RRjx46Nxx57rNnXzjzzzJg2bVr079+/w3tui3w+H8cee2zU19dHRMS0adNi4sSJqfYEAAAAAAAAQHpk9l1HZp8eQ+MAAAAAAABZlc+n3QFt8Mgjj6TdQkRE1NbWxh133FGw/t3vfjc+/OEPF1Wjb9++MWvWrJgwYUKz9ZUrV8bll18eM2bM6JBeS3XxxRfHP//5z4iIGDJkSPz4xz9OtR8AAAAAAACgG5LZZ4rMvuvI7NNjaJzUPf744/HXv/41HnrooVixYkXk8/nYZpttYptttomxY8fGpEmTYtCgQWm3CQAAAAAA0C1cfvnlBWtDhgyJE044oU11xo8fHwcccEDcfvvtzdZnzZqVagC9bt26OOOMM5qOf/SjHxXcHR6A98jsAQAAAAAAuo7Mns5kaJySPPbYY/HHP/4xnn322Xj55ZejZ8+esf3228c+++wT//Ef/1HUH+IFCxbEf//3f8ff/va3zZ7Xo0eP+MxnPhPnnHNO7LHHHh30DgAAAAAAACpPQ0NDzJ49u2D9qKOOir59+7a53vTp0wsC6CeeeCIWLlwYe+21V8l9tsf69etj7dq1TcfTp0+P6dOnb3ZPkiTNjq+55pq47rrrmo6nTZsWV155Zcc2CtAOMnsAAAAAAIDskdm3TGbfcQyN0yb33XdffP3rX4+HHnqoxa9fccUV0bt375g+fXqcc8450a9fvxbP+9GPfhRnnHFGNDQ0FPyB3lRjY2PceuutMWfOnDjxxBPjggsuaO/bAAAAAAAAqEj33XdfvPHGGwXrU6ZMKaneQQcdFO973/ti3bp1zdbnzJmTWgC9qcbGxjbvSZKk2b5SagB0Bpk9AAAAAABAdsnsiyOzL12PtBsgO374wx/GJz7xiXjooYciSZJWX++880789Kc/jZqamnjhhRcK6sycOTO+853vRH19fSRJErlcbouvJEkin8/H//2//zc+//nPR0NDQwqfAAAAAAAAQLbdddddBWt9+/aN8ePHl1SvT58+MWHChIL1O++8s6R6ALROZg8AAAAAAJBtMns6m6FxinLOOefE6aefHvl8vqjQOEmSeOqpp2K//faLN998s6nOX//61zjrrLMiIprO3diGEHtTG9f93e9+F2eccUanvl8AAAAAAMiCJGmsyBele+CBBwrWxowZE9XV1SXXHDt2bMHawoULS67XXoMGDdrsMGVLr02D+WnTpjX7+tVXX53OmwH4f2T2AAAAAABQftLOzmX22SOzl9l3NkPjbNH8+fPjzDPPbBYwb2zjP3wbbDjn2WefjRNPPDEiIhobG+OrX/1qQcC8Ye/w4cNjr732inHjxsXIkSObAueNbVj7yU9+EvPnz++MtwsAAAAAANBtPfLIIwVru+++e7tq7rnnngVrq1atiueff75ddQF4l8weAAAAAACge5DZ09mq0m6A8pYkSRx77LGRz+ebBc8bguFRo0bFrrvuGltttVWsWLEiamtrY+XKlc3uMn7dddfFt7/97Vi4cGEsXry4qU6SJDFo0KD45je/GV/4whdixIgRza79+uuvx8033xznnHNOLFmypNn1Gxsb46yzzorbb7+98z8EAAAAAACgrHTkkNr48eM7rFa5q6uri2XLlhWsjx49ul11R40a1eL6c889FzvvvHO7agNUOpk9AAAAAABQbmT2pZHZ0xUMjbNZt99+ezz++OPNQuOIiH333Td+8pOfxMc+9rFm5ydJEjfffHN861vfisWLFzetXXbZZfHMM880O7empiZuueWWGDZsWIvXHjJkSBx77LFx9NFHxxe/+MW48cYbmwXbd9xxRzzzzDPt/qEIAAAAAABky4QJEzqs1qZPUO3Oli1bFvl8vmB9hx12aFfd1vYvWbKkXXUBkNkDAAAAAADlR2ZfGpk9XaFH2g1Q3q644oqm3ydJErlcLo4++uj461//WhA+R0Tkcrn43Oc+F/Pnz4/ddtutKbiePXt23HnnnU3h8YgRI2Lu3Lmths8b6927d/zmN7+JT3/6083+TyBJkvjNb37T/jcJAAAAAABZlc9X5ouSLF++vMX17bbbrl11W9vf2vU29vzzz0dVVVWLr+eff76o8+bNm9eu/gHKmcweAAAAAADKWNrZucw+U2T2dAVD42zWHXfc0RQiR0R86EMfilmzZkWPHpv/1tl2223jt7/9bVRVvfsw+1deeSXq6uqaQuzLLrssBg4cWHQfuVwurr766ujTp0+z9fvuu68N7wYAAAAAAKByrVy5ssX1tmQ2LenZs2f069evYP3111/f4t4kSaKxsbHF16ZaO6+S7jwPVB6ZPQAAAAAAQPcgs6crGBqnVU8//XSsXr06It67Y/l3vvOd6NWrV1H7P/KRj8Rhhx3W9Id+w6977LFH/K//9b/a3M/2228fU6dObeolSZJ44IEH2lwHAAAAAACgEq1du7bF9f79+7e7dksB9FtvvdXuugCVTGYPAAAAAADQfcjs6QpVaTdA+frXv/7V7LhHjx7xuc99rk01DjvssPj1r3/ddJzL5eIzn/lMyT199rOfjSuuuKLpeMWKFbFmzZoYMGBAyTUBAAAAAIBsuffee9NuIZPq6+tbXN/wFNr2qK6uLlirq6vb4r4RI0aUxV3HJ06cWBZ9AGxMZg8AAAAAAJQjmX1pZPatk9l3HEPjtGrlypXNjkePHt3mu1bU1NQUtdaeeqtWrRJAAwAAAABABRk/fnzaLWRSY2Nji+s9e/Zsd+2WajQ0NLS7LkAlk9kDAAAAAADlSGZfGpk9XcHQOK1atWpV0+9zuVxsu+22ba6xzTbbFKwNGTKk5J6GDh1asLZq1ap4//vfX3JNAAAAAADIrCSfdgdkSGt3J++IoLilGi3dyRyA4snsAQAAAACgzMnsaQOZPV2hR9oNUL7q6+ubHZfyQ6KlH2Tt+WHT0t7W7rABAAAAAADAe3r37t3iel1dXbtrt1SjtesBUByZPQAAAAAAQPchs6crGBqnVQMHDmz6fZIksXLlyjbXeOONNwrWSqmzub0b9wkAAAAAAEDLBgwY0OL6mjVr2l27pRpbbbVVu+sCVDKZPQAAAAAAQPchs6crGBqnVYMGDWp2/NRTT7X5DuGPPfZYwdrjjz9eck9PPPFEwdqmfQIAAAAAAFBoyJAhLa6vWrWqXXXfeeedWL9+fdHXA6A4MnsAAAAAAIDuQ2ZPVzA0TqtGjhzZ7HjdunXxj3/8o001/vKXvxSs3XnnnSX3tOnevn37xuDBg0uuBwAAAAAAUCm23377FtdfeeWVdtVtbX9r1wOgODJ7AAAAAACA7kNmT1cwNE6rxowZE1VVVc3WfvKTnxS9f82aNXHllVdGLpeLiIhcLhdJksSdd94ZTz31VJv7qa+vjyuuuKKpTi6XizFjxrS5DgAAAAAAdBv5fGW+KMnw4cOjd+/eBetLly5tV93W9m867AhA28jsAQAAAACgzKWdncvsM0VmT1cwNE6r+vTpE2PGjGkKe5MkiT//+c9x1VVXFbX/K1/5SqxYsSIi3g2fq6urIyIiSZI4/vjj29zP//k//ydefvnlZmtjx45tcx0AAAAAAIBKlMvlYtSoUQXrpQwObuzpp59ucX306NHtqgtQ6WT2AAAAAAAA3YfMnq5QteVTqGRTp06NBx54ICLeu+v4V77ylXj11Vfjm9/8ZlOovLHXXnstvv71r8dNN93UdMfycePGxcCBA+O2226LJEnijjvuiK997WtxySWXNJ2zOVdddVX88Ic/LDj34IMP7oB3uWXz58/vsFo1O/btsFoAAAAAAABtMWbMmFi0aFGztYcffrhdNR988MGCtR133DGGDh3arroAyOw3kNkDAAAAAADdgcyezmZonM364he/GKeeemqsW7cuIt4NoRsbG+OMM86In/70pzF58uTYbbfdon///vH666/HP//5z7j99tvj7bffjiRJmvZMnTo1evXqFbfddltTkH355ZfHokWL4rzzzot99tmnxes///zzcdZZZ8U111zT7O7pERG77bZbfPKTn+ySz2HChAkdVmv90oc6rBYAAAAAAEBbjBs3Lq6//vpma4sWLYrVq1fHwIEDS6rZ0iDfuHHjSqoFQHMy+3fJ7AEAAAAAgO5AZk9nMzTOZg0cODC+//3vx7e+9a2m8HfDry+//HJcccUVBXs2Dp6TJIlhw4bFMcccE0mSxHe/+9149dVXm772j3/8I/7t3/4tRowYEZ/4xCdiu+22i+rq6li+fHksWLAgHn744UiSpOm6G+RyufjmN7/ZZZ8DAAAAAABAdzBp0qSCtcbGxpg7d25MmTKlzfVee+21Fu9a3tJ1AGg7mT0AAAAAAED3IbOnsxkaZ4tOOeWUuPnmm+Pee+9tCoE3/LohbN7Yxl/L5XIxa9as6NWrV0REnH322XHMMcdELpdrdgfyxYsXx5IlS5rV2bj2pjU/85nPxLRp0zr2jQIAAAAAQNYk+bQ7IGN23XXXGDVqVDz77LPN1n/729+WFEDfcMMNBXlRLpeLyZMnt6tPAN4jswcAAAAAgDIls6eNZPZ0th5pN0D569GjR/z5z3+Oj3/84y3+ANn0FfFeeHz++efHZz/72abzv/SlL8URRxzR7M7mG4fRG782/vrGRo8eHVdddVWnvV8AAAAAAIDubOrUqQVrv//972PZsmVtqpMkSfzsZz8rWJ84cWLsuOOOJfcHQHMyewAAAAAAgO5DZk9n8qRxijJw4MC444474r//+7/j8ssvj3w+XxAMR7wXPA8ePDguueSSOOKIIwrOufbaa6OxsTFmz57drEZL9Tatvddee8WcOXNim222aec7apt77723S68HAAAAAADQWY477rj44Q9/GHV1dU1r9fX1ccYZZ8Qvf/nLouv84he/iCeeeKJg/fjjj++QPgF4j8xeZg8AAAAAAHQPMns6k6Fxita/f/+45JJL4mtf+1pce+21ccstt8Rzzz0XDQ0NERFRVVUVe+21V0yZMiWmT58egwYNarFOVVVV3HDDDXHppZfGGWecEW+88UZEFAbQG98hfeutt47TTjstjj/++OjVq1fnvMHNGD9+fIfVqlv2cIfVAgAAAAAAaKvhw4fHl7/85bjsssuarV9zzTUxefLkOPzww7dY46mnnooZM2YUrO++++5xyCGHdFSrAGxEZt8xZPYAAAAAAECaZPZ0JkPjtNkee+wR559/fpx//vmRJEm8/vrrkSRJbL311tGzZ8+i63zta1+LadOmxfXXXx+33357LFy4MJYvXx4NDQ0xdOjQ2HbbbaOmpiY+85nPxKc//eno379/J74rAAAAAACAyjFz5sy44YYbYuXKlc3Wjz766GhoaIgjjzyy1b0PPvhgHHzwwbF69eqCr1100UXRo0ePDu8XgPfI7AEAAAAAALJNZk9nySUb3xoa6HTuWl68/MoX024hM5I3Xkm7hWx547W0O8iOlSvS7iAzkhWvp91CZuRXrEq7hcxoXLEm7RYyo+G1+rRbyIy3X3PvsLZYu6p32i1kxuq3+qTdQma83uj7qlivVxX/H7pXutd9VEV7vUc+7RYy5fVoSLuFzFiZ1KXdQmb89vnfp91Ct7LuL5ek3UIq3vfp/y/tFkqyZMmSGDlyZKfVX7x4cYwYMaLo83//+9/HoYce2uLXPvvZz8ZXvvKV2GeffWLo0KGxZs2aePjhh+P666+Pq6++OurrC/9d/JRTTokLLrig1PYBoEvI7Isns28buX0byOyLJ7Mvmsy+eDL74snsiyezbxu5ffFk9sWT2RdPZl88mX3xZPbFk9m3jcy+eDL74snsO5bMPltk9lQCf+sAAAAAAAAAFeiQQw6Jc845J0477bSCr82ZMyfmzJlTdK3JkyfHeeed15HtAQAAAAAAAEC3JbOnM3jOPAAAAAAAAFSoU089NS688MLo2bP0x6BMnTo1Zs+eHdXV1R3YGQAAAAAAAAB0bzJ7OpqhcQAAAAAAAKhgJ598ctxzzz1RU1PTpn3Dhg2La6+9Nq699tro3bt3J3UHAAAAAAAAAN2XzJ6OVJV2AwAAAAAAAFAJhg0bFvPnz+/U+qUaN25c1NbWxty5c+O6666LuXPnxosvvlhw3qBBg+Lf//3f47DDDosjjjhC8AwAAAAAAABAJsjsqQSGxgEAAAAAALIqyafdAW3Qu3fv2GeffdJuY7MmTZoUkyZNioiIVatWxUsvvRRvvfVW9OnTJ4YOHdqukBsAAAAAAACgW5HZZ4rMnkpgaBwAAAAAAAAoMGjQoBg0aFDabQAAAAAAAABAxZHZUwpD42TK0qVLmx0PGzYsqqurU+oGAAAAAAAAACqHzB4AAAAAAADKl6FxMmXEiBGRy+WajufPnx9jx45NsSMAAAAAAAAAqAwyewAAAAAAAChfhsbJpCRJmgXRAAAAAABQkfL5tDsAACqQzB4AAAAAAEJmD5SdHmk3AAAAAAAAAAAAAAAAAAAAQOkMjQMAAAAAAAAAAAAAAAAAAGSYoXEAAAAAAAAAAAAAAAAAAIAMMzQOAAAAAAAAAAAAAAAAAACQYVVpNwAAAAAAAECJ8vm0OwAAAAAAAACAyiSzB8qMJ40DAAAAAAAAAAAAAAAAAABkmCeNs1l333132i0AAAAAAAAAQEWS2QMAAAAAAADFMjTOZk2cODFyuVzabQAAAAAAAABAxZHZAwAAAAAAAMUyNE5RkiRJuwUAAAAAAAAAqEgyewAAAAAAAGBLDI1TlHK5c7kgHAAAAAAANpLk0+4AAOgCMnsAAAAAAChDMnugzBgapygbB7/lEkYDAAAAAAAAQCWQ2QMAAAAAAABbYmicNnPncAAAAAAAAABIh8weAAAAAAAAaImhcTZr8ODBsWrVqsjlcpEkSeRyuaitrY2tt966y3tJkiR22WWXLr8uAAAAAAAAAKRBZg8AAAAAAAAUy9A4m1VTUxNz586NXC7XtLZixYoYM2ZMil0BAAAAAAAAQPcnswcAAAAAAACK1SPtBihvNTU1BWsLFixIoRMAAAAAAKBAPl+ZLwCoEDJ7AAAAAAAoY2ln5zJ7YBOGxtmslgLo2traFDoBAAAAAAAAgMoiswcAAAAAAACKVZV2A5S3jQPoXC4XSZK4a3k7JXXr0m4hOxrq0u4gO3xWbVPv8ypWUrc+7RYyI6mvT7uFzEjqG9JuITOSdxrTbiEzGt9Ju4PsaKx377C2aGjomXYLmVGX91kVqz6XS7uFzKj3URVtvc+qaHWRpN1CptSHOwMXy2cFAEBnkNl3PJl9G8ih28bnVTyZfdFk9sWT2RdPZl88mX3xZPZtI7cvnsy+eDL74snsiyezL57Mvngy+7aRQxfPZwUA7/K3DmzWyJEjY/Dgwc3Wli5dGitXrkypIwAAAAAAAACoDDJ7AAAAAAAAoFiGxtmimpqaSJLmd3Oqra1NqRsAAAAAAAAAqBwyewAAAAAAAKAYhsbZopqamoK1BQsWpNAJAAAAAADQTJKvzBcAVBCZPQAAAAAAlKm0s3OZPbAJQ+Ns0cYBdC6Xi4h0A+gNd1Df9E7qAAAAAAAAANDdyOwBAAAAAACAYlSl3QDlb++9946tttqqKXyOiHjmmWdS6WXx4sXNjocNG5ZKHwAAAAAAAADQFWT2AAAAAAAAQDEMjbNFI0aMiFWrVqXdRkRE7Lzzzmm3AAAAAAAAAABdRmYPAAAAAAAAFMPQOAAAAAAAQFbl82l3AAAAAAAAAACVSWYPlJkeaTcAAAAAAAAAAAAAAAAAAABA6QyNAwAAAAAAAAAAAAAAAAAAZJihcQAAAAAAAAAAAAAAAAAAgAwzNA4AAAAAAAAAAAAAAAAAAJBhVWk3AAAAAAAAQImSfNodAAAAAAAAAEBlktkDZcaTxgEAAAAAAAAAAAAAAAAAADLM0DgAAAAAAAAAAAAAAAAAAECGGRoHAAAAAAAAAAAAAAAAAADIMEPjAAAAAAAAAAAAAAAAAAAAGVaVdgMAAAAAAACUKJ9PuwMAAAAAAAAAqEwye6DMeNI4AAAAAAAAAAAAAAAAAABAhhkaBwAAAAAAAAAAAAAAAAAAyDBD4wAAAAAAAAAAAAAAAAAAABlmaBwAAAAAAAAAAAAAAAAAACDDqtJuAAAAAAAAgBLl82l3AAAAAAAAAACVSWYPlBlPGgcAAAAAAAAAAAAAAAAAAMgwQ+MAAAAAAAAAAAAAAAAAAAAZZmgcAAAAAAAAAAAAAAAAAAAgwwyNAwAAAAAAAAAAAAAAAAAAZFhV2g0AAAAAAABQoiRJuwMAAAAAAAAAqEwye6DMeNI4AAAAAAAAAAAAAAAAAABAhhkaBwAAAAAAAAAAAAAAAAAAyDBD4wAAAAAAAAAAAAAAAAAAABlWlXYDAAAAAAAAlCifT7sDAAAAAAAAAKhMMnugzHjSOAAAAAAAAAAAAAAAAAAAQIYZGgcAAAAAAAAAAAAAAAAAAMgwQ+MAAAAAAAAAAAAAAAAAAAAZZmgcAAAAAAAAAAAAAAAAAAAgw6rSbgAAAAAAAIAS5fNpdwAAAAAAAAAAlUlmD5QZTxoHAAAAAAAAAAAAAAAAAADIMEPjAAAAAAAAAAAAAAAAAAAAGWZoHAAAAAAAAAAAAAAAAAAAIMMMjQMAAAAAAAAAAAAAAAAAAGRYVdoNAAAAAAAAUKIkn3YHAAAAAAAAAFCZZPZAmfGkcQAAAAAAAAAAAAAAAAAAgAwzNA4AAAAAAAAAAAAAAAAAAJBhhsYBAAAAAAAAAAAAAAAAAAAyzNA4AAAAAAAAAAAAAAAAAABAhlWl3QAAAAAAAAAlyufT7gAAAAAAAAAAKpPMHigznjQOAAAAAAAAAAAAAAAAAACQYYbGAQAAAAAAAAAAAAAAAAAAMszQOAAAAAAAAAAAAAAAAAAAQIYZGgcAAAAAAAAAAAAAAAAAAMiwqrQbAAAAAAAAoERJknYHAAAAAAAAAFCZZPZAmfGkcQAAAAAAAAAAAAAAAAAAgAwzNA4AAAAAAAAAAAAAAAAAAJBhhsYBAAAAAAAAAAAAAAAAAAAyzNA4AAAAAAAAAAAAAAAAAABAhlWl3QAAAAAAAAAlyufT7gAAAAAAAAAAKpPMHigznjQOAAAAAAAAAAAAAAAAAACQYYbGAQAAAAAAAAAAAAAAAAAAMszQOAAAAAAAAAAAAAAAAAAAQIZVpd0AAAAAAAAAJcrn0+4AAAAAAAAAACqTzB4oM4bGoavVr0+7g+zwWRVv/Ttpd5Atdb63ilZXn3YH2VHXkHYH2fGO76tiJXVJ2i1kRr4+l3YLmdFQ1yPtFjKlvsHnVaz6xGdVrPoefmYVa72Pqmj14Z8biuWzahufV/Hqksa0WwAAAIohhy6ez6pt5PbFk9kXT2ZfPJl98WT2RZPZF09m3zZy++LJ7Isnsy+ezL54MvviyVWL57NqG59X8WT2APAu/3YIAAAAAAAAAAAAAAAAAACQYZ40DgAAAAAAAJSNlStXxj333BMvvPBCvPnmmzFs2LDYZZddYsKECdGjh3tiAwAAAAAAAEBnkdlnm6FxAAAAAAAAIHVPP/10fOc734k//elPUVdXV/D14cOHx3HHHRennnpq9OrVK4UOAQAAAAAAAKB7ktl3D8b6AQAAAAAAsirJV+aLbuf666+PMWPGxE033dRi+BwR8dJLL8VZZ50V48ePj+eff76LOwQAAAAAAADYRNrZucyeDiKz7z48aRwAAAAAAABIzW233RbTpk2LxsbGprUPfOADsd9++8XWW28dzz77bPzxj3+MdevWRUTEwoULY/LkyXHvvffGgAED0mobAAAAAAAAADJPZt+9GBoHAAAAAAAAUvHKK6/E//7f/7spfM7lcvHjH/84Tj755OjRo0fTecuXL4/DDz885s2bFxERjz76aHz1q1+N66+/PpW+AQAAAAAAACDrZPbdT48tnwKda+3atfHKK69EXV1d2q0AAAAAAADQhc4+++xYvXp10/H3v//9mDFjRrPwOSJim222idtuuy123XXXprVf//rX8fDDD3dZrwDdlcweAAAAAACgMsnsux9D43Sp559/Pn7605/G4YcfHu9///ujT58+MXDgwNhhhx3ife97X2y11Vax5557xkknnRS33HJL1NfXp90yAAAAAAAAneC1116LWbNmNR2PGjUqvvOd77R6fp8+feKnP/1p03GSJDFz5sxO7RGgu5HZAwAAAAAAECGz766q0m6AyrBo0aI455xz4oYbbojGxsaIePeHwqbWrl0bjz76aDz22GPx05/+NHbcccc49dRT45hjjonq6uqubhsAAAAAAMpaki/8u3bIij/84Q+xfv36puPjjjtui3nQfvvtFx/60IfiySefjIiIW2+9Nd5+++3o27dvp/YKkHUyewAAAAAA6Hgye7JMZt89GRqnVW+//Xb8+Mc/bra2++67x+c+97k21fnZz34W3/jGN6K+vr5Z6JzL5Vo8P0mSpvOWLVsWX//61+OKK66I3//+97Hjjju28V0AAAAAAABQjm655ZZmx4cddlhR+w4//PD4wQ9+EBER69ati7/85S9xyCGHdHR7AKmT2QMAAAAAANBZZPbdk6FxWnXHHXfEWWed1Swo/tWvftWmGtOnT4+rrrqqKVBuLXTe2KbnJEkSCxcujJqamvjTn/4UH//4x9vUAwAAAAAAAOXn73//e9Pvt9tuu9hll12K2jd+/Phmx3fffbcAGuiWZPYAAAAAAAB0Fpl992RonFbdeuutERFN4fG2224bU6ZMKXr/OeecE1deeWVEtBw8b3wH801tfP6G3y9fvjwOPvjgqK2tjR122KHoPgAAAAAAAGibRYsWxaOPPhovvfRSrF27Nvr06RPbbLNN7LrrrjFmzJiorq5uV/2XX345Vq9e3XQ8ZsyYovfutddezY4ff/zxdvUCUK5k9gAAAAAAAJVJZk+pDI3Tqn/84x+Ry+UiSZLI5XJx0EEHRVVVcd8yd999d3z3u99t8Q7kERFDhw6N8ePHx8c+9rEYMmRI9OvXL1avXh2vvfZaPPDAA3H//ffH22+/XRBEv/rqq3HIIYfEP//5z6LugA4AAAAAAFDOnnvuuViwYEGz1xtvvFFw3l133RUTJ07s1F6WLVsWF110UfzqV7+Kl156qdXzBgwYEAcffHCceOKJMXbs2JKu9cQTTzQ73mmnnYreu91220WvXr2irq6uxVoA3YXMHgAAAAAAoHPJ7N8ls+8+DI3TorVr1xbc4WHy5MlF7z/99NObgusNkiSJ3XbbLb73ve/F5z73uejZs2er+9esWRNXXXVVnH322bFixYpmdRYuXBjXXXddHH300W14RwAAAAAA0A3l82l3QBssXrw4amtrtxg2d7V8Ph/nnntu/OAHP4h169Zt8fw1a9bE9ddfH9dff30cffTRcfHFF8fAgQPbdM0XX3yx2fGOO+5Y9N5cLhc77LBDLF68OCIiXnjhhTZdGyALZPYAAAAAAJABMvtMkdm/R2bffRkap0VPPvlk5PP5ZsHvuHHjitr7t7/9Le65556mvRuC6OnTp8dFF10UvXv33mKNAQMGxEknnRRHHHFEfP7zn2+6g/qGu6jPnDkzjjrqqOjRo0dpbxAAAAAAAKCLjRkzJlavXp12G82sW7cuDj/88Pjzn/9c0v5rr7027rvvvrj99ttj5MiRRe9bs2ZNs+MBAwa06bobn9/Q0BDr168vKoMCyAqZPQAAAAAAQMeS2b9HZt99Se9o0bPPPtvseOjQoTF8+PCi9t5yyy1Nv98QPh999NHx85//vM1/8Lfffvu49dZbY8yYMQX9zZ8/v021AAAAAAAAeE9jY2NMmTKl1fC5uro6PvrRj8b+++8fY8eOjf79+7d43tNPPx377bdfvPzyy0Vf+6233mp23KdPn+Ibb+H8tWvXtmk/QLmT2QMAAAAAAHRvMns6g6FxWvTaa681O95hhx2K3jt37txmdzvfdttt4+KLLy65l/79+8esWbOa1YyI+Otf/1pyTQAAAAAAgEp35plnxpw5cwrWBw0aFBdeeGEsX748HnrooZg7d27cf//9sXLlypg9e3Z88IMfLNizZMmSOPLII6OxsbGoa69bt67ZcVuHGDc9f9N6AFknswcAAAAAAOjeZPZ0BkPjtGjjOzvkcrkYPHhwUfsaGhri0UcfjYj37lj+la98JQYMGNCufvbaa6+YNGlSU82IiL///e/tqgkAAAAAAJC2nXbaKQ499NA4++yz47bbbova2touue7DDz8c5513XsH6yJEjY8GCBXHyySfHwIEDm32turo6pkyZEgsXLowDDjigYO+8efPisssuK+r6m951vK6urg3dR6xfv36z9QCyTmYPAAAAAADQ+WT275LZdx9VaTdAeUqSpNlxsX/oV6xYUbB24IEHdkhPBx10UPzlL3+JiHf7e/HFFzukLgAAAAAAZFaST7sD2mCnnXaK0aNHR01NTdTU1MTee+8dQ4cObXbOkiVLuqSXb3zjGwV3GO/Xr1/ceuutscsuu2x2b79+/eKmm26KsWPHxmOPPdbsa2eeeWZMmzYt+vfvv9kam369rXcdf+eddzZbDyDrZPYAAAAAAJABMvtMkdm/R2bffRkap0Ub/yFNkiReffXVovYtX768YG3UqFEd0tOmP+xaCrsBAAAAAADK1SOPPJJ2CxERUVtbG3fccUfB+ne/+9348Ic/XFSNvn37xqxZs2LChAnN1leuXBmXX355zJgxY7P7Nw2MN36ibjHWrFnT9Puqqip3LQe6HZk9AAAAAABAx5LZv0dm3331SLsBytMOO+zQ7PiVV14puJN5S/L5wrujDBw4sEN62rTOm2++2SF1AQAAAAAAKsnll19esDZkyJA44YQT2lRn/PjxccABBxSsz5o1a4t7N82ili1bVvR1N3267aa1ALoDmT0AAAAAAED3JLOnMxkap0Wb3pHirbfein/84x9b3Dd06NCCtY66u/jrr7/e7Ph973tfh9QFAAAAAACoFA0NDTF79uyC9aOOOir69u3b5nrTp08vWHviiSdi4cKFm923aRa1dOnSoq/56quvRl1dXau1ALoDmT0AAAAAAED3I7Onsxkap0W77rprbL311s3W/vCHP2xx3w477BBbbbVVs7XHH3+8Q3patGhRs+Ptt9++Q+oCAAAAAEBm5ZPKfFGy++67L954442C9SlTppRU76CDDmpxaHDOnDmb3Td8+PBmT6x98MEHi77mpuH2rrvuWvRegKyQ2QMAAAAAQAaknZ3L7DNHZk9nMzROi3K5XBxwwAGRJEnkcrlIkiQuv/zyeOmll7a4d//9948kee+H/y233NIhPW0IwDf05IcJAAAAAABA29x1110Fa3379o3x48eXVK9Pnz4xYcKEgvU777xzi3s/8YlPNP3+1Vdfjeeee66oa957773Njj/5yU8WtQ8gS2T2AAAAAAAA3Y/Mns5maJxWfelLX2p2/NZbb8WMGTO2uG/q1KkREU3B9RVXXFFUcL05t912W/zzn/+MXC7XtPapT32qXTUBAAAAAAAqzQMPPFCwNmbMmKiuri655tixYwvWNr2zeEsOPvjgZsc33nhjUdebPXt20+/79OkTn/70p4vaB5A1MnsAAAAAAIDuRWZPZzM0TqsmTZoUe+21V0S8FybfeOON8c1vfnOz+w455JD4yEc+0rTv7bffjqlTp0ZdXV1JfSxbtiyOO+64ZuFzLpeLQw45pKR6AAAAAAAAleqRRx4pWNt9993bVXPPPfcsWFu1alU8//zzm933n//5n9GrV6+m41mzZkV9ff1m99x5553x5JNPNh0feOCB0a9fvzZ2DJANMnsAAAAAAIDuRWZPZzM0zmb95Cc/afr9hhD6wgsvjC9/+cuxatWqFvfkcrm49NJLo0ePd7+9kiSJefPmxUEHHRQvv/xym66/cOHC2G+//eKFF15oqpXL5eLAAw+MkSNHlvamAAAAAAAAKlBdXV0sW7asYH306NHtqjtq1KgW15977rnN7ttuu+3i2GOPbTp+9tln49xzz231/HfeeSdOOOGEpuNcLhdnnHFGG7sFyBaZPQAAAAAAQPcgs6crVKXdAOXtU5/6VJx00knxP//zP5HL5ZpC6F/+8pdx6623xsyZM+PII4+M/v37N9v3iU98Ii644II46aSTmvbceeedsccee8Txxx8fxxxzTLz//e9v9boPPfRQXHLJJfHLX/4y6uvrm92xvKqqarM/fDrD/PnzO6zWXoM7rBQAAAAAAJUun0+7g1R05N/bjx8/vsNqlbtly5ZFvoXvmR122KFddVvbv2TJki3uPf300+Paa6+NNWvWRETE9773vejfv3+cdNJJTcOOERHLly+Pz3/+87Fo0aKmtSOOOCLGjBnTrt4Byp3M/l0yewAAAAAAypLMvt1k9jJ7OpahcbboRz/6UTz++ONx++23NwuhX3vttfjqV78aJ598cvzHf/xHfPrTn44999wzdt999+jTp0+ccMIJUVVVFSeddFI0NjZGkiSxcuXKmDlzZsycOTN23nnn+NjHPhZbb7119O3bN95888147bXXYsGCBbFixYqIeO8u5Rv//gc/+EHstttuXfoZTJgwocNqvfP43zqsFgAAAAAAVKKO/Hv7JEk6rFa5W758eYvr2223Xbvqtra/tettbPjw4fHrX/86Dj744Mjn85EkScyYMSMuvfTS2H///WPrrbeOZ555Jv74xz/GunXrmvbttttu8fOf/7xdfQNkhcxeZg8AAAAAAOVEZl8amT1dwdA4W9SzZ8/43e9+F1OmTGkWQke8+0N53bp1ceONN8aNN94YERE9evSIbbfdNgYMGBADBgyIrbfeOl577bVmeyLevVPF888/X3C9jX/Qb3y38oiI6dOnx7e+9a1OeZ8AAAAAAADd2cqVK1tcHzhwYLvq9uzZM/r16xdvvfVWs/XXX3+9qP0HHXRQ/OIXv4ivfe1r8fbbb0dExNNPPx1PP/10i+d/7GMfi5tvvjm22mqrdvUNkBUyewAAAAAAgOyT2dMVemz5FIjo27dv/OlPf4rjjz++ICDecBfzDa/GxsZ4+eWX46mnnoqFCxc23ZFiw74Nezbdt+G18dc33nf66afHZZdd1sXvHAAAAAAAoHtYu3Zti+v9+/dvd+1+/foVrG0aSG/OF7/4xVi4cGEccsghUV1d3eI5w4YNizPPPDPuv//+GDFiRKmtAmSSzB4AAAAAACDbZPZ0BU8ap2g9e/aMiy66KD7zmc/ECSecEIsXL24KiTe9u/gGG4fVmx5vHDK3JkmSGDVqVFx66aUxadKkdr4DAAAAAACAylVfX9/ielVV+yPDlkLjurq6NtX40Ic+FDfffHO8/vrrcc8998QLL7wQb775Zmy//faxyy67xL/9279Fz549290rQFbJ7AEAAAAAALJLZk9XMDROmx144IGx//77xyWXXBL/8z//E8uWLYuIlkPoLQXMLdkQUo8aNSpmzJgRxxxzTPTq1at9TbfTvffe24HV2vbDFgAAAAAAWpXPp91BKjr27+0rR2NjY4vrHRHqtlSjoaGhpFpDhgyJgw8+uL0tAXRbMvv2ktkDAAAAANBBZPa0gcyermBonJL07t07TjnllDjxxBNjzpw58Zvf/CZuv/32eP3111s8f+MgetM7mW/sAx/4QBxwwAFx2GGHxSc/+ckO77tU48eP77Ba65+Y12G1AAAAAACgEnXk39tXktbuTl5qULylGi3dyRyAjiGzL53MHgAAAAAA2kdmXxqZPV3B0Djt0rNnz5g8eXJMnjw5IiL+9a9/xcKFC+Oxxx6LpUuXxssvvxxvvPFGrF+/PhoaGqK6ujp69eoVgwYNiqFDh8YOO+wQu+yyS+y6666x9957x9ChQ1N+RwAAAAAAAN1T7969W1yvq2v/E1dbqtHa9QDoODJ7AAAAAACAbJDZ0xUMjdOh9thjj9hjjz3SbgMAAAAAAIBNDBgwoMX1NWvWtLt2SzW22mqrdtcFoG1k9gAAAAAAAOVJZk9X6JF2AwAAAAAAAEDnGzJkSIvrq1atalfdd955J9avX1/09QAAAAAAAACg0sjs6QqeNA4AAAAAAJBVSZJ2B2TI9ttv3+L6K6+80q66re1v7XoAAAAAAAAA3YLMnjaQ2dMVPGkcAAAAAAAAKsDw4cOjd+/eBetLly5tV93W9o8cObJddQEAAAAAAACgu5DZ0xUMjQMAAAAAAEAFyOVyMWrUqIL1p556ql11n3766RbXR48e3a66AAAAAAAAANBdyOzpCobGAQAAAAAAoEKMGTOmYO3hhx9uV80HH3ywYG3HHXeMoUOHtqsuAAAAAAAAAHQnMns6m6FxAAAAAAAAqBDjxo0rWFu0aFGsXr265Jrz588v6joAAAAAAAAAUMlk9nS2qrQbgGItXbq02fGwYcOiuro6pW4AAAAAAKAM5PNpd0DGTJo0qWCtsbEx5s6dG1OmTGlzvddee63Fu5a3dB0Ask1mDwAAAAAAm5DZ00YyezqbJ42TGSNGjIiRI0c2vVr6YQYAAAAAAEDrdt111xg1alTB+m9/+9uS6t1www2RJEmztVwuF5MnTy6pHgDlS2YPAAAAAADQPjJ7OpuhcTJn0x9iAAAAAAAAFG/q1KkFa7///e9j2bJlbaqTJEn87Gc/K1ifOHFi7LjjjiX3B0B5k9kDAAAAAACUTmZPZzI0DgAAAAAAABXkuOOOi169ejVbq6+vjzPOOKNNdX7xi1/EE088UbB+/PHHt6s/AAAAAAAAAOiuZPZ0JkPjAAAAAAAAWZVPKvNFuwwfPjy+/OUvF6xfc801ceONNxZV46mnnooZM2YUrO++++5xyCGHtLdFAAAAAAAAgPKXdnYus88kmT2dydA4AAAAAAAAVJiZM2fG1ltvXbB+9NFHx69//evN7n3wwQdj//33j9WrVxd87aKLLooePUSQAAAAAAAAANAamT2dxf/6AAAAAAAA0AWWLFkSuVxus6+RI0e2uHfffffd4t4lS5YU3cvQoUPjyiuvLFhfv359fOELX4gDDzww/vCHP8Srr74ajY2NsWrVqpg3b14cd9xxMW7cuHjhhRcK9p5yyimx7777Ft0DAAAAAAAAAHQVmT2VoCrtBgAAAAAAAICud8ghh8Q555wTp512WsHX5syZE3PmzCm61uTJk+O8887ryPYAAAAAAAAAoNuS2dMZPGkcAAAAAAAAKtSpp54aF154YfTs2bPkGlOnTo3Zs2dHdXV1B3YGAAAAAAAAAN2bzJ6O5knjtOruu+9OuwUAAAAAAGBzknzaHdANnHzyyTF+/Pj4+te/HgsWLCh637Bhw+L888+PqVOndmJ3AJVLZg8AAAAAAGVOZk8HkNnTkQyN06qJEydGLpdLuw0AAAAAAIBuYdiwYTF//vxOrV+qcePGRW1tbcydOzeuu+66mDt3brz44osF5w0aNCj+/d//PQ477LA44ogjonfv3u1pGYDNkNkDAAAAAAB0HJk9lcDQOFuUJEnaLQAAAAAAAGRe7969Y5999km7jc2aNGlSTJo0KSIiVq1aFS+99FK89dZb0adPnxg6dGi7Qm4ASiOzBwAAAAAAaD+ZPZXA0DhbVC53LheEAwAAAAAAdJ1BgwbFoEGD0m4DoOLJ7AEAAAAAACqPzJ5SGBpnizYOfssljAYAAAAAAACASiCzBwAAAAAAAIphaJw2cedwAAAAAAAoI3l/bw8AlURmDwAAAAAAZURmD5QZQ+O0avDgwbFq1arI5XKRJEnkcrmora2Nrbfeust7SZIkdtllly6/LgAAAAAAAACkQWYPAAAAAAAAtIWhcVpVU1MTc+fOjVwu17S2YsWKGDNmTIpdAQAAAAAAAED3J7MHAAAAAAAA2qJH2g1QvmpqagrWFixYkEInAAAAAAAAAFBZZPYAAAAAAABAWxgap1UtBdC1tbUpdAIAAAAAAAAAlUVmDwAAAAAAALRFVdoNUL42DqBzuVwkSeKu5R2hoS7tDjIjqVuXdgvZ4fuqberr0+4gO+p8bxUrWe+zKlZS35h2C5mRr0vSbiEzGtb3TLuFzGho8Fm1RX2jz6tY9ZFLu4XMWJ/zWRWr3kdVNJ9V8dZHPu0WMqUu8c/vxapPfG+RjiTvew8AuiuZfSeRrRZNZt9GvreKJ7Mvnsy+aDL74snsiyezL57Mvm3k9sWT2RdPZl88mX3x5NDF81kVT2bfNjL74snsSYvMHig3njROq0aOHBmDBw9utrZ06dJYuXJlSh0BAAAAAAAAQGWQ2QMAAAAAAABtYWiczaqpqYkkaX63zNra2pS6AQAAAAAAAIDKIbMHAAAAAAAAimVonM2qqakpWFuwYEEKnQAAAAAAAABAZZHZAwAAAAAAAMUyNM5mbRxA53K5iEg3gN5wB/VN76QOAAAAAAAAAN2NzB4AAAAAAAAoVlXaDVDe9t5779hqq62awueIiGeeeSaVXhYvXtzseNiwYan0AQAAAAAAZSNvYAsAujOZPQAAAAAAlDGZPVBmDI2zWSNGjIhVq1al3UZEROy8885ptwAAAAAAAAAAXUZmDwAAAAAAABSrR9oNAAAAAAAAAAAAAAAAAAAAUDpD4wAAAAAAAAAAAAAAAAAAABlmaBwAAAAAAAAAAAAAAAAAACDDqtJuAAAAAAAAgBIl+bQ7AAAAAAAAAIDKJLMHyownjQMAAAAAAAAAAAAAAAAAAGSYoXEAAAAAAAAAAAAAAAAAAIAMMzQOAAAAAAAAAAAAAAAAAACQYVVpNwAAAAAAAECJ8knaHQAAAAAAAABAZZLZA2XGk8YBAAAAAAAAAAAAAAAAAAAyzNA4AAAAAAAAAAAAAAAAAABAhhkaBwAAAAAAAAAAAAAAAAAAyDBD4wAAAAAAAAAAAAAAAAAAABlWlXYDAAAAAAAAlCifT7sDAAAAAAAAAKhMMnugzHjSOAAAAAAAAAAAAAAAAAAAQIYZGgcAAAAAAAAAAAAAAAAAAMgwQ+MAAAAAAAAAAAAAAAAAAAAZZmgcAAAAAAAAAAAAAAAAAAAgw6rSbgAAAAAAAIAS5ZO0OwAAAAAAAACAyiSzB8qMJ40DAAAAAAAAAAAAAAAAAABkmKFxAAAAAAAAAAAAAAAAAACADDM0DgAAAAAAAAAAAAAAAAAAkGGGxgEAAAAAAAAAAAAAAAAAADKsKu0GAAAAAAAAKFGST7sDAAAAAAAAAKhMMnugzHjSOAAAAAAAAAAAAAAAAAAAQIYZGgcAAAAAAAAAAAAAAAAAAMgwQ+MAAAAAAAAAAAAAAAAAAAAZZmgcAAAAAAAAAAAAAAAAAAAgw6rSbgAAAAAAAIAS5ZO0OwAAAAAAAACAyiSzB8qMJ40DAAAAAAAAAAAAAAAAAABkmKFxAAAAAAAAAAAAAAAAAACADDM0DgAAAAAAAAAAAAAAAAAAkGFVaTcAAAAAAABAaZJ8Pu0WAAAAAAAAAKAiyeyBcuNJ4wAAAAAAAAAAAAAAAAAAABlmaBwAAAAAAAAAAAAAAAAAACDDDI0DAAAAAAAAAAAAAAAAAABkmKFxAAAAAAAAAAAAAAAAAACADKtKuwEAAAAAAABKlE/S7gAAAAAAAAAAKpPMHigznjQOAAAAAAAAAAAAAAAAAACQYYbGAQAAAAAAAAAAAAAAAAAAMszQOAAAAAAAAAAAAAAAAAAAQIYZGgcAAAAAAAAAAAAAAAAAAMiwqrQbAAAAAAAAoET5JO0OAAAAAAAAAKAyyeyBMuNJ4wAAAAAAAAAAAAAAAAAAABlmaBwAAAAAAAAAAAAAAAAAACDDDI0DAAAAAAAAAAAAAAAAAABkmKFxAAAAAAAAAAAAAAAAAACADKtKuwEAAAAAAABKlOTT7gAAAAAAAAAAKpPMHigznjQOAAAAAAAAAAAAAAAAAACQYYbGAQAAAAAAAAAAAAAAAAAAMszQOAAAAAAAAAAAAAAAAAAAQIYZGgcAAAAAAAAAAAAAAAAAAMiwqrQbAAAAAAAAoET5JO0OAAAAAAAAAKAyyeyBMuNJ4wAAAAAAAAAAAAAAAAAAABlmaBwAAAAAAAAAAAAAAAAAACDDqtJuACpNUrcu7Rayo74u7Q6yw2fVJsn69Wm3kBlJXUPaLWRHvc+qWEldPu0WMiP/TtodZEdjvfthFauhwWfVFnV5n1ex1ud8VsWqz6XdQXbUp91AhqwP/4xVrPpI0m4hU+p9bxWtLvHvhQAAkAUy+zaQQ7eNz6toMvviyezbQGZfNJl98WT2xZPZt43cvngy++LJ7Isnsy+ezL54MvviyezbRmZfPJk9ALzL0DgAAAAAAEBGJXn/YQ0AAAAAAAAApEFmD5QbtxQDAAAAAAAAAAAAAAAAAADIMEPjAAAAAAAAAAAAAAAAAAAAGWZoHAAAAAAAAAAAAAAAAAAAIMMMjQMAAAAAAAAAAAAAAAAAAGRYVdoNAAAAAAAAUKJ8knYHAAAAAAAAAFCZZPZAmTE0Tll48cUX48orr2y2duaZZ6bUDQAAAAAAAABUDpk9AAAAAAAAZJ+hccrCCy+8EGeddVbkcrmmNQE0AAAAAAAAAHQ+mT0AAAAAAABkX4+0G4BNJUmSdgsAAAAAAAAAUJFk9gAAAAAAAJBNhsYBAAAAAAAAAAAAAAAAAAAyrCrtBgAAAAAAAChRPp92BwAAAAAAAABQmWT2QJnxpHEAAAAAAAAAAAAAAAAAAIAM86RxNmu//fbrkuu8+eabJV37v/7rv+KLX/xiZ7QEAAAAAAAAAKmS2QMAAAAAAADFMjTOZv3tb3+LXC7XZddLkqTp13nz5m32vFwuFxMnTuyizgAAAAAAAACga8nsAQAAAAAAgGIZGqcoG4Lh7n5NAAAAAAAAACg3MnsAAAAAAABgSwyNU5SuuHP5poHz5q4pnAYAAAAAgIjI+/tyAKgEMnsAAAAAAChDMnugzPRIuwGyIUmSTn+15ZoAAAAAAADQUdauXRt33313/PjHP47Pf/7zMXLkyMjlck2vESNGdOr1TzzxxGbXy+Vy8V//9V+dek0gW2T2AAAAAAAAdFcy+47jSeMUJZfLRZIk0bNnzxg/fnz07NmzQ+u/+eab8eCDDzZdJ5fLxSc/+ckt7uvsP+wAAAAAAAB0XxdccEH84he/iEWLFkU+n0+lh/vuuy9+9rOfpXJtIDtk9gAAAAAAAHQ3MvuOZ2icNsnn87FmzZq4/PLL4+Mf/3iH1b3//vtj/PjxzdbuuuuuDqsPAAAAAAAAm7r77rvj0UcfTe369fX1MX369NTCbyB7ZPYAAAAAAAB0FzL7jtcj7QYob6effnpUVb17b4FcLhcREY888khMmDAhTj755Fi7dm2a7QEAAAAAAECH6t+/f3zyk5+Mfv36dfq1zj333KYAfNiwYZ1+PSB7ZPYAAAAAAABUEpl9+xgaZ7NmzpwZtbW1UVNTE0mSNK03NjbGxRdfHLvttlvccsstKXYIAAAAAAAVLJ9U5gs6SJ8+fWLs2LHx9a9/Pa6++up49NFHY/Xq1TFv3rwYOnRop177ySefjLPPPjsiIvr27RvnnHNOp14PyCaZPQAAAAAAlLG0s3OZPRkns+94VWk3QPnbY4894r777osLL7wwvve978Xbb78duVwukiSJF154IQ499NA49NBD46KLLorhw4en3S4AAAAAAAAU5Te/+U0q102SJKZPnx7r16+PiIgzzzwzRowYkUovQPmT2QMAAAAAANAdyew7nieNU5QePXrEN77xjXjkkUdi3333jSRJIpfLNQXRN998c+y2225xySWXpN0qAAAAAAAAlLWf//zn8fe//z0iInbfffeYMWNGyh0B5U5mDwAAAAAAAB2jO2f2hsZpk1122SXuuOOOmDVrVgwcOLApiE6SJN5888044YQTYvz48fHoo4+m3SoAAAAAAACUnZdeeim+853vRERELpeLn//851FdXZ1yV0BWyOwBAAAAAACgdN09szc0TkmOOeaYWLRoURx66KEFdzC///77o6amJk477bR455130m4VAAAAAAAAysbxxx8fq1evjoiI6dOnx4QJE1LuCMgimT0AAAAAAAC0XXfP7KvSboDs2n777eN3v/td/O53v4sTTjghXnnllcjlchERUV9fH+edd17ceOONcemll8akSZNS7hYAAAAAALqfJEnSboFuatGiRfHoo4/GSy+9FGvXro0+ffrENttsE7vuumuMGTOmW91luyvddNNNcfPNN0dExLbbbhvnnntuyh0BWSazBwAAAACAdMns6Swy+85RCZm9oXHabcqUKTFp0qQ45ZRT4uqrr252B/Nnn302DjjggPjCF74QF1xwQWyzzTZptwsAAAAAAFA2nnvuuViwYEGz1xtvvFFw3l133RUTJ07s1F6WLVsWF110UfzqV7+Kl156qdXzBgwYEAcffHCceOKJMXbs2E7tqTtZvXp1HH/88U3HF1xwQQwePDjFjoDuQmYPAAAAAABQGpl95aiUzN7QOB1i4MCBcdVVV8VRRx0Vxx13XCxevLjpDuZJksSvfvWrmDNnTvzoRz+KL33pSyl323bz58/vsFpjendYKQAAAAAAIEMWL14ctbW1Wwybu1o+n49zzz03fvCDH8S6deu2eP6aNWvi+uuvj+uvvz6OPvrouPjii2PgwIFd0Gm2fetb34qXX345IiImTZoURx11VModAd2JzL54MnsAAAAAAKhMMvvKVimZvaFxOtT+++8fjz76aJx++ulx0UUXRZIkTXcwX7lyZRx77LFx7bXXxs9//vP4wAc+kHa7RZswYUKH1Vq34A8dVgsAAAAAAMiOMWPGxOrVq9Nuo5l169bF4YcfHn/+859L2n/ttdfGfffdF7fffnuMHDmyg7vrPu6+++644oorIiKiT58+cemll6bcEdBdyey3TGYPAAAAAACVSWZfuSops++RdgN0P+973/viggsuiHvvvTc+8pGPNIXQG4Lov/3tb7HnnnvGzJkzo76+Pu12AQAAAAAgu/JJZb7oEI2NjTFlypRWw+fq6ur46Ec/Gvvvv3+MHTs2+vfv3+J5Tz/9dOy3335Nd+SmufXr18dxxx0XSfLu9+5pp50Wo0ePTrkroDuT2QMAAAAAQBdJOzuX2WeazL5rVFpmb2icTjN27NhYuHBhnHXWWVFdXR0REblcLiLe/YN21llnxcc+9rH4xz/+kWabAAAAAAAAFenMM8+MOXPmFKwPGjQoLrzwwli+fHk89NBDMXfu3Lj//vtj5cqVMXv27PjgBz9YsGfJkiVx5JFHRmNjY1e0nikzZ86MJ598MiIiPvShD8W3v/3tlDsCKoXMHgAAAAAAoHzJ7LtGpWX2hsbpVFVVVXHmmWfGwoULY9y4cQV3MH/88cdj4sSJceqpp6bdKgAAAAAAQJfbaaed4tBDD42zzz47brvttqitre2S6z788MNx3nnnFayPHDkyFixYECeffHIMHDiw2deqq6tjypQpsXDhwjjggAMK9s6bNy8uu+yyNvUxYsSIpuyoM14//vGP2/bBdLB//etfcf755zcdX3bZZdGrV68UOwIqjcweAAAAAACgdTJ7mX13U5V2A1SG3XbbLe655564+OKL44wzzoi1a9c23cE8n8/HvHnzUu5w8+69994OrLa8A2sBAAAAAABZsdNOO8Xo0aOjpqYmampqYu+9946hQ4c2O2fJkiVd0ss3vvGNgjuM9+vXL2699dbYZZddNru3X79+cdNNN8XYsWPjsccea/a1M888M6ZNmxb9+/fv8J6zJp/Px7HHHhv19fURETFt2rSYOHFiuk0BFUtmvzGZPQAAAAAAVCKZfWWp1Mze0DhdJpfLxYknnhj/+Z//GV/5ylfiL3/5S7M7mJez8ePHd1itdxbe0mG1AAAAAACA7HjkkUfSbiEiImpra+OOO+4oWP/ud78bH/7wh4uq0bdv35g1a1ZMmDCh2frKlSvj8ssvjxkzZnRIr1l28cUXxz//+c+IiBgyZEjqd1AHkNm/S2YPAAAAAACVSWZfWSo1szc0Tpfbeeed47bbbotrrrkmZsyYEStXrmy6gzkAAAAAANAG+fIe8KI8XX755QVrQ4YMiRNOOKFNdcaPHx8HHHBA3H777c3WZ82aVXQAPXv27HjnnXfadN22GDlyZKfV3px169bFGWec0XT8ox/9qOAO9QBpkdkDAAAAAEAHkdlTApl956vkzN7QOKn54he/GJ/97GfjhBNOiBtuuCHtdgAAAAAAALq9hoaGmD17dsH6UUcdFX379m1zvenTpxcE0E888UQsXLgw9tprry3u33vvvdt8zSxYv359rF27tul4+vTpMX369M3u2fQpv9dcc01cd911TcfTpk2LK6+8smMbBSqazB4AAAAAAKBryey7RiVn9j3SboDKts0228RvfvObyOfzzV6NjY1ptwYAAAAAANDt3HffffHGG28UrE+ZMqWkegcddFC8733vK1ifM2dOSfW6q8bGxi2+8vl8sz1JkhScA9DRZPYAAAAAAABdR2afjkrK7A2NAwAAAAAAQIW46667Ctb69u0b48ePL6lenz59YsKECQXrd955Z0n1AAAAAAAAAKC7ktnT2QyNAwAAAAAAQIV44IEHCtbGjBkT1dXVJdccO3ZswdrChQtLrtcdDBo0KJIkadNr0/84YNq0ac2+fvXVV6fzZgAAAAAAAADoEDL7rlHJmX1V2g0AAAAAAABQmiSfpN0CGfPII48UrO2+++7tqrnnnnsWrK1atSqef/752HnnndtVGwAAAAAAAKBcyexpK5k9nc2TxgEAAAAAAKAC1NXVxbJlywrWR48e3a66o0aNanH9ueeea1ddAAAAAAAAAOguZPZ0BU8aBwAAAAAAIFPmz5/fYbXGjx/fYbXK3bJlyyKfzxes77DDDu2q29r+JUuWtKsuAAAAAAAAAOVHZl8amT1dwdA4mbJ06dJmx8OGDYvq6uqUugEAAAAAANIwYcKEDquVJEmH1Sp3y5cvb3F9u+22a1fd1va3dr1y8vzzz7d61/XGxsZm51VVtRyt3nHHHfGpT32qU/oDKDcyewAAAAAAQGZfGpl9IZl9xzM0TqaMGDEicrlc0/H8+fNj7NixKXYEAAAAAACQDStXrmxxfeDAge2q27Nnz+jXr1+89dZbzdZff/31dtXtCkmSNAuaN6e18yrpP2IAkNkDAAAAAACURmZfSGbf8QyNk0lJkjQLogEAAAAAoCLlBV8Ub+3atS2u9+/fv921WwqgNz0GoPuQ2QMAAAAAQMjsaROZPV3B0DgAAAAAAABUgPr6+hbXq6raHxlWV1cXrNXV1bW7bmcbMWJE2dx1fOLEiWXTCwAAAAAAAAAdS2ZfSGbf8QyNAwAAAAAAkCn33ntv2i1kUmNjY4vrPXv2bHftlmo0NDS0uy4AAAAAAAAA5UVmXxqZPV3B0DgAAAAAAACZMn78+LRbyKTW7k7eEUFxSzVaupM5AAAAAAAAANkmsy+NzJ6u0CPtBgAAAAAAAIDO17t37xbX6+rq2l27pRqtXQ8AAAAAAAAAKo3Mnq7gSeMAAAAAAABZlU+7AbJkwIABLa6vWbOm3bVbqrHVVlu1uy4AAAAAAABA2ZLZ0wYye7qCJ40DAAAAAABABRgyZEiL66tWrWpX3XfeeSfWr19f9PUAAAAAAAAAoNLI7OkKnjTOZt19991ptwAAAAAAAEAH2H777Vtcf+WVV9pVt7X9rV0PgOLJ7AEAAAAAALoHmT1dwdA4mzVx4sTI5XJptwEAAAAAAEA7DR8+PHr37l1wh/GlS5e2q25r+0eOHNmuugDI7AEAAAAAALoLmT1dwdA4RUmSJO0WAAAAAACATSR5f39P8XK5XIwaNSoWLVrUbP2pp55qV92nn366xfXRo0e3qy4A75HZAwAAAABA+ZHZ0xYye7pCj7QbIBtyuVxZvAAAAAAAACjdmDFjCtYefvjhdtV88MEHC9Z23HHHGDp0aLvqAvCetLN6mT0AAAAAAED7yezpbIbGKUqSJE0vAAAAAAAAsmncuHEFa4sWLYrVq1eXXHP+/PlFXQeA0snsAQAAAAAAsk9mT2czNE6bbRxGd/ULAAAAAACA0k2aNKlgrbGxMebOnVtSvddee63Fu5a3dB0AOobMHgAAAAAAIJtk9nS2qrQboLwNHjw4Vq1aFblcLpIkiVwuF7W1tbH11lt3eS9JksQuu+zS5dcFAAAAAADoLnbdddcYNWpUPPvss83Wf/vb38aUKVPaXO+GG24oGCLM5XIxefLkdvUJwLtk9gAAAAAAAN2HzJ7OZmiczaqpqYm5c+dGLpdrWluxYkWMGTMmxa4AAAAAAICIiMh74idtN3Xq1Pj+97/fbO33v/99LFu2LN7//vcXXSdJkvjZz35WsD5x4sTYcccd290nADJ7AAAAAAAoazJ7SiCzpzP1SLsByltNTU3B2oIFC1LoBAAAAAAAgI5w3HHHRa9evZqt1dfXxxlnnNGmOr/4xS/iiSeeKFg//vjj29UfAO+R2QMAAAAAAHQvMns6k6FxNqulALq2tjaFTgAAAAAAAOgIw4cPjy9/+csF69dcc03ceOONRdV46qmnYsaMGQXru+++exxyyCHtbRGA/0dmDwAAAAAA0L3I7OlMVWk3QHnbOIDO5XKRJIm7lrdXw/q0O8iOhrq0O8iO9b6v2qS+Pu0OssNnVbTkHZ9VsfLvNKbdQmbk63Npt5AZjfXuh1Ws+oaeabeQKfWJ761i1ffwM6tY631bFW19Lkm7hcyoD59VsRoin3YLmbI+8XkVq8FnBWTMzJkz44YbboiVK1c2Wz/66KOjoaEhjjzyyFb3Pvjgg3HwwQfH6tWrC7520UUXRY8e/qEXoKPI7DuBzL54Mvu2kdsXTw5dPJ9V0WT2xZPZF09mXzyZfdvI7Ysnsy+ezL54MvviyeyLJ7Mvnsy+bWT2xZPZA1kjs6ez+F+fzRo5cmQMHjy42drSpUsLfhgBAAAAAACweUuWLIlcLrfZ18iRI1vcu++++25x75IlS4ruZejQoXHllVcWrK9fvz6+8IUvxIEHHhh/+MMf4tVXX43GxsZYtWpVzJs3L4477rgYN25cvPDCCwV7TznllNh3332L7gGALZPZAwAAAAAAdAyZPZXAk8bZopqampg7d27kcu/dga62tjY+/elPp9gVAAAAAADgYQy0xyGHHBLnnHNOnHbaaQVfmzNnTsyZM6foWpMnT47zzjuvI9sD4P+R2QMAAAAAQJmS2dMOMns6gyeNs0U1NTUFawsWLEihEwAAAAAAADrSqaeeGhdeeGH07Nmz5BpTp06N2bNnR3V1dQd2BsAGMnsAAAAAAIDuSWZPRzM0zhZtHEBvuHN5mgF0kiTNfgUAAAAAAKB0J598ctxzzz0tDiVuzrBhw+Laa6+Na6+9Nnr37t1J3QEgswcAAAAAAOi+ZPZ0pKq0G6D87b333rHVVls1hc8REc8880wqvSxevLjZ8bBhw1LpAwAAAAAAoK2GDRsW8+fP79T6pRo3blzU1tbG3Llz47rrrou5c+fGiy++WHDeoEGD4t///d/jsMMOiyOOOELwDNAFZPYAAAAAAADtJ7OnEhgaZ4tGjBgRq1atSruNiIjYeeed024BAAAAAACgJL1794599tkn7TY2a9KkSTFp0qSIiFi1alW89NJL8dZbb0WfPn1i6NChhgMBUiCzBwAAAAAAaD+ZPZXA0DgAAAAAAEBGJfkk7RboxgYNGhSDBg1Kuw0AAAAAAACAsiSzpzPJ7ClFj7QbAAAAAAAAAAAAAAAAAAAAoHSGxgEAAAAAAAAAAAAAAAAAADLM0DgAAAAAAAAAAAAAAAAAAECGGRoHAAAAAAAAAAAAAAAAAADIsKq0GwAAAAAAAKBE+bQbAAAAAAAAAIAKJbMHyownjQMAAAAAAAAAAAAAAAAAAGSYoXEAAAAAAAAAAAAAAAAAAIAMMzQOAAAAAAAAAAAAAAAAAACQYVVpNwAAAAAAAEBpknySdgsAAAAAAAAAUJFk9kC58aRxAAAAAAAAAAAAAAAAAACADDM0DgAAAAAAAAAAAAAAAAAAkGGGxgEAAAAAAAAAAAAAAAAAADLM0DgAAAAAAAAAAAAAAAAAAECGVaXdAAAAAAAAACXKp90AAAAAAAAAAFQomT1QZjxpHAAAAAAAAAAAAAAAAAAAIMMMjQMAAAAAAAAAAAAAAAAAAGSYoXEAAAAAAAAAAAAAAAAAAIAMMzQOAAAAAAAAAAAAAAAAAACQYVVpNwAAAAAAAEBpknzaHQAAAAAAAABAZZLZA+XGk8YBAAAAAAAAAAAAAAAAAAAyzNA4AAAAAAAAAAAAAAAAAABAhhkaBwAAAAAAAAAAAAAAAAAAyDBD4wAAAAAAAAAAAAAAAAAAABlWlXYDAAAAAAAAlCifdgMAAAAAAAAAUKFk9kCZ8aRxAAAAAAAAAAAAAAAAAACADDM0DgAAAAAAAAAAAAAAAAAAkGGGxgEAAAAAAAAAAAAAAAAAADLM0DgAAAAAAAAAAAAAAAAAAECGVaXdAAAAAAAAAKVJ8ml3AAAAAAAAAACVSWYPlBtPGgcAAAAAAAAAAAAAAAAAAMgwQ+MAAAAAAAAAAAAAAAAAAAAZZmgcAAAAAAAAAAAAAAAAAAAgwwyNAwAAAAAAAAAAAAAAAAAAZFhV2g0AAAAAAABQonzaDQAAAAAAAABAhZLZA2XGk8b/f/buPEyq6tob8CqgmQVUVHAAWjE4K4GAOIGCimOcExO9aqLmJhqvs4kmxns1XjXGDMYbh5gJjBNqNFFEISoaUMOgmKjBCUQRRaGRoaGn8/3h1yVNNVDVU3V1ve/z1GOd1efsvU7RtuCPvQ8AAAAAAAAAAAAAAAAAAEABs2gcAAAAAAAAAAAAAAAAAACggFk0DgAAAAAAAAAAAAAAAAAAUMA65LsBAAAAAAAAGiapyXcHAAAAAAAAAFCcZPZAa+NJ4wAAAAAAAAAAAAAAAAAAAAXMonEAAAAAAAAAAAAAAAAAAIACZtE4AAAAAAAAAAAAAAAAAABAAbNoHAAAAAAAAAAAAAAAAAAAoIB1yHcDAAAAAAAANExSk+8OAAAAAAAAAKA4yeyB1saTxgEAAAAAAAAAAAAAAAAAAAqYReMAAAAAAAAAAAAAAAAAAAAFzKJxAAAAAAAAAAAAAAAAAACAAmbROAAAAAAAAAAAAAAAAAAAQAHrkO8GAAAAAAAAaJikJt8dAAAAAAAAAEBxktkDrY0njQMAAAAAAAAAAAAAAAAAABQwi8YBAAAAAAAAAAAAAAAAAAAKmEXjAAAAAAAAAAAAAAAAAAAABcyicQAAAAAAAAAAAAAAAAAAgALWId8NAAAAAAAA0EBJKt8dAAAAAAAAAEBxktkDrYwnjQMAAAAAAAAAAAAAAAAAABQwTxqHlrZmdb47KBw+q+xVVea7g8JS6fPKVrKmIt8tFIyksjrfLRSMpCLJdwsFo2pN+3y3UDAqK31W2aqqtndYLqrstZa1NSm7ZWbL70az57PKXlX4PVa21iQ1+W6hoFQl/qyTrUqfFQAAFAY5dPZ8VrmR22dPZp81mX32ZPbZk9lnT2afPZl9buT22ZPZZ09mnz2/G82ezyp7MvvsyexzI7PPnsweAD7jT9IAAAAAAAAAAAAAAAAAAAAFzKJxAAAAAAAAAAAAAAAAAACAAtYh3w0AAAAAAADQMElNvjsAAAAAAAAAgOIkswdaG08aBwAAAAAAAAAAAAAAAAAAKGAWjQMAAAAAAAAAAAAAAAAAABQwi8YBAAAAAAAAAAAAAAAAAAAKWId8NwAAAAAAAEDDJDWpfLcAAAAAAAAAAEVJZg+0NhaNUzAqKyvjgw8+qFPr169fnroBAAAAAAAAgOIhswcAAAAAAIDWzaJxGqS8vDwef/zxeOyxx2L+/PmxaNGiaNeuXfTt2zcGDhwYRxxxRIwePTpKSkqabM5Zs2bFPvvskz5OpVJRVVXVZOMDAAAAAAAAQCGQ2QMAAAAAAADrsmicnFRVVcVPf/rT+PGPfxwrV65M15MkiYiIV155JZ544on4v//7v+jRo0ecd955cemll0a3bt2aZP7aeQAAAAAAAACg2MjsAQAAAAAAgPVpl+8GKByLFi2KL37xi3H55ZfHihUrIkmS9KvW2rVly5bFNddcE4MGDYq//vWvTdZHKpVqsrEAAAAAAAAAoBDI7AEAAAAAAIANsWicrCxYsCAOOOCA+Oc//xlJkkQqlcrqlSRJLFy4ML785S/HOeecE5WVlfm+FQAAAAAAaDOSmuJ8AUCxkdkDAAAAAEDrk+/sXGYPrMuicTaqpqYmTjrppHjzzTfTwfLa1t6pfO0dzCOiThB96623xv777x8fffRRS7YPAAAAAAAAAAVLZg8AAAAAAABko0O+G6D1u/HGG+OFF16oN3hu165dDBkyJPr16xclJSUxb968mDVrVlRWVtY5vzaEfvHFF+OAAw6IyZMnx7bbbtvStwIAAAAAAAAABUVmDwAAAAAAAGTDonE2aNWqVXHttdfWCZOTJImOHTvGhRdeGBdddFFsvvnmda5ZtmxZjB8/Pm644YZYsGBB+traEHru3LlxwAEHxJQpU6K0tLRF7wcAAAAAAAAACoXMHgAAAAAAAMhWu3w3QOs2fvz4+PTTT9PHSZJEr1694oknnohrr702I3yOiOjZs2ecc8458frrr8fFF1+csXt5KpWKefPmxciRI+ONN95okfsAAAAAAAAAgEIjswcAAAAAAACyZdE4GzRu3Lj0+yRJIpVKxR/+8Ic44IADNnptly5d4oYbbognn3wytthiizpfS6VS8d5778XIkSPjtddea/K+AQAAAACgGCRJqihfAFAsZPYAAAAAANB65Ts7l9kD67JonPWqrKyMGTNmRCqVSofPxxxzTBx11FE5jXPggQfGzJkzY88994wkSdL1VCoVixYtilGjRsUrr7zS1O0DAAAAAAAAQMGS2QMAAAAAAAC5sGic9XrppZdizZo1dWrnnXdeg8baZptt4rnnnouxY8dmhNCLFy+OAw88MGbPnt2ofgEAAAAAAACgrZDZAwAAAAAAALmwaJz1euedd+ocd+nSJfbdd98Gj9e1a9d45JFH4qSTTsoIoZcsWRKjR4+OmTNnNnh8AAAAAAAAAGgrZPYAAAAAAABALiwaZ72WLl1a53jHHXeMDh06NGrMDh06xN133x2nnXZaRghdVlYWY8aMiRdffLFRcwAAAAAAAABAoZPZAwAAAAAAALmwaJz1KisrS79PpVKx+eabN8m4qVQqfve738XZZ5+dEUIvW7YsDjnkkJg+fXqTzAUAAAAAAG1ZUlOcLwAoBjJ7AAAAAABo3fKdncvsgXVZNM56tWtX99ujvLy8Sce/9dZb47vf/W5GCP3pp5/G2LFj4+9//3uTzgcAAAAAAAAAhUJmDwAAAAAAAOTConHWq1evXun3SZLERx991ORz/OIXv4gLLrggI4Revnx5jB07NqZOndrkcwIAAAAAAABAayezBwAAAAAAAHJh0TjrtcUWW9Q5XrRoUbPM89Of/jQuvvjijBB65cqVccQRR8TTTz/dLPMCAAAAAAAAQGslswcAAAAAAAByYdE467XzzjvXOV61alW89NJLzTLXDTfcEN/73vfqDaGPPPLI+Nvf/tYs8wIAAAAAAABAaySzBwAAAAAAAHLRId8N0HoNHDgwOnXqFBUVFenas88+G3vttVezzHfttddGhw4d4pprrolUKhURn4XQq1atiqOOOiq+973vNcu82Zg+fXqTjTW4yUYCAAAAAKDYJTWpfLcAADQTmf3nZPYAAAAAALRGMnugtbFonPVq37597LnnnvHiiy+mA+HHH388vvvd7zbbnP/zP/8TJSUl8aMf/ahOCF1eXh5XXXVVs827Mfvss0+TjVU+9Y9NNhYAAAAAAAAAbZPM/nMyewAAAAAAANg4i8bZoAMPPDBefPHFiIhIkiSefPLJWLRoUfTp06fZ5vzhD38YHTp0iCuuuKJOCJ0kSbPNCQAAAAAAQHFbsmRJvPLKK/HGG2/EkiVLoqamJjbbbLPo379/7L333tGzZ88mmaeysjJeeeWVmDNnTixZsiTKy8ujR48esfXWW8fQoUOjf//+TTIP0DbI7AEAAAAAACgGMvumYdE4G3TggQfG9ddfnz6urq6OcePGxSWXXNKs837/+9+PkpKSuPTSS4XQAAAAAAAANLmampp49tln46GHHoopU6bEP//5z/Wem0qlYvTo0XHhhRfGYYcd1qD5Fi5cGNdff3388Y9/jLKysvWet+uuu8Y555wTZ599drRv375BcwFth8weAAAAAACAtkhm3zxSiUSPDSgvL48tttgiysvLI+Kzncu33377mDt3brRr167Z5//FL34RF1xwQTqETpIkHUSnUqmorq5u9h4iIj1/Uyif+scmG6utS5Z+mO8WCsfSj/PdQUFJPvkk3y0UjJrFS/LdQsGo+Xh5vlsoGFUfrcl3CwWj/KPC+wNGvqxY2infLRSMT5d3zncLBWVple+tbC1ub1+6bC3x4z1rn7Tzv62ytSRVle8WCsbHSUW+WygoS2tW57uFgrG0ujzfLRSM5xc+ne8W2pR3h47Odwt50W/GlHy3QBuw4447xptvvpnzdV/96lfj9ttvj0022STrax5++OE4/fTTNxg8r2vYsGHx5z//Ofr27Ztzj0DbIbP/jMw+P2T2OZLbZ01mnz2ZffZk9tmT2WdPZp89mX1u5PbZk9lnT2afPZl99mT22ZPZZ09mnxuZffZk9tmT2TctmT00nMy+efjTIRvUpUuXOOKII+L+++9Ph7DvvPNO/OEPf4gzzjij2ef/r//6r+jYsWOce+65EdG0QXAupk2b1nSDVeX+gwwAAAAAAICmtXjx4ozajjvuGMOHD48+ffpE586dY8GCBTFlypR477330ufcc8898cEHH8Tjjz8enTtv/C95P/HEE3HiiSdGZWVlutahQ4c46KCDYvfdd49u3brFxx9/HNOmTYuXXnopfc6LL74Yo0ePjueffz569OjRuJsFCpbM/jMyewAAAAAAgLZFZt88PGm8Cbzzzjvxt7/9LebPnx8ff/xxdOvWLbbeeuvYbbfdYvTo0S2yu3dzmjBhQpx00kl1aqWlpTF37txo375ltlr77W9/G2effXbU1NSkay25a3lTWv3suHy3UDDsWp4DO5bnxK7l2bNrefbsWp49u5Znz67l2bNrefbsWJ4bu5Znz67l2bNrefbsWp49u5Znz67lubFrefbsWp49u5Y3LbuWQ8P16tUrli1bFgMGDIgzzzwzTjvttNh2220zzquuro477rgjLrjggli9+vP/Nl500UVx4403bnCO8vLy2HnnnWP+/Pnp2gEHHBDjxo2Lfv36ZZz/t7/9LU455ZT44IMP0rULLrggbrrppobcIhQNmX3zk9kXJ5l9juT2WZPZZ09mnz2ZffZk9tmT2WdPZp8buX32ZPbZk9lnT2afPZl99mT22ZPZ50Zmnz2ZffZk9k1LZg8NJ7NvHhaNN8ITTzwRP/zhD2PGjBnrPWfzzTePM844I370ox9F165dW7C7prN69ep44IEHMupjx46NzTffvMX6uO+++2LixIl1ar/73e9abP6mIoDOngA6B8LnnAigsyeAzp4AOnsC6OwJoLMngM6e8Dk3AujsCaCzJ4DOngA6ewLo7AmgcyOAzp4AOnsC6KYlgIaG23PPPeP888+P//iP/8hq0eXEiRPjyCOPTC+YLCkpiXfeeSe22Wab9V5z3333xVe+8pX08Y477hizZ8+Obt26rfeal19+OYYOHRpVVZ/9Hq9Hjx6xePHi6NixY7a3BkVDZi+zbwiZffZk9jmS22dNZp89mX32ZPbZk9lnT2afPZl9buT22ZPZZ09mnz2ZffZk9tmT2WdPZp8bmX32ZPbZk9k3LZk9NJzMvnkUzZ8Oy8rK4pvf/Gasu0Z+v/32iwsvvDDn8S6++OL42c9+FhGRMebaPv7447jxxhvjgQceiLvuuiuGDx+e81z51rlz5/j617+e7zbipJNOytg9HQAAAAAAABpi5syZ0aFD9nHpYYcdFieffHLcddddERFRWVkZjzzySHz7299e7zWTJ0+uc3zhhRduMHyO+CwYP/bYY+P++++PiIhPP/00/vGPf8S+++6bda/QGsnsG05mDwAAAAAAQFsjs28eRbNo/MEHH4yHHnooUqlURHwWGqdSqTjrrLNyHuuCCy6IX/ziF+nj2jHXJ0mSePvtt+PQQw+Np556KgYPHpzznAAAAAAAAOtKajacUQDrl0v4XOurX/1qOoCOiHjxxRc3GEC///77dY733nvvrOYZMWJEOoCOiFi4cGGOnULrI7MHAAAAAADaGpk9NJzMvnm0y3cDLeXee+9Nv6/dZXzQoEFx2GGH5TTOI488Er/4xS8ilUqlXxvatTwi0ud9+umnMXbs2Pjggw9yvwEAAAAAAAAgrwYOHFjn+MMPP9zg+TU1NXWOu3btmtU86563sQWxUAhk9gAAAAAAAEBjyOw3rigWjVdUVMQzzzxT5xcmlUrF17/+9ZzGqa6ujosuuih9nCRJevfztY9rX2ufV+vjjz+OSy65pKG3AgAAAAAAAOTJ8uXL6xyXlJRs8PzS0tI6x/Pnz89qnnnz5tU53mGHHbK6DlormT0AAAAAAADQWDL7jcv9+e0FaNasWVFRUZGxmv+oo47KaZw//OEP8dZbb6V3Kl93vH333TeGDh0aHTt2jLlz58bjjz8ea9asqXN+kiRx9913xznnnBMjRoxo9L0BAAAAAABAU3v11Vfjn//8ZyxcuDBWrFgRnTt3ji222CJ23nnnGDx48EaD17Zqzpw5dY633XbbDZ4/duzY+PWvf50+vvfee+Pggw/e4DVVVVUxYcKE9PF2220Xe+65ZwO6hdZDZg8AAAAAAADZk9nXT2a/cUWxaPz555/PqG277baxxx575DTO7bffnn6/9k7lW221VTz44IMZgfLChQvj5JNPjmeffTYjrL711lsF0AAAAAAAAEXu7bffjpkzZ9Z5LV26NOO8p556KkaNGtWsvSxYsCB++ctfxp/+9KdYuHDhes/bZJNN4uijj47zzjsvhg0b1qw9tTbjx4+vc3zQQQdt8Pwjjjgi9thjj3Rw/fvf/z6OOuqo+PKXv1zv+UmSxEUXXRRvvvlmunbllVdGu3btGtk55JfMHgAAAAAAgNZIZl9YZPYbVxSLxv/973+n39fuHj5kyJCcxnjjjTfixRdfrBMkJ0kS7du3j7/+9a/1jrf11lvHY489FnvvvXe8+uqrERHpncsfeuih+PWvfx1du3Zt4F0BAAAAAADFLqlJbfwkWo133nknZsyYsdGwuaXV1NTEddddF9dcc02Ul5dv9Pzly5fHXXfdFXfddVeceuqpcfPNN0fPnj1boNP8euaZZ+Lpp59OH/fs2TMOPfTQDV7Tvn37uOeee2L//fePTz75JKqrq+O4446Ls846K04//fTYfffdo2vXrvHJJ5/EtGnT4qabbopnnnkmff2ZZ54ZZ555ZnPdErQYmT0AAAAAANAWyewLi8y+sMnss1MUi8bnz5+fUcv1cfBrP04+4vMg++STT95gmN2tW7f46U9/GmPHjq0TXq9cuTKmTJkSRx11VE59FLt33323znHfvn2jpKQkT90AAAAAAABkb/DgwbFs2bJ8t1FHeXl5nHjiifHoo4826Ppx48bF888/H5MmTYrS0tIm7q71WLlyZZx99tl1ahdddFF07959o9fuvPPO8cILL8Q3v/nNeOaZZ6KmpiZuu+22uO2229Z7zZZbbhn//d//Hf/5n//Z6N6hNZDZtx0yewAAAAAAoFDJ7AuXzD57hfNM9EaYP39+nfA34rNf6FxMmTKl3vo555yz0WsPOeSQGDhwYEZ91qxZOfVAxIABA6K0tDT9mj17dr5bAgAAAAAAKEjV1dVx/PHHrzd8LikpiT333DNGjx4dw4YNW2/Y+sYbb8RBBx0UH3zwQXO2m1ff/va3Y+7cuenjnXbaKS655JKsr99hhx3i6aefjt/97nex6aabbvDcwYMHxyOPPFKQ4TOsj8y+7ZDZAwAAAAAANA2ZffZk9tkrikXjS5cuzaht7Bd2bWvWrIlp06ZlhNjbbbddDB8+PKsxDj/88EiSpE7tpZdeyroH6lr3swQAAAAAACA3V155ZUycODGj3qtXr/jZz34WixcvjpdeeikmT54cL7zwQixZsiQmTJgQX/jCFzKumTdvXpx88slRXV3dEq23qJtuuinGjRuXPu7UqVOMHz8+OnfunPUYr7/+ehxyyCFxxhln1Jtdrm327Nmx9957xxFHHBHvvfdeg/uG1kRm3/bI7AEAAAAAABpHZp8dmX1uimLR+KpVqzJqPXv2zPr6F154IVavXp0+TpIkUqlUHH300VmPsccee9Q5TpIk3nzzzayvBwAAAAAAoO3p169fHHvssfHjH/84Hn/88ZgxY0aLzPvyyy/H9ddfn1EvLS2NmTNnxvnnn5+Rp5WUlMTxxx8fs2bNikMPPTTj2meeeSZuvfXWnPoYMGBApFKpZnvdeOONuX0w67jvvvsydie/7bbbYsiQIVmP8eSTT8aQIUPiySefjIiIjh07xne+852YOnVqLF26NCoqKuKDDz6Ihx9+OA477LD0dY899lh88YtfjNdee61R9wCtgcweAAAAAACA1khmL7Nva5l9h3w30BLqC6C7dOmS9fV///vf662PHj066zFKS0vT71OpVCRJEsuWLcv6egAAAAAAgHV5yGdh6devXwwcODCGDBkSQ4YMiaFDh0bv3r3rnDNv3rwW6eWiiy7K2GG8W7du8dhjj8X222+/wWu7desWDz74YAwbNiz+9a9/1fnalVdeGaeddlp07969yXtuaZMnT45TTz01ampq0rXrrrsuTjvttKzHeOutt+LYY49N55W9evWKxx9/POPJyH369Imjjz46jj766Lj11lvj29/+dkRELF68OI4++uh4+eWXo2vXrk1wV5AfMnsAAAAAAKAtktkXFpl9YZHZN0xRPGm8ffv2GbX6Qun1qS+ATqVSccABB2Q9xiabbJJRE0ADAAAAAAAUjzlz5sSDDz4YV1xxRYwdOzYjfG4pM2bMiClTpmTUf/jDH8ZOO+2U1Rhdu3aNO+64I6O+ZMmSuP322xvdY7698MILceyxx0ZFRUW6dskll8Rll12W0ziXXXZZrFy5Mn18++23Z4TP6/rP//zPdAAdEfHmm2/G//3f/+U0L7Q2MnsAAAAAAADyTWZfOGT2DVcUTxrv2bNnLF68uE4t2/C3pqYmnnvuuUilUhERkfz/7T922WWX2HTTTbPuoaSkJKOWSwgOAAAAAAAATaG+gHjzzTeP7373uzmNM2LEiDj00ENj0qRJdep33HFHXHjhhVmNMWHChFi9enVO8+Zi7ScLZ+uf//xnHH744bFixYp07cwzz4wbbrghp3GWLVsWf/7zn9PHO+ywQ5xwwglZXfu9730vfv3rX6ePx40bFxdffHFO80NrIrMHAAAAAACAz8jsN0xm3zhFsWi8R48eGQH0W2+9ldW1M2fOjE8//TQdQEd8tmP5/vvvn1MPZWVlGbVCeRw9AAAAAAAAbUNVVVVMmDAho/71r3+9QdnVWWedlRFAv/766zFr1qz44he/uNHrhw4dmvOczemtt96Kgw8+OJYsWZKunXTSSXHbbbflPNY//vGPqK6uTh+PHDmyTua4If369YvS0tJ45513IuKzUHz16tXRuXPnnPuA1kBmDwAAAAAAADL7jZHZN167fDfQErbZZpv0buO1XnrppayufeSRR+qtH3DAATn1sPY3aa3u3bvnNAYAAAAAAAA0xvPPPx9Lly7NqB9//PENGu+II46ILl26ZNQnTpzYoPHy6f33348xY8bEokWL0rXDDz88xo8fH+3a5R6rfvTRR3WO+/Tpk9P1a59fU1NTb94IhUJmDwAAAAAAADL7DZHZN42ieNL44MGD45lnnomIz3YcT5IkY/eE9bnvvvvq3T3gwAMPzKmHtb/BasPwXr165TRGPkydOjXfLQAAAAAAAOuR1GS3AzLUeuqppzJqXbt2jREjRjRovM6dO8c+++wTU6ZMqVP/29/+FldccUWDxsyHjz/+OMaMGRPz5s1L10aNGhUPPPBAlJSUNGjMdXcYLy8vz+n6VatW1Tnu1q1bg/qA1kBm33AyewAAAAAAaL1k9uRKZl8/mX3TKZpF4+tasGBBPPLII3H00Uev97onn3wy3njjjXQAXRsc77rrrrHlllvm1MO6u6SnUqkoLS3NaYx8GDVqVL0BPAAAAAAAAIXnH//4R0Zt8ODBDQ5ZIyKGDRuWEUDPmjWrweO1tE8//TTGjh0br7/+ero2fPjw+Mtf/pIRIudi3Tzxtddey/raysrKePPNN9PHnTp1ip49eza4F8g3mX3DyewBAAAAAADaDpl9Jpl908r9mewF6NBDD40OHT5fH1+7c/kFF1wQZWVl9V6zZs2auOSSSzLqqVQqjjnmmJx7mDFjRkZt4MCBOY+TL0mStIoXAAAAAAAADTdnzpyM2m677daoMffYY4+MWllZWcyfP79R47aE8vLyOOqoo2LmzJnp2p577hkTJ06M7t27N2rsvfbaKzp27Jg+fvrpp2PRokVZXfvwww/HypUr08d77713o3qBfJPZN16+s3qZPQAAAAAAQOPJ7OuS2Te9onjS+JZbbhmHHHJIPPbYY3V24H7nnXdin332idtvvz3222+/dH3+/Plx1llnxZw5c9Jh9drXnX766TnNv2bNmvRYa/vCF77QsBvKg9ayc7kQGgAAAAAAmD59epONNWLEiCYbq7WrqKiIBQsWZNQbu2hyhx12qLf+9ttvR//+/Rs1dnOqqqqKE088MaZOnZquDRo0KJ544onYdNNNGz1+9+7d48ADD4xJkyZFRMTq1avjvPPOi/vuu2+D133yyScZC2U39CRmKAQy+8aT2QMAAAAAAK2FzL5hZPZ1yeybR1EsGo+I+O53vxuPPfZYRNQNMV9//fUYOXJk9O3bN/r37x/Lly+PV199NX1Obfhc+8+xY8fG9ttvn9Pcjz/+eFRWVmaEuMOGDWvkXbWctT+z1hJGAwAAAAAAxWmfffZpsrGKafHbggULoqamJqO+zTbbNGrc9V0/b968Ro3bnJIkidNPPz0effTRdK20tDSmTJkSW265ZZPNc+WVV6YD6IiI+++/P0488cS4+eabo0+fPhnnv/jii3HaaafV+ey22mqr+Na3vtVkPUG+yOwbR2YPAAAAAAC0FjL7hpHZf05m33yKZtH4oYceGscdd1w8+OCDdQLlJEkiSZJYuHBhfPDBBxsMWtu1axf/+7//m/Pc9e080KVLlxg8eHDuN9IKFNMPYgAAAAAAaM2SxKIxsrd48eJ661tttVWjxl3f9eubrzV4991346677qpTmz9/fs67rA8YMCDefPPN9X59n332icsvvzyuvfbadG3ChAnxl7/8JUaNGhW77757dOvWLT755JOYPn16zJw5s871JSUlcdddd0W3bt1y6gtaI5l905HZAwAAAABA6yCzJxcy+8/J7JtP0Swaj4j41a9+FTNmzIgFCxakw+W1Q+baYLW2VhtS19YuvfTS2GOPPXKac/Xq1fGXv/wlY8wvfelL0b59+0bfU3PbdNNNo6ysrE5oP2PGjNhss81avJckSXLeMR4AAAAAAIDPLFmypN56z549GzVu+/bto1u3brFy5co69U8++aRR4zan+hZc1rej+8ZUVVVt9Jwf//jHUVJSEtdcc01UV1dHRMSaNWti0qRJdXY0X9cWW2wRf/jDH2L06NE59wWtlcw+dzJ7AAAAAACAtkFm/zmZffMpqkXjffr0iaeeeipGjhwZ7733Xsau5Os7TpIkTjzxxPjxj3+c85zjx4+PFStWZIx9yCGH5DxWPgwZMiQmT55cp/+PP/64YHdcBwAAAAAAKFYrVqyot969e/dGj11fAL3ucTG76qqr4stf/nLcdNNNMWHChFi9evV6z91yyy3jm9/8Zpx//vmx5ZZbtmCX0Pxk9rmT2QMAAAAAALQNMvv8KabMvqgWjUdElJaWxssvvxyXXnpp/Pa3v83YqbxWbb1bt25x+eWXx/e///2c50qSJG688caMsSMijjzyyAZ03/JqA+i1zZw5Mw4++OA8dQQAAAAAABS7adOm5buFglRZWVlvvUOHxkeGJSUlGbWKiopGj9tcBgwYUO/O5c1p8ODBMW7cuPjNb34Ts2fPjtdeey2WLl0a5eXlsckmm0Tv3r1j8ODBsdNOO9WbL0JbIbPPjcweAAAAAABobWT2DSOz/5zMvvkU3aLxiIhNN9007rjjjrjsssvigQceiMcffzzmz58fH374YaRSqdh8881jt912izFjxsRpp50Wm222WYPm+fOf/xxz587NqPfr1y923333xt5GixgyZEhGbcaMGXnoBAAAAAAAWFdSk+8O8mPEiBH5bqEgVVdX11tv3759o8eub4yqqqpGj9sWderUKfbee+/Ye++9890K5I3MPnsyewAAAAAAaL1k9uRCZt86tPXMvigXjdcaOHBgXHbZZXHZZZc1y/i77rprPPXUUxn13r17N8t8zWHtADqVSkWSJDFz5sw8dlT4kqo1+W6hcFS13t1MWptkje+rXCRrfG9lrdJvELOVVNT/m3cy1azOdweFo7qycHenamnVle3y3ULBqKzxWeViTQHvEtfS/MjKXoXPKmtrUi27i2QhWxNFmj40QKXPKic+r+xVJP4MDbR+69udvCmC4vrGqG8nc4C1yew3Tmbf9GT2OZDZ50Runz2ZfQ5k9lmT2WdPZp89mX32ZPa5kdtnT2afPT+ysiezz57MPnsy++zJoHPj88qezB4oBDJ7WkJRLxpvbl/4whfiC1/4Qr7baJTS0tLYdNNNo6ysLF179913Y8mSJQ3ezR0AAAAAAICW16lTp3rrFRWNX7RT3xjrmw+gpcjsAQAAAAAAaC1k9rQEW9WxUUOGDIkkqbtL2IwZM/LUDQAAAAAAAA2xySab1Ftfvnx5o8eub4wePXo0elwAZPYAAAAAAABtgcyellAUi8ZXr14dn376acaruro6360VhCFDhmTUZs6cmYdOAAAAAAAAaKjNN9+83vraT69tiNWrV8eaNWuyng8oPjL7xpHZAwAAAAAAFD6ZPS2hQ74baAnHHntsPPHEE3VqnTt3jrfffju22mqrPHVVONYOoFOpVETkN4Cu3UF93Z3UAQAAAACg2NQkqXy3QAHp06dPvfVFixY1atz1Xb+++YDiI7NvHJk9AAAAAAC0TjJ7ciGzpyUUxaLx1157LSOs/PKXvyx8ztLQoUOjR48e6fA5IuLNN9/MSy/vvPNOneO+ffvmpQ8AAAAAAIBCs/XWW0enTp0ydhh/9913GzXu+q4vLS1t1LhA2yGzbxyZPQAAAAAAQOGT2dMSimLR+EcffZQOT5MkiVQqFWPGjMlzV4VjwIABUVZWlu82IiKif//++W4BAAAAAACgIKVSqdhhhx3i1VdfrVOfO3duo8Z944036q0PHDiwUeMCbYfMvnFk9gAAAAAAAIVPZk9LaJfvBlpCTU1NRu0LX/hCHjoBAAAAAACA/Bk8eHBG7eWXX27UmLNnz86obbvtttG7d+9GjQu0HTJ7AAAAAAAAkNnT/Ipi0fgmm2ySUevRo0ceOgEAAAAAAID8GT58eEbt1VdfjWXLljV4zOnTp2c1D1C8ZPYAAAAAAAAgs6f5FcWi8T59+mTUli9fnodOAAAAAAAAmk6SpIryRcONGTMmo1ZdXR2TJ09u0HgfffRRvbuW1zcPULxk9gAAAAAAQFuU7+xcZl94ZPY0t6JYND5o0KBIkqRO7cMPP8xTNwAAAAAAAJAfO++8c+ywww4Z9XvvvbdB4913330ZOVwqlYojjzyyQeMBbZPMHgAAAAAAAGT2NL+iWDQ+YsSIjNq//vWvPHQCAAAAAAAA+XXKKadk1P785z/HggULchonSZK45ZZbMuqjRo2KbbfdtsH9AW2PzB4AAAAAAAA+I7OnORXFovHDDjusznGSJPHII4/kqRsAAAAAAADIn7PPPjs6duxYp1ZZWRk/+MEPchrnd7/7Xbz++usZ9XPPPbdR/QFtj8weAAAAAAAAPiOzpzkVxaLxXXbZJYYPHx4REalUKiIiZs2aFXPmzMlnWwAAAAAAANDitt566/jGN76RUf/jH/8Y999/f1ZjzJ07Ny688MKM+m677RbHHHNMY1sE2hiZPQAAAAAAAHxGZk9zKopF4xERl19+eSRJkj5OkiS++93v5rEjAAAAAACAxklqUkX5ovGuvvrq2GyzzTLqp556atx9990bvHb27NkxevToWLZsWcbXfvnLX0a7dkUTQQI5kNkDAAAAAABtTb6zc5l94ZLZ01yK5lf/qKOOiqOPPjqSJEnvXP7cc8/F9773vTx3BgAAAAAAQDGYN29epFKpDb5KS0vrvfbAAw/c6LXz5s3LupfevXvHnXfemVFfs2ZNfO1rX4vDDz88Hn744fjwww+juro6ysrK4plnnomzzz47hg8fHu+9917GtRdccEEceOCBWfcAFBeZPQAAAAAAAPkks6cYdMh3Ay3p97//fey9994xd+7cSKVSkSRJ/OQnP4mKioq4/vrro6SkJN8tAgAAAAAAQIs45phj4tprr43LL78842sTJ06MiRMnZj3WkUceGddff31Ttge0QTJ7AAAAAAAA+IzMnuZQNE8aj4jo1atXPPnkk7HLLrukdy9PkiR+8YtfxODBg2Py5Mn5bhEAAAAAAABazPe///342c9+Fu3bt2/wGKecckpMmDDBYk9go2T2AAAAAAAA8DmZPU2tqBaNR0Rst912MW3atPja175WJ4R+9dVX49BDD42BAwfGVVddFVOmTImlS5fmu10AAAAAAABoVueff378/e9/jyFDhuR0Xd++fWPcuHExbty46NSpUzN1B7Q1MnsAAAAAAAD4nMyeptQh3w20lIMOOiijtskmm8Ty5cvTIXSSJPH222/H1VdfnT5nyy23jF69ekWPHj2iW7duTdZPKpWKKVOmNNl4AAAAAABA8UmSfHdALvr27RvTp09v1vEbavjw4TFjxoyYPHlyjB8/PiZPnhzvv/9+xnm9evWK/fffP0444YT4yle+IngGsiazBwAAAAAA2hqZfWGR2VMMimbR+NNPPx2pVKrer9XuXr72ca0PP/wwPvzww4iI9V6fq3XnAwAAAAAAoO3r1KlT7L333vluY4PGjBkTY8aMiYiIsrKyWLhwYaxcuTI6d+4cvXv3blTIDRQ3mT0AAAAAAAD5JLOnGBTNovFayXq276itp1KpesPh2l3NG0vwDAAAAAAAQCHo1atX9OrVK99tAG2MzB4AAAAAAAA2TmZPQxTdovF1A+B1Q+V1j2vPFxwDAAAAAAAAQOPI7AEAAAAAAACaR9EtGl+XYBkAAAAAAChUSY2cA4DCJrMHAAAAAAAKlcweaG2KatH4ujuSAwAAAAAAAAAtQ2YPAAAAAAAA0HyKZtH4U089le8WAAAAAAAAAKAoyewBAAAAAAAAmlfRLBofOXJkvlsAAAAAAAAAgKIkswcAAAAAAABoXu3y3QAAAAAAAAAAAAAAAAAAAAANVzRPGgcAAAAAAGhrapJUvlsAAAAAAAAAgKIkswdaG08aBwAAAAAAAAAAAAAAAAAAKGAWjQMAAAAAAAAAAAAAAAAAABQwi8YBAAAAAAAAAAAAAAAAAAAKmEXjAAAAAAAAAAAAAAAAAAAABaxDvhsAAAAAAACgYZIkle8WAAAAAAAAAKAoyeyB1saTxnNQWVkZK1eujMrKyny3AgAAAAAAAABFRWYPAAAAAAAAsH6eNL6OqqqqmD59ejz33HPxyiuvxL///e9YuHBhLF68OJIkSZ+XSqViiy22iK233joGDRoUu+++e+y3334xYsSI6NDBxwoAAAAAAAAAuZLZAwAAAAAAADSMpPT/mzp1atx5553x0EMPxcqVK9P1tUPntSVJEh9++GF8+OGH8dJLL8W9994bERHdu3eP4447Ls4444w44IADWqR3AAAAAAAAAChkMnsAAAAAAACAxmmX7wbybdq0abHvvvvGgQceGOPHj48VK1ZEkiTpV8RnO5Sv7xURdc5fvnx5/PGPf4wDDzww9ttvv5g+fXo+bw8AAAAAAAAAWi2ZPQAAAAAAAEDTKNpF4xUVFfGd73wnDjjggHj++efTAfL6QuaIyAimI+oPp2vPmTZtWuy///7xne98JyoqKvJxmwAAAAAAQBuWJMX5AqDwyewBAAAAAIBCl+/sXGYPrKsoF41/9NFHMWLEiLjtttuipqamTvAcEXUC5rXVF0qvbd1dziMiampq4rbbbot99tknPvroo2a4GwAAAAAAAAAoHDJ7AAAAAAAAgKZXdIvGP/rooxg5cmTMnj27TvC87k7kEXV3Kd/Ya+3raq9de+xZs2bFyJEjhdAAAAAAAAAAFC2ZPQAAAAAAAEDz6JDvBlpSRUVFHHPMMfHvf/+73rC49n1ERJcuXWKPPfaIvfbaK3bdddfo1atX9OjRI7p16xYrV66MTz/9NMrKyuLVV1+Nl156KebMmROrVq2KiKgTPK/9/t///nccd9xx8dRTT0VJSUnLfwAAAAAAAAAAkCcyewAAAAAAAIDmU1SLxq+55pp4/vnn64TN64bFhx9+eJxyyilxzDHHROfOnbMee82aNfHII4/E+PHj49FHH42ampo6u6HXvp8+fXpcffXV8T//8z/Nco8AAAAAAAAA0BrJ7AEAAAAAAACaT7t8N9BS3nnnnbj++uszwufa91/60pdi2rRp8de//jW++tWv5hQ+R0R06tQpTjzxxHj44Yfj+eefj7333rvOHBGfh9DXX399zJs3r8nuDQAAAAAAKE41SaooXwAUHpk9AAAAAADQ1uQ7O5fZA+sqmkXj1113XVRWVkbE5+FzkiSRJElceOGF8cILL8Tw4cObZK6hQ4fGtGnT4tJLL60zV62qqqq47rrrmmQuAAAAAAAAAGjtZPYAAAAAAAAAzasoFo2Xl5fH3Xffnd5BvDYQTqVScfXVV8eNN97YLPNed911cd1119XZvbx27j/96U+xevXqZpkXAAAAAAAAAFoLmT0AAAAAAABA8yuKReOTJk2KFStWpI9rA+FDDjkkrrjiimad+9JLL43DDjuszq7lERErV66Mxx9/vFnnBgAAAAAAAIB8k9kDAAAAAAAANL+iWDT+zDPPZNTatWsXt99+e4vMf+utt0b79u0z6vX1BQAAAAAAkK0kSRXlC4DCIrMHAAAAAADaonxn5zJ7YF1FsWj85ZdfTr+v3bH8oIMOiu22265F5t9uu+1i9OjRGTuXr90XAAAAAAAAALRFMnsAAAAAAACA5lcUi8bffvvtSKXq7mBxzDHHtGgPX/7yl9PvU6lUJEkSb7/9dov2AAAAAAAAAAAtTWYPAAAAAAAA0PyKYtH40qVLM2oDBgxo0R7qm2/JkiUt2gMAAAAAAAAAtDSZPQAAAAAAAEDzK4pF46tWrcqo9enTp0V72GqrrTJq5eXlLdoDAAAAAAAAALQ0mT0AAAAAAABA8+uQ7wZaQseOHWP16tV1amVlZS3aw7JlyzJqHTt2bNEeAAAAAACAtiVJ8t0BAGyczB4AAAAAAGiLZPZAa1MUTxrfZJNNMmrvv/9+i/ZQ33z19QUAAAAAAAAAbYnMHgAAAAAAAKD5FcWi8f79+0eyzrYdTz/9dIv2MHXq1PT72l769+/foj0AAAAAAAAAQEuT2QMAAAAAAAA0v6JYNL7TTjul36dSqUiSJB588MGorKxskfkrKyvjgQceiFQqVaePtfsCAAAAAAAAgLZIZg8AAAAAAADQ/Ipi0fi+++6bUVu2bFlcf/31LTL/T3/601i6dGlGvb6+AAAAAAAAAKAtkdkDAAAAAAAANL8O+W6gJRx22GEZO4YnSRLXXHNNHHHEETF48OBmm3vOnDlx1VVX1Zm/tofDDjus2eYFAAAAAADavpoktfGTACDPZPYAAAAAAEBbJLMHWpuieNL4dtttFwcccEAkSZKupVKpqKioiDFjxsT06dObZd5//OMfMWbMmKioqEjXkiSJVCoVI0eOjO22265Z5gUAAAAAAACA1kJmDwAAAAAAAND8imLReETEZZddln5fG0SnUqlYunRpHHzwwfHzn/88qqurm2SumpqauOWWW2L06NHx8ccfp3dJX9ull17aJHMBAAAAAAAAQGsnswcAAAAAAABoXkWzaHzs2LExevTo9K7ha4fQq1atiosuuij22GOPuOuuu2LVqlUNmqO8vDzuvvvu2GuvveK8886LFStWRCqVSs9TO/fo0aPj0EMPbbJ7AwAAAAAAAIDWTGYPAAAAAAAA0Lw65LuBlnT77bfHkCFDYtmyZXUC4dr3r732WvzHf/xHdO3aNQ4//PAYNmxYDB48OHbeeefo1atXdOnSJT1WeXl5lJWVxWuvvRYvvfRSvPjii/HYY4/FypUr64Tb6+rVq1fccccdLXbPAAAAAAAAANAayOwBAAAAAAAAmk9RLRovLS2Ne++9N4488sioqqqqN4ROkiRWrlwZEyZMiAkTJtS5vn379tGlS5coLy+P6urqjPFrg+eIzPA5SZIoKSmJe++9N/r37988N0hhqKzIdweFY82afHdQOCor891BYamsyncHBSOpyPzvHfVLVtfku4WCUe0/hVmrrmyX7xYKRkVV+3y3UDAqanxf5aKynr9YTP0qfVRZq/BZZa0yko2fRET4rHJRlfi9ey4qavwZOltViT9Dkx9J4jcXABQOmT2tgsw+ezL73Mjtsyezz5rMPnsy++zJ7LMns8+ezD43cvvsyeyzJ7PPnsw+e3Lo7Pmssiezz43MPnsye/JFZg+0NkX3fx0OPvjgmDBhQnTs2DEiPg+K1w6i1w6j135VVVXF8uXLo6qqqt6vr3t9rSRJolOnTjFhwoQYM2ZMXu4bAAAAAAAAAPJNZg8AAAAAAADQPIpu0XhExFFHHRXPPvts9OvXLx0Urx1E1x7n+lr3+trj/v37x7PPPhtHHXVUS98qAAAAAAAAALQqMnsAAAAAAACApleUi8YjIoYOHRqvvPJKnHfeedG+ffuM4LjW2ruSZ1NfO3hu3759nH/++TFnzpwYOnRoM94NAAAAAAAAABQOmT0AAAAAAABA0yraReMREd27d4+f//zn8cYbb8Q555wTvXr1ygiW192VvFZ9u5XXvnr16hXnnntuvPHGG3HTTTfFJpts0uL3BgAAAAAAAACtmcweAAAAAAAAoOl0yHcDrUH//v3j5ptvjp/+9Kfx5JNPxhNPPBHPPfdcvPbaa7F69eqNXt+5c+fYZZddYr/99ouDDz44DjnkkCgpKWmBzgEAAAAAgGJWk6Q2fhIAtHIyewAAAAAAoBDJ7IHWxqLxtXTs2DGOOOKIOOKIIyIioqamJt59991YuHBhLF68OMrLy6OysjJKSkqiS5cuscUWW8TWW28d/fr1i3btivqh7QAAAAAAAADQKDJ7AAAAAAAAgIazaHwD2rVrFwMGDIgBAwbku5WCUF1dHf/617/i5ZdfjrfffjvmzZsXixcvjk8++SRWrlwZFRUVUVVVFSUlJdGpU6fo0aNHbL755tGnT58oLS2NHXfcMfbaa68oLS3N960AAAAAAAAAkGcy+9zI7AEAAAAAAKC4FcWi8ccffzzmzp2bUT/ppJOiT58+eeio7Vi0aFHcc889MXHixHjuuedi9erV9Z6XJElGLZVK1Xtu7969Y/To0XH00UfHl7/85ejSpUuT9gwAAAAAAABAy5HZNx+ZPQAAAAAAAFCrKBaN//d//3e8+OKLdWoDBgyIc889N08dFb7nn38+rrvuunj00UejpqYmIuoPmde2duCcJMl6z1+8eHHce++9ce+990b37t3jG9/4Rlx00UWx7bbbNt0NAAAAAAAAANAiZPZNT2YPAAAAAAAArKtdvhtoCW+99VY68KwNPU888cRo164obr9JLVq0KL7yla/EvvvuG3/5y1+iuro6/bmmUqkNvta2sXNrx1y+fHn88pe/jEGDBsXVV18d1dXVebpzAAAAAABofZIifQFQWGT2TUdmDwAAAAAArUe+s3OZPbCuokhgy8rKMkLQYcOG5bGjwjR16tQYPHhwTJgwod7QuT5rB//re9Vn3TC6vLw8rrrqqjjggAPigw8+aM7bBAAAAAAAAKAJyeybhsweAAAAAAAA2JAO+W6gJXTq1ClWrVpVp7bddtvlqZvC9Pjjj8dxxx0Xq1evjojICJzXDZK7desWW2+9dfTp0yd69OgR3bp1i5KSkmjfvn1UVVVFRUVFLF++PMrKymLRokWxcOHCqKysTF+/9vi175MkienTp8fIkSPjqaeeim222aa5bhcAAAAAAACAJiKzbzyZPQAAAAAAALAxRbFovEePHhkBdMeOHfPUTeF5/fXX4ytf+UqsXr263uC5ffv2sf/++8fo0aNj2LBhsccee8RWW22V0xw1NTUxb968mD17dkyfPj0mTZoU//rXvyLi8wC6dgfzN998M4499th47rnn/DoCAAAAAAAAtHIy+8aR2QMAAAAAAADZKIpF46WlpfHBBx/UCU8XL16cx44KyxlnnBHLly+v8/klSRJbbrllXHDBBfGNb3wjtthii0bN0a5du9h+++1j++23j+OPPz5uvPHG+Ne//hU333xz/O53v4uqqqqI+DyEnjlzZlx77bVx1VVXNWpeAAAAAAAoZDVJauMnAUCeyewbR2YPAAAAAACtk8weaG3a5buBlrDLLrtk1BYtWpSHTgrPgw8+GC+88EI6fE6SJJIkiTPOOCPmzp0bl112WaPD5/XZdddd49Zbb405c+bE4MGDI0mSiPg8hP7JT34SS5YsaZa5AQAAAAAAAGgaMvuGk9kDAAAAAAAA2SqKReMHHXRQRm3q1Kl56KTw/PrXv06/T5IkUqlU/PCHP4w777wzevTo0SI9DBo0KJ599tkYOXJkOoSOiFi9enX8/ve/b5EeAAAAAAAAAGgYs4OkewAA/iZJREFUmX3DyewBAAAAAACAbBXFovFDDz00OnfuHBGf73j96KOP5rmr1u/TTz+NZ555Jv2ZpVKpOOSQQ+K///u/W7yXLl26xP333x+bbbZZnfrDDz/c4r0AAAAAAAAAkD2ZfcPI7AEAAAAAAIBcFMWi8U033TROPvnkOjteL1q0KH7zm9/ksavWb9asWVFVVVWnlo/wuVbv3r3jvPPOS4fhSZLEP/7xjzq/rgAAAAAAAAC0LjL7hpHZAwAAAAAAALkoikXjERE/+tGPomvXrhHx+c7ll19+eSxevDjPnbVec+fOrXO81VZbxbBhw/LUzWeOOeaYOsdr1qyJBQsW5KcZAAAAAADIsyRJFeULgMIjs8+dzB4AAAAAAFq3fGfnMntgXUWzaLxfv35x3XXX1dnh+uOPP44xY8bEJ598ksfOWq+ysrL0+1QqFTvuuGP+mvn/6uth7T4BAAAAAAAAaH1k9rmT2QMAAAAAAAC5KJpF4xER5557bnz729+OJEkilUpFKpWKV155JfbZZ5949tln891eq1NdXV3nuKSkJE+dbLiHdfsEAAAAAAAAoPWR2edGZg8AAAAAAADkoqgWjUdE3HLLLXH55Zendy9PpVLxxhtvxKhRo+KUU06JqVOn5rnD1qNHjx7p90mSxIIFC/LYzWfee++9jNomm2ySh04AAAAAAAAAyJXMPnsyewAAAAAAACAXHfLdQEt599130+/PPvvs6N+/f1xyySWxfPnySKVSkSRJ3H333XH33XdH//79Y999940vfvGLscsuu0SvXr2iR48e0a1btybtqV+/fk06XlMrLS2tc/zWW2/FggULYrvttstTRxFTpkypc9yuXbtW/zkCAAAAAAAAFDuZfe5k9gAAAAAAAEAuimbR+IABAyKVSmXUkySJVCqVDqEjIubNmxfz58+PP/3pT83WTyqViqqqqmYbvynsueeedY6TJImf/exncdNNN+Wln+rq6vjZz35W59dx5513jo4dO+alHwAAAAAAyLeafDcAAFmS2edOZg8AAAAAAK2bzB5obdrlu4GWlCRJxmvtem0QXRtGN/ertdtmm21it912i4hIfyY333xzPPHEE3np57LLLotXX301Ij7/iwNjx47NSy8AAAAAAAAA5EZmnxuZPQAAAAAAAJCLolo0vnbAXPta29rBcH3nNtWrkHzzm9+s85lUV1fHscce26w7uq+rqqoqzjvvvIwdy1OpVHzzm99ssT4AAAAAAAAAaDiZfe5k9gAAAAAAAEC2imrReH0KPSBubmeeeWZss8026eNUKhXl5eVx6qmnxpFHHhkzZsxotrmTJIn77rsvdtttt7jlllvq7DKfSqXixBNPjEGDBjXb/AAAAAAAAAA0L5n9hsnsAQAAAAAAgGx1yHcDtG7dunWLX/3qV3Hcccela6lUKpIkiYkTJ8bEiRNjjz32iOOPPz5Gjx4dQ4YMiY4dOzZ4vrKyspg2bVpMmjQpJkyYEIsWLaqza3qt3r17x0033dTwG8vR9OnTm2ysvZpsJAAAAAAAAADaMpn9Z2T2AAAAAAAAsHFFs2i8X79+diRvoC9/+cvxox/9KK666qr0Z1gbQkdEvPzyyzFnzpz40Y9+FB06dIgddtghBg4cGNtss01stdVW0bNnz+jevXt06NAh2rdvH1VVVVFRURHLly+PsrKyWLRoUbz77rsxd+7ceO+999Lz1hc8J0kSXbp0ifvvvz/69u3bYp/BPvvs02RjrZp0S5ONBQAAAABAcUtC9gFAYZDZN5zMXmYPAAAAAEDrJLMHWpuiWTQ+b968fLdQ0K688sro0KFD/PCHP0zXaoPhJEnSYXFlZWW8/vrr8e9//zvnOWrHWHf8tb/eq1eveOCBB+KAAw7IeXwAAAAAAAAA8kNm3zgyewAAAAAAAGBj2uW7AQrH5ZdfHhMnToztttuuTlicSqUyXrWhdC6vdceoVfv1kSNHxuzZs+PAAw/Mx+0DAAAAAAAAQN7I7AEAAAAAAIANsWicnBxyyCHx2muvxf/8z/9E79696+xYvrb6QumNvdZVO/Zuu+0W99xzTzz11FPRv3//lrhNAAAAAAAAAGh1ZPYAAAAAAADA+nTIdwMUni5dusQPfvCDuPjii+Ohhx6Ku+++O/72t7/FqlWr6pxXX6i8PuuG2FtttVUceeSRccopp8TIkSObpO/GmDZtWtMNtnx2040FAAAAAAAAQFGR2TeSzB4AAAAAAIA2qigWjb/33nuxZMmSjPr2228f3bt3z0NHbUPnzp3j5JNPjpNPPjkqKyvjhRdeiH/84x8xZ86ceOutt2LevHmxePHiWLNmzXrH6N69e/Tp0ydKS0tjxx13jMGDB8fw4cNjt912a8E72bgRI0Y02VjlTwigAQAAAABoGjWZDxYFgFZHZt88ZPYNI7MHAAAAAKCpyOyB1qYoFo2ffvrp8dRTT9Wp9ezZM+bNm5efhtqgkpKS2G+//WK//fbL+Fp5eXmsWLEiKisro7q6Ojp06BCdOnWKTTbZJEpKSvLQLQAAAAAAAAAtRWbf/GT2AAAAAAAAQFEsGn/99dcjST7ftiOVSsVxxx0XPXr0yGNXxaNLly7RpUuXfLcBAAAAAAAAQB7I7PNLZg8AAAAAAADFoV2+G2gJH3/8caRSqUilUunayJEj89gRAAAAAAAAABQHmT0AAAAAAABA8yuKJ423a5e5Nn6HHXbIQycAAAAAAABNpyZSGz8JAPJMZg8AAAAAALRFMnugtSmKJ4137949qxoAAAAAAAAA0LRk9gAAAAAAAADNrygWjW+77baRJEmdWllZWX6aAQAAAAAAAIAiIrMHAAAAAAAAaH5FsWh80KBBGbUPP/wwD50AAAAAAAAAQHGR2QMAAAAAAAA0vw75bqAl7L///nHvvffWqc2aNStOPPHEPHVEQ7377rt1jvv27RslJSV56gYAAAAAAACyt2TJknjllVfijTfeiCVLlkRNTU1sttlm0b9//9h7772jZ8+e+W4RmoXMvu2Q2QMAAAAAAFCoiiGzL4pF44cffnikUqn0cZIk8Ze//CX+93//N49d0RADBgyo82s5ffr0GDZsWB47AgAAAACA/EkitfGTgEY577zz4uabb65TO+200+L3v//9Rq+tqamJZ599Nh566KGYMmVK/POf/1zvualUKkaPHh0XXnhhHHbYYY1tG1oVmX3bIbMHAAAAAIDPyeyh+cnsc9Mu3w20hAEDBsSYMWMiSZJ0ePnaa6/F1KlT89wZDZUkSb5bAAAAAAAAoI17/vnn45Zbbmnw9YMGDYpRo0bFL37xiw2GzxGf5V+TJ0+Oww8/PE4++eRYvnx5g+eF1kZm3/bI7AEAAAAAAGhuMvvcFcWTxiMifvCDH8TkyZPTx0mSxHnnnRezZs2Kdu2KYu08AAAAAAAAkKXKyso466yzoqampsFjLF68OKO24447xvDhw6NPnz7RuXPnWLBgQUyZMiXee++99Dn33HNPfPDBB/H4449H586dGzw/tCYyewAAAAAAACBbMvuGKZrkdf/9949vfOMbdXYuf+WVV+LUU0+1AzYAAAAAAABQx3XXXZfeabxv376NGmvAgAFxzTXXxIIFC2Lu3Lkxbty4+MlPfhJXX311/P73v4958+bFr3/96zph8zPPPBM/+MEPGjUvtCYyewAAAAAAACBbMvuGKZpF4xERv/rVr2LvvfdOh9BJksQ999wTJ510UixdujTf7QEAAAAAAACtwL///e/48Y9/HBERXbt2jWuvvbZB4/Tv3z9++9vfxptvvhlXXHFFbLvttvWe1759+/jP//zPePDBB+s8cfmXv/xlvP/++w2aG1ojmT0AAAAAAACwMTL7hiuqReOdOnWKxx9/PEaNGlUnhH7wwQdjp512it/85jexatWqfLcJAAAAAACQlZoifUFzSpIkzjrrrFizZk1ERFx55ZUxYMCABo01c+bMOOOMM6J9+/ZZnX/YYYfFySefnD6urKyMRx55pEFzQ2skswcAAAAAANqSfGfnMnvaIpl94xTVovGIiB49esSkSZPi8ssvj/bt26dD6MWLF8e3vvWt6NOnT5x++ulx5513xuzZs9PfWAAAAAAAAEDbd9ttt8Wzzz4bERG77bZbXHjhhQ0eq0OHDjlf89WvfrXO8Ysvvtjg+aE1ktkDAAAAAAAA6yOzb5zc77hAbb/99hm1kpKSqKqqilQqFRGf7UCwYsWKGDduXIwbNy59XseOHaNHjx7RrVu3JusnlUrFW2+91WTjAQAAAAAAAI2zcOHC+N73vhcRn+V5t912W5SUlLRoDwMHDqxz/OGHH7bo/NBcZPYAAAAAAADAhsjsG69oFo3PmzcvvUN5RKRD54jPgudUKlUniF7bmjVrYvHixbF48eIm62ft+VuzqVOn5rsFAAAAAAAAaBHnnntuLFu2LCIizjrrrNhnn31avIfly5fXOW7pAByai8y+YWT2AAAAAAAAFAuZfeMVzaLxWusLmdcOpps7HF537tZs1KhRBROWAwAAAAAA0DReffXV+Oc//xkLFy6MFStWROfOnWOLLbaInXfeOQYPHlxwoWg2HnzwwXjooYciImLLLbeM6667Li99zJkzp87xtttum5c+oLnI7HMjswcAAAAAACg+MnuZfUMV3aLxWhsLous7t5gVUmgOAAAAAADFIgkZRqF7++23Y+bMmXVeS5cuzTjvqaeeilGjRjVrLwsWLIhf/vKX8ac//SkWLly43vM22WSTOProo+O8886LYcOGNWtPLWXZsmVx7rnnpo9vuumm2HTTTfPSy/jx4+scH3TQQXnpA5qbzD43MnsAAAAAAGh9ZPaFT2bfOsjsm07RLhqvJVzOTmv5nAThAAAAAABAoXrnnXdixowZGw2bW1pNTU1cd911cc0110R5eflGz1++fHncddddcdddd8Wpp54aN998c/Ts2bMFOm0+l1xySXzwwQcRETFmzJj4+te/npc+nnnmmXj66afTxz179oxDDz00L71AS2ktWXRr11o+J5k9AAAAAABQqGT2rZfMvukU1aJx4WXDrf3ZtZYwGgAAAAAAoJAMHjw4li1blu826igvL48TTzwxHn300QZdP27cuHj++edj0qRJUVpa2sTdtYypU6fGb37zm4iI6Ny5c/z617/OSx8rV66Ms88+u07toosuiu7du+elH2gOMvuGk9kDAAAAAAA0jsy+dZLZN62iWTT+zjvv5LuFNkOQDwAAAAAAUPiqq6vj+OOPj4kTJ9b79ZKSkthll12id+/esXz58nj11VdjxYoVGee98cYbcdBBB8W0adOib9++zd12k1qzZk2cffbZ6fzr8ssvj4EDB+all29/+9sxd+7c9PFOO+0Ul1xySV56geYgs286MnsAAAAAAIDCJ7OX2TeHolk03r9//3y3UJA23XTTKCsri1QqFUmSRCqVihkzZsRmm23W4r0kSRLbb799i88LAAAAAADQFl155ZX1hs+9evWKH/3oR3HGGWdEz5490/XKysp45JFH4vLLL68TlEZEzJs3L04++eSYMmVKtG/fvtl7bypXX311/Pvf/46IiEGDBsVll12Wlz5uuummGDduXPq4U6dOMX78+OjcuXNe+oHmILNvGJk9AAAAAABA2ySzl9k3h6JZNE7DDBkyJCZPnhypVCpd+/jjj2Pw4MF57AoAAAAAAIiIqMl3AzRav379YsiQITF06NAYMmRI9O7dO4YOHdrs87788stx/fXXZ9RLS0tj8uTJ9S4KLCkpieOPPz7Gjh0bxx9/fEyaNKnO15955pm49dZb45xzzsm6jwEDBsT8+fNzv4Es/eQnP4mLL7643q+98sorccMNN6SPb7311ujYsWOz9bI+9913X8bu5LfddlsMGTKkxXsBWh+ZPQAAAAAAtF4y+8Ins5fZt7XM3qJxNqg2gF7bzJkz4+CDD85TRwAAAAAAAIWpX79+MXDgwBgyZEg6dO7du3edc+bNm9civVx00UVRXV1dp9atW7d47LHHNvoU2W7dusWDDz4Yw4YNi3/96191vnbllVfGaaedFt27d2/ynptSTU1NnHnmmVFZWRkREaeddlqMGjWqxfuYPHlynHrqqVFT8/lfJ7nuuuvitNNOa/FegNZJZg8AAAAAANA0ZPath8y++Vg0zgbVtxvCjBkz8tAJAAAAAABAYZszZ06+W4iIz7KeKVOmZNR/+MMfxk477ZTVGF27do077rgj9tlnnzr1JUuWxO233x4XXnhhk/TaXG6++eZ48cUXIyJi8803jxtvvLHFe3jhhRfi2GOPjYqKinTtkksuicsuu6zFewFaL5k9AAAAAABA05DZtx4y++Zj0TgbtHYAnUqlIkmSmDlzZh47agMqVue7g8JRWbHxc/jM/99VhSyt8b2VrWSN761s1VTUbPwkIiKiprJdvlsoGJUV7fPdQsGoqvZ9la3K8FnlojKVyncLBWONjyprlZHku4WC4bPKXkXi96PZWhPVGz+JtMrwvZWtyhrfW0DhuP322zNqm2++eXz3u9/NaZwRI0bEoYceGpMmTapTv+OOO7IOoCdMmBCrVzdfdlJaWppRKy8vjx/84Afp45/85CcZu8c3t3/+859x+OGHx4oVK9K1M888M2644YYW7QNo/WT2zUBmnz2ZfW7k9tmT2WdNZp89mX32ZPbZk9lnT2afG7l99mT22ZPZZ08OnT2fVfZk9tmT2edGZp89mT1QSGT2MvvmZNE4G1RaWhqbbrpplJWVpWvvvvtuLFmyJDbbbLP8NQYAAAAAAPhrIuSsqqoqJkyYkFH/+te/Hl27ds15vLPOOisjgH799ddj1qxZ8cUvfnGj1w8dOjTnORtrzZo1dYLfs846K84666wNXpMkdf9y5B//+McYP358+vi0006LO++8M6v533rrrTj44INjyZIl6dpJJ50Ut912W1bXA8VFZg8AAAAAAK2XzJ5cyexl9s3NVnVs1JAhQzL+pZoxY0aeugEAAAAAAKChnn/++Vi6dGlG/fjjj2/QeEcccUR06dIloz5x4sQGjZcP1dXVG33V1NT96x5JkmSck433338/xowZE4sWLUrXDj/88Bg/fny0aye6BeonswcAAAAAAGgbZPaZZPZNy5PG1yNJkpg/f368//778cknn0R5eXlUVFSkg9hjjjkmevTokecuW8aQIUNi8uTJdWozZ86MQw45JE8dAQAAAAAA0BBPPfVURq1r164xYsSIBo3XuXPn2GeffWLKlCl16n/729/iiiuuaNCYbdXHH38cY8aMiXnz5qVro0aNigceeCBKSkry1xi0UjL7z8nsAQAAAAAA2gaZff4US2Zv0fha/v73v8ejjz4aTz31VMyZMydWr1693nOHDh0au+yySwt2lz9DhgxJv0+lUhHxWQCdL7V/CWDdndQBAAAAAADYsH/84x8ZtcGDBzcqAB02bFhGAD1r1qwGj9fcevXqlXPO9PTTT8eBBx6YPj7ttNPi97//fdbXf/rppzF27Nh4/fXX07Xhw4fHX/7yl+jcuXNOvUBbJrOvn8weAAAAAACgbZDZy+ybW9EvGq+oqIjbb789fvGLX8Tbb7+drm/om642hN2YBx54IE4++eSM+t133x3HH3987s3mydChQ6NHjx517vvNN9/MSy/vvPNOneO+ffvmpQ8AAAAAAIBCNGfOnIzabrvt1qgx99hjj4xaWVlZzJ8/P/r379+osduC8vLyOOqoo+os8Nxzzz1j4sSJ0b179zx2Bq2DzH7jZPYAAAAAAABtg8y+5RVbZl/Ui8YfffTROOecc2LBggUZgfP6QuZcdjA49thjY7vttssITX/7298WVAA9YMCAKCsry3cbERF+SAEAAAAAwFqSyG7RHER8tjBzwYIFGfWBAwc2atwddtih3vrbb79d9NlOVVVVnHjiiTF16tR0bdCgQfHEE0/EpptumsfOoHWQ2WdHZg8AAAAAAK2TzJ5cyOxbXjFm9kW5aLympiYuuuii+OUvf5kOlDe0E3k259SnXbt2cfHFF8c555yTvjZJknjyySdj0aJF0adPnwbeAQAAAAAAQPGaPn16k401YsSIJhurtVuwYEHU1NRk1LfZZptGjbu+6+fNm9eocQtdkiRx+umnx6OPPpqulZaWxpQpU2LLLbfMY2eQfzJ7AAAAAACAwiWzbxiZfcsq1sy+6BaNV1ZWxle+8pV4+OGHI0mSrILnxjjjjDPisssui5UrV6Zr1dXVcd9998V5553X6PEBAAAAAACKzT777NNkYzVFHlQoFi9eXG99q622atS467t+ffMVi3fffTfuuuuuOrX58+fnvJP7gAED4s0332zK1iCvZPYAAAAAAACFTWbfMDL7llWsmX27fDfQ0r7xjW/En//853rD5yRJ0j9kBg0aFKNHj46TTjopInLfsbxW586d4/DDD8/44fXEE080aDwAAAAAAABoiCVLltRb79mzZ6PGbd++fXTr1i2j/sknnzRq3EJX319uqKmpierq6pxeVVVVeegemo/MHgAAAAAAgGIks29ZxZrZF9Wi8dtuuy3uuuuuSKVSkUql6vyiJ0kSw4cPj7vvvjs++uijePXVV+PJJ5+Me+65p9HznnDCCen3tfNOnTq14L5ZAAAAAAAAKFwrVqyot969e/dGj11fAL32U30BImT2AAAAAAAAFC+ZPS2hQ74baCkffvhhXHrppXV2H68NgzfffPO488474+ijj26WuQ8//PDo0KFDVFdXp2srV66MF154Ifbdd99mmRMAAAAAAGj7ahr20FWKVGVlZb31Dh0aHxmWlJRk1CoqKho9bmsxatSoench35ABAwbkfA20ZTJ7AAAAAACgrZHZkwuZfcPJ7LNXNIvGb7jhhli+fHmdADpJkth+++3j6aefjm233bbZ5u7atWvssssuMWfOnDrzv/zyywJoAAAAAACAHE2bNi3fLRSktRdLrq19+/aNHru+MTzBF1ibzB4AAAAAAKBtkNk3jMyellAUi8bXrFkTv/3tbzPC58033zwmTZrUrOFzrcGDB8ecOXPq1F5//fVmnxcAAAAAAKCtGTFiRL5bKEjr2528KYLi+saobydzoDjJ7AEAAAAAANoOmX3DyOxpCe3y3UBLeOKJJ2LZsmXp4yRJIpVKxVVXXRU77LBDi/Sw1157ZdRee+21FpkbAAAAAAAAOnXqVG+9oqKi0WPXN8b65gOKj8weAAAAAACAYiezpyUUxaLxp556KqO2zTbbxLe//e0W62HrrbdOv0+lUpEkSbz//vstNj8AAAAAAADFbZNNNqm3vnz58kaPXd8YPXr0aPS4QNsgswcAAAAAAKDYyexpCfU/z76NmT17dvp97Y7lRx55ZLRr13Jr5nv16pVR+/TTT1tsfgAAAAAAoO2piVS+W6CAbL755vXWy8rKGjXu6tWrY82aNVnPBxQfmT0AAAAAANAWyezJhcyellAUTxp/++23I5Wq+wP4gAMOaNEe6gugm2IHCAAAAAAAAMhGnz596q0vWrSoUeOu7/r1zQcUH5k9AAAAAAAAxU5mT0soikXjS5Ysyaj17du3RXsoKSnJqK1atapFewAAAAAAAKB4bb311tGpU6eM+rvvvtuocdd3fWlpaaPGBdoOmT0AAAAAAADFTmZPSyiKRePl5eUZtfp2EW9O9YXgHTt2bNEeAAAAAAAAKF6pVCp22GGHjPrcuXMbNe4bb7xRb33gwIGNGhdoO2T2AAAAAAAAFDuZPS2hKBaNd+nSJaNWVlbWoj3UF0B37969RXsAAAAAAACguA0ePDij9vLLLzdqzNmzZ2fUtt122+jdu3ejxgXaDpk9AAAAAAAAyOxpfkWxaHyTTTbJqH388cct2sPrr7+efp8kSUREbLPNNi3aAwAAAAAA0LYkRfqi4YYPH55Re/XVV2PZsmUNHnP69OlZzQMUL5k9AAAAAADQFuU7O5fZFx6ZPc2tKBaN9+vXLx361po5c2aL9jB16tQ6x6lUKkpLS1u0BwAAAAAAAIrbmDFjMmrV1dUxefLkBo330Ucf1btreX3zAMVLZg8AAAAAAAAye5pfUSwaHzRoUEbt6aefbrH5V61aFdOnT49UKlWnPnjw4BbrAQAAAAAAAHbeeefYYYcdMur33ntvg8a77777MhaCplKpOPLIIxs0HtA2yewBAAAAAABAZk/zK4pF4/vss0/6fSqViiRJ4sUXX4zXX3+9Reb/zW9+EytXrtxgXwAAAAAAANASTjnllIzan//851iwYEFO4yRJErfccktGfdSoUbHttts2uD+g7ZHZAwAAAAAAwGdk9jSnolg0fvDBB2fUkiSJ//3f/232udesWRM33XRTxo7lPXv2jJEjRzb7/AAAAAAAALC2s88+Ozp27FinVllZGT/4wQ9yGud3v/tdvQs+zz333Eb1B7Q9MnsAAAAAAAD4jMye5lQUi8a33377+NKXvhRJkkTE5zuXjx8/Pv7yl78069znnntuvPvuu+njJEkilUrFCSecEO3bt2/WuQEAAAAAgLatpkhfNM7WW28d3/jGNzLqf/zjH+P+++/Paoy5c+fGhRdemFHfbbfd4phjjmlsi0AbI7MHAAAAAADaonxn5zL7wiSzpzkVxaLxiIjvfve7dY5rQ+jTTjstZs+e3Sxz3nzzzXHnnXem59pQPwAAAAAAANBSrr766thss80y6qeeemrcfffdG7x29uzZMXr06Fi2bFnG1375y19Gu3ZFE0ECOZDZAwAAAAAAwGdk9jSXovnV/9rXvhZf+MIX6tRSqVSUlZXFAQccEA899FCTzVVTUxPnnXdenH/++ZFKpdJz1e5Yftxxx8Xuu+/eZPMBAAAAAADQ+s2bNy9SqdQGX6WlpfVee+CBB2702nnz5mXdS+/evePOO+/MqK9Zsya+9rWvxeGHHx4PP/xwfPjhh1FdXR1lZWXxzDPPxNlnnx3Dhw+P9957L+PaCy64IA488MCsewCKi8weAAAAAACAfJLZUwyKZtF4u3bt4tZbb03vHp4kSToQXrlyZZxwwglx+OGHx6xZsxo8R3V1dfzhD3+IXXfdNW655ZaMncojIrp37x433nhjg+cAAAAAAACApnDMMcfEtddeW+/XJk6cGMccc0z06dMnOnToEJtuummMGjUq7rjjjqisrMw4/8gjj4zrr7++uVsGCpjMHgAAAAAAAD4ns6c5dMh3Ay1p1KhR8b3vfS+uu+669C7iEZ/vKD5p0qSYNGlSDBw4MI455pjYc889Y6eddqp3rHnz5sWKFStiyZIl8cYbb8QzzzwTU6dOjU8++SRj3LX/+atf/Sr69+/fYvcMAAAAAAC0XTX//+mp0FDf//73o0uXLnHxxRdHdXV1g8Y45ZRT4je/+U2UlJQ0cXdAWyOzBwAAAAAA2hKZPY0ls6epFdWi8YiIH//4x/Hmm2/GhAkTIrXWD+W1A+k33ngjY2fxtXcgT5IkjjrqqIyx1w6ea49r36dSqbj44ovj1FNPbdobAgAAAAAAgEY4//zzY8SIEXHOOefEzJkzs76ub9++ccMNN8Qpp5zSjN0BbY3MHgAAAAAAAD4ns6cpFd2i8VQqFXfffXeUlJTE3XffXW9YXHu8IfV9fd3r1x77vPPOi+uvv74pbgEAAAAAAIAC1Ldv35g+fXqzjt9Qw4cPjxkzZsTkyZNj/PjxMXny5Hj//fczzuvVq1fsv//+ccIJJ8RXvvKV6NSpU2NaBoqQzB4AAAAAAIB8kNlTDIpu0XhERPv27eOuu+6KPffcM374wx9GVVVVnfA4IjNMXte65699biqVSu+C3rFjx7j++uvjv/7rv5r2JgAAAAAAACgonTp1ir333jvfbWzQmDFjYsyYMRERUVZWFgsXLoyVK1dG586do3fv3o0KuQFqyewBAAAAAABoaTJ7ikFRLhqvdemll8bYsWPjO9/5TkybNi0iMoPl9e1evnZ97Wtqg+eIiKFDh8btt98ee+21VxN3DgAAAAAAAM2rV69e0atXr3y3AbRhMnsAAAAAAACon8yehmiX7wbybY899ojnnnsuHnvssTjkkEPSAXJtiFy7A/mGXhGRviZJkhg2bFjcc8898eKLLwqfAQAAAACAZpMU6QuAtkNmDwAAAAAAFKp8Z+cye2BdRf2k8bWNHTs2xo4dG++//3789a9/jSeeeCJmzJgRCxYs2Oi13bt3jyFDhsTo0aPj2GOPjV133bUFOgYAAAAAAACAtkFmDwAAAAAAANA4Fo2vY5tttolvfetb8a1vfSsiIpYtWxbvvvtuLFy4MJYvXx5r1qyJdu3aRdeuXWPzzTePfv36xXbbbZfevRwAAAAAAAAAaBiZPQAAAAAAAEDDWDS+ET179ozdd989dt9993y3AgAAAAAAAABFRWYPAAAAAAAAkJ12+W4AAAAAAAAAAAAAAAAAAACAhvOkcQAAAAAAgAJVk+8GAAAAAAAAAKBIyeyB1saTxgEAAAAAAAAAAAAAAAAAAAqYReMAAAAAAAAAAAAAAAAAAAAFzKJxAAAAAAAAAAAAAAAAAACAAmbROAAAAAAAAAAAAAAAAAAAQAHrkO8GAAAAAAAAaJiaVL47AAAAAAAAAIDiJLMHWhtPGgcAAAAAAAAAAAAAAAAAAChgFo0DAAAAAAAAAAAAAAAAAAAUMIvGAQAAAAAAAAAAAAAAAAAACphF4wAAAAAAAAAAAAAAAAAAAAWsQ74bAAAAAAAAoGFqIpXvFgAAAAAAAACgKMnsgdbGk8YBAAAAAAAAAAAAAAAAAAAKmEXjAAAAAAAAAAAAAAAAAAAABcyicQAAAAAAAAAAAAAAAAAAgALWId8NAAAAAAAA0DBJvhsAAAAAAAAAgCIlswdaG08aBwAAAAAAAAAAAAAAAAAAKGAWjQMAAAAAAAAAAAAAAAAAABQwi8YBAAAAAAAAAAAAAAAAAAAKmEXjAAAAAAAAAAAAAAAAAAAABaxDvhsAAAAAAACgYWpS+e4AAAAAAAAAAIqTzB5obTxpHAAAAAAAAAAAAAAAAAAAoIBZNA4AAAAAAAAAAAAAAAAAAFDAOuS7ASg6lRX57qBwVFbmu4PCscb3VS6Siqp8t1AwkorqfLdQMBL/Gmatao19i7JVXeWzylZVjc8qWxX2DsvJmnapfLdQMCp9VFmrSCX5bqFgVERNvlsoGJU+q6xVJT6rXFTW+DN0tip8VgAAUBhk9tmT2edGbp81mX32ZPbZk9lnT2afPZl99mT2uZHbZ09mnz2ZffZk9tmT2WdPZp89mX1uZPbZk9kDwGf8XwcAAAAAAAAAAAAAAAAAAIAC5knjAAAAAAAABcqzGAAAAAAAAAAgP2T2QGvjSeMAAAAAAAAAAAAAAAAAAAAFzKJxAAAAAAAAAAAAAAAAAACAAmbROAAAAAAAAAAAAAAAAAAAQAGzaBwAAAAAAAAAAAAAAAAAAKCAdch3AwAAAAAAADRMku8GAAAAAAAAAKBIyeyB1saTxgEAAAAAAAAAAAAAAAAAAAqYReMAAAAAAAAAAAAAAAAAAAAFzKJxAAAAAAAAAAAAAAAAAACAAmbROAAAAAAAAAAAAAAAAAAAQAHrkO8GAAAAAAAAaJiaVL47AAAAAAAAAIDiJLMHWhtPGgcAAAAAAAAAAAAAAAAAAChgFo0DAAAAAAAAAAAAAAAAAAAUMIvGAQAAAAAAAAAAAAAAAAAACliHfDcAAAAAAABAw9TkuwEAAAAAAAAAKFIye6C18aRxAAAAAAAAAAAAAAAAAACAAmbROAAAAAAAAAAAAAAAAAAAQAGzaBwAAAAAAAAAAAAAAAAAAKCAWTQOAAAAAAAAAAAAAAAAAABQwDrkuwGK15w5c+Kll16Kjz/+OGpqamKLLbaILbbYIr70pS/FFltske/2AAAAAACg1avJdwMAQMGS2QMAAAAAQOPI7IHWxqJxcvL888/HW2+9FR988EG0b98++vTpE3vvvXeUlpZmdf3y5cvj5z//efz617+ODz/8sN5zUqlU7LnnnvG1r30tzj333OjUqVNT3gIAAAAAAAAAFCSZPQAAAAAAALA+Fo2zUcuXL4+rrroq7rrrrli8eHG95wwePDiuuOKKOPbYY9c7zrPPPhunnnpqLFiwIJIkWe95SZLE7Nmz46WXXoqf//zncfPNN8cxxxzT2NsAAAAAAAAAgIIjswcAAAAAAACy0S7fDdC6/e1vf4tBgwbFz3/+8/joo48iSZJ6X7NmzYoTTjghvv71r0dlZWXGOI8//ngceuih6fA5lUpt8BXxWRD9/vvvxwknnBA333xzS986AAAAAAAAAOSVzB4AAAAAAADIlkXjrNcTTzwRRx11VCxatCir0DhJkrjnnnvi+OOPrzPOW2+9FSeeeGKsXr06IiIdMG/I2uPW1NTE+eefH3fddVez3CcAAAAAAAAAtDYyewAAAAAAACAXFo1Tr/fffz9OOumkKC8vr7OT+IbUhtCPPvr/2LvzeKnrsn/818A5gBwQFBQBbxQhk8QFJRRcUrG0NNOAMjeolCzLzO77zi1bXG4ty+9Py1QyQdwldwUVFywBFVHMfUEQRQXZ97PN748eTA5z4MzMWebMmefTxzxu3u/zeV+faybuUl5en3koLr/88tT+97///VizZk1ajc09/Xzjq666P/nJT+LDDz9svDcJAAAAAABFLpkozRcAtHYyewAAAAAAaPkKnZ3L7IFNGRqnTj/84Q9j5cqVGcHzxoC4oqIievbsGe3atUsLjTeGxRdffHEsWbIknn766Xj66aczwufDDz88/va3v8Xbb78dK1eujHXr1sX7778ff//73+OEE06INm0yf2uuWLEifvnLXzbtGwcAAAAAAACAApPZAwAAAAAAALkqK3QDtDxz5syJBx98MCM03m677eLcc8+NUaNGRe/evdOuv+GGG+K6666L6urqiIhYu3ZtXHfddfH666+n1ejatWvceuutceSRR2bcd8cdd4wdd9wxjjvuuDj33HPjm9/8Zrz99tupp6Ynk8m444474g9/+ENss802TfgJZJoxY0aj1dq70SoBAAAAAAAA0NrI7DPJ7AEAAAAAAKB+hsbJMG7cuNSvk8lkJBKJGDRoUEyePDm23377jOv32muvuOqqq+Lb3/52fP3rX48VK1ZERMTtt98eCxcuTNWpqKiIp59+OgYOHFhvD7vvvnvMmDEjhgwZEu+9915qf/369XHrrbfGGWec0dC3mZNhw4Y1Wq21d/9fo9UCAAAAAAAAoHWR2WeS2QMAAAAAAED92hS6AVqe++67L+2J5dtss0088MADdYbPn3XAAQfEjTfeGMlkMiIiXn311Vi2bFlERCQSifjd736XVfi80bbbbhu33XZbqt5G//znP7OuAQAAAAAAAADFRGYPAAAAAAAA5MPQOGk+/vjj+PDDDyPiP08sP/vss6NXr15Znf/GN74RBx98cEZo3LNnzzjttNNy7ueLX/xifPWrX031kkwm47nnnsu5DgAAAAAAtEa1JfoCgNZKZg8AAAAAAMWj0Nm5zB7YlKFx0syePTtjb8yYMTnVGD16dOrXG4Pjo48+OsrKyvLqadSoUWnrefPmxYYNG/KqBQAAAAAAAAAtlcweAAAAAAAAyFd+iSCt1qJFi9LWO+64Y9ZPLN9o//33z9gbNmxY3j3VdXbp0qXRs2fPvGvmavr06Y1X7ONpjVcLAAAAAAAAgFZDZl83mT0AAAAAAADUz9A4aZYvX576dSKRiN69e+dcY8cdd8zY69GjR9497bDDDhl7y5cvb9YAeujQoY1Wa909AmgAAAAAAAAAMsns6yazBwAAAAAAgPq1KXQDtCxr165NW3fq1CnnGh07dszYy6fORhUVFRl769aty7seAAAAAAAAALREMnsAAAAAAAAgX75pnDSfDYqTyWSsWLEi5xorV67M2Pvs09BzVVcPnTt3zrseAAAAAAC0FrWFbgAAaFQyewAAAAAAKB4ye6Cl8U3jpOnatWva+r333su5xty5czP23n///Xxbivnz52fsbdonAAAAAAAAABQ7mT0AAAAAAACQL0PjpOnZs2faesmSJfHaa6/lVOPpp5/Oai9b//jHP9LWbdu2jW233TbvegAAAAAAAADQEsnsAQAAAAAAgHwZGifN4MGDM/auu+66rM8nk8kYN25cJBKJiIhIJBKRTCbjwQcfjKVLl+bV0/jx49PWX/jCF6Jt27Z51QIAAAAAAACAlkpmDwAAAAAAAOTL0Dhpttlmm+jfv39E/Cc8vvbaa2PWrFlZnb/iiivijTfeiIh/h9HJZDIiItauXRsXXXRRzv3ceeed8dJLL6V6SSQSsd9+++VcBwAAAAAAAABaOpk9AAAAAAAAkC9D42QYOXJkKjhOJBJRVVUVX/va12L69OlbPHf11VfHueeem3pi+a677hpf/OIXI+LfYfRVV10Vt9xyS9Z9zJkzJ8aOHZuqt9Hw4cNzeTsAAAAAANBqJUv0BQCtmcweAAAAAACKQ6Gzc5k9sClD42Q47bTT0kLfRCIRn376aRx88MExcuTIuO2222LOnDnx7rvvxnPPPRd/+tOf4otf/GKcddZZUVtbmwqvR44cGd/4xjdSNZLJZIwePTrOP//8WLNmzWbvn0wmY8KECXHwwQfHypUr03623XbbxTe/+c0meNcAAAAAAAAAUHgyewAAAAAAACAfZYVugJanb9++MWbMmLjxxhtTQXQikYja2tq455574p577sk489mnnCeTyejQoUOceeaZERFx8cUXx4YNG1I1Lrvssrj++uvjmGOOiQMPPDB69OgR5eXlsXjx4njhhRfi/vvvj7lz50YymUzdf+Ovx44dG2VlftsCAAAAAAAA0DrJ7AEAAAAAAIB8SPKo0x//+MeYMmVKfPzxx6m9jeHy5mz8eSKRiF/96lex/fbbR0TEj3/847jiiisikUikrlmyZEmMHz8+xo8fn1Hns2H2Z2vvuuuucd555zXSOwQAAAAAAACAlklmDwAAAAAAAOSqTaEboGXq0qVLTJ48Obp165a2vzFEruu10XHHHRf/+7//m1pffPHFMXDgwLRgeWMQXddr03rJZDK22mqrmDhxYnTo0KGJ3zkAAAAAABSP2kRpvgCgtZPZAwAAAABAy1fo7FxmD2zK0Dibteeee8YTTzyRCo+39MTyjT8//fTT44477kj7Wbt27WLKlCmx6667ptWoL8jeWHebbbaJRx55JAYPHty4bxAAAAAAAAAAWiiZPQAAAAAAAJALQ+Ns0cCBA2P27Nlx9dVXx+DBg+t8ynibNm3iq1/9ajz55JNxzTXXRNu2bTPq9OrVK2bMmBGjRo2qN8yO+E+gffTRR8fMmTPjgAMOaKq3CAAAAAAAAAAtksweAAAAAAAAyFZZoRug5Wvbtm2cccYZccYZZ8RHH30U77zzTnzyySeRTCajR48ese+++0ZFRUW9dbbZZpu444474qyzzoqrr746HnvssViyZEnGdf37948jjzwyvvOd78TQoUOb4i0BAAAAAAAAQFGQ2QMAAAAAAADZMDROTnr27Bk9e/ZsUI2hQ4emguX3338/Fi9eHNXV1dG9e/fYfvvto3Pnzo3RKgAAAAAAAAC0KjJ7AAAAAAAAYHMMjVNQffr0iT59+hS6DQAAAAAAKEq1hW4AAChqMnsAAAAAAMifzB5oadoUugEAAAAAAAAAAAAAAAAAAADyZ2gcAAAAAAAAAAAAAAAAAACgiBkaBwAAAAAAAAAAAAAAAAAAKGKGxgEAAAAAAAAAAAAAAAAAAIpYWaEbAAAAAAAAID+1hW4AAAAAAAAAAEqUzB5oaQyNAwAAAAAAABTAggUL4vnnn4/58+fHmjVrokOHDrHDDjvErrvuGnvttVe0b9++0C0CAAAAAAAAQKvUGjN7Q+MAAAAAAABASdp5551j/vz5eZ19++23o3///jmfq62tjZtvvjmuuuqqeOGFFzZ7XXl5eQwbNizOPffcOOKII/LqEQAAAAAAAABaKpl942tT6AYAAAAAAAAASsG8efPigAMOiNGjR28xfI6IqKqqimnTpsWTTz7ZTN0BAAAAAAAAQOtVCpm9bxoHAAAAAAAASl4ikYg2bbJ/5nYikcip/quvvhqHH354fPzxx6m9Nm3axNChQ2PgwIGx/fbbx9q1a2P+/Pnx7LPPxoIFC3KqDwAAAAAAAADFSmbfOAyNAwAAAAAAFKlkoRuAVuSUU06J8ePHN0ntxYsXx5FHHpkWPp900klx+eWXR69eveo88+KLL8aECRNi6623bpKeAAAAAAAAgIaR2UPjkdk3DkPjAAAAAAAAAE3orLPOig8++CC1/n//7//FT3/60y2eGTRoUAwaNKipWwMAAAAAAACAVq2UMntD49DcqioL3UHRSFZuKHQLRSNZVVXoFopKsqq60C0UjeT6mkK3UDRq1he6g+JRU9Wm0C0UjerqtoVuoWhU1vqsslWVSBS6haJS5ePK2gafVdYqPVs0a1VRW+gWiobPKnuVSf9MmIuqpH8uzFa131sAbMZjjz0Wt956a2o9duzYesNnAJqQzD5rMvvcyO2zJ7PPnsw+ezL77Mnssyezz57MPjdy++zJ7LMns8+ezD57cujs+ayyJ7PPjcw+ezJ7ADan1DJ7f/oHAAAAAAAA0EQuv/zy1K+33nrruOSSSwrYDQAAAAAAAACUjlLL7A2NAwAAAAAAADSB9957L5544onU+pvf/GZ07969gB0BAAAAAAAAQGkoxcy+rNANAAAAAAAAkJ/aRKE7ALbk9ttvj2QymVqPGDGigN0AAAAAAAAAjUlmDy1bKWb2hsYBAAAAAACANK+99lq88sorsXDhwli9enV06NAhtttuuxgwYEAMGjQoysvLC91iUZg5c2baet999y1QJwAAAAAAAAAUC5l94yjFzN7QOAAAAAAAABTI3Llz44UXXkh7LVu2LOO6J598Mg455JAm7WXBggVx1VVXxa233hoLFy7c7HWdO3eOY445Js4888wYMmRIk/bUnObMmRPHH398vPDCC7Fo0aKIiOjWrVv07ds3Dj744Dj22GNjr732yqnmrFmzUr/eZpttomfPnhER8dFHH8VNN90U9913X8ybNy9WrlwZ3bt3j379+sWXv/zlOOmkk2LHHXdsvDcHAAAAAAAAQAaZfcshs28cieRnv1sdaHLr7vxtoVsoGskliwvdQtFILsn8mxE2r/bTFYVuoWjUfLK60C0UjcpFtYVuoWisXdKu0C0UjVUrOhS6haKxbJ3PKltLw1PlcrGkrE2hWygai9sWuoPisTRRU+gWisbSqCp0C0VjabKy0C0UjaU1awvdQlFZVu3zytbyKv8Mna35S14udAutyu92OqnQLRTE/86/udAt5OW9996LWbNm1Rs216UpA+ja2tq47LLL4uKLL45169bldPbkk0+Oq6++Orp06dIkvTW1nXfeOebPn5/19V/96lfjqquuiv79+9d77YoVK6Jr166p9W677Ravv/56/PWvf42f/exnsXr15v+3o0OHDnH22WfHb3/722jb1j9wATQmmX32ZPa5kdtnT2afPZl99mT22ZPZZ09mnz2ZfW7k9tmT2WdPZp89mX32ZPbZk9lnT2afG5l99mT22ZPZNy6ZfXGR2bc8MvvG55vGAQAAAAAAipR/Jb64DBo0KFasaFkDMuvWrYtRo0bFQw89lNf5iRMnxsyZM+ORRx6Jvn37NnJ3Lc/kyZNj8ODBccstt8RRRx21xWuXLl2atu7cuXNceumlcf7559d7n/Xr18ell14ac+bMibvvvjvatTPUAQAAAAAAAC2NzL64yOyLn8y+fh6/BgAAAAAAACWopqYmRowYsdnwuby8PPbaa68YPnx4DBkyJDp16lTndW+//XYcdthh8dFHHzVlu02md+/e8aMf/SjuvvvueOedd2LVqlVRWVkZH330UUyePDl+8IMfRPv27VPXr1ixIkaOHBnPPvvsFutu+i8bvPnmm3HBBRdERET79u3jF7/4RcyZMyfWrFkTy5cvj3/+859xyimnRCKRSJ156KGH4n//938b8d0CAAAAAAAA0BLI7P9NZt+4DI0DAAAAAABACbrwwgtj8uTJGftdu3aNK6+8MhYvXhwvvfRSTJ06NZ599tlYunRpTJo0KXbdddeMM/PmzYvvfOc7UVNT0xytN5obbrgh5s2bF3/+85/juOOOi379+kWnTp2ivLw8dthhhzjyyCPj2muvjVdeeSX22GOP1Ln169fH8ccfH5WVlZutvXr16rT1ypUrI5lMxtZbbx3Tpk2Lyy67LPbcc8/o2LFjdOnSJQ444ICYMGFC3HzzzdGmzX9i3P/v//v/4sUXX2z8Nw8AAAAAAABAwcjsZfZNwdA4AAAAAAAAFEifPn3iuOOOi0suuSSmTJkSs2bNapb7zpkzJy6//PKM/b59+8YLL7wQZ511VnTp0iXtZ+Xl5TFixIiYPXt2HHHEERlnp02bFtdee21Ofey8886RSCSa7HXFFVds8f7Dhw+PsrKyevvs379/TJ06Nfr06ZPamzdvXvz1r3/d7JnPPun8s6666qrYb7/9NnvuhBNOiDPPPDNtr773AQAAAAAAAEDuZPYy+00Ve2ZvaBwAAAAAAACawcaw+eKLL47JkyfH4sWLY/78+XH33XfHeeedF0cccUR069atWXr5+c9/nvGE8YqKinj44Ydjl1122eLZioqKuPvuu2P33XfP+NmFF16Y8bTu1mL77bfPCO1vv/32zV7fqVOnjL2ddtopTj755Hrvdc4550S7du1S64cffjhqa2tz6BYAAAAAAACAz5LZFzeZfXYMjQMAAAAAABSpZIm+itXLL78cd999d5x//vlx5JFHRvfu3QvSx6xZs+Lxxx/P2P/lL38Zu+22W1Y1OnbsGOPGjcvYX7p0aVx//fUN7rGlGjlyZGy99dap9YwZM2Lt2rV1Xtu5c+eMvaOOOiratKk/ou3Ro0cMGTIktV6+fHm89tpreXQMAAAAAAAANJVCZ+cy+9zI7IufzL5+9X9vOwAAAAAAANBq1BUQd+vWLX7yk5/kVGfo0KFxxBFHxCOPPJK2P27cuDj77LOzqjFp0qRYv359TvfNRd++fRu1XllZWXzxi19MBfjV1dWxcOHC6N+/f8a1PXr0iPLy8qiqqkrtDRw4MOt77bHHHvHPf/4ztf7www9zOg8AAAAAAABAyyOzz5/Mvn6GxgEAAAAAAKBEVFdXx6RJkzL2TzzxxOjYsWPO9U477bSMAPqNN96I2bNnxz777FPv+cGDB+d8z0Lbfvvt09affvppnQF0eXl59O/fP15//fXU3jbbbJP1fTa9dunSpTl2CgAAAAAAAEBLIrNvOJn9ltX/PeoAAAAAAABAqzBz5sxYtmxZxv6IESPyqnfUUUfFVlttlbE/efLkvOoVg7Vr16atO3TosNlrd99997T1hg0bsr7Pptdu6T4AAAAAAAAAtHwy+4aT2W+ZoXEAAAAAAAAoEU8++WTGXseOHWPo0KF51evQoUMMGzYsY/+JJ57Iq14xmDt3btp606eYf9aXvvSltPWHH36Y9X0++OCDtPV2222X9VkAAAAAAAAAWh6ZfcPJ7LfM0DgAAAAAAECRqo1kSb7I3/PPP5+xN2jQoCgvL8+75pAhQzL2Zs+enXe9lmzBggXxyiuvpNbbb7999OzZc7PXH3vssZFIJFLrZ555Jqv7JJPJmDFjRmrdtm3b2HPPPfPoGAAAAAAAAGgqhc7OZfbFR2bfMDL7+hkaBwAAAAAAgBLx8ssvZ+wNHDiwQTXrCkaXL18e8+fPb1Ddluiiiy6KZPI//xLEV77ylbSAeVM77rhjHHDAAan1o48+mvE08ro8+uij8f7776fWQ4YMia233jrPrgEAAAAAAABoCWT2DSOzr5+hcQAAAAAAACgBlZWVsWDBgoz9/v37N6huv3796tyfO3dug+o2pcrKynjzzTdzOvO3v/0txo0bl1onEok466yz6j33m9/8JvXr6urq+OEPfxi1tbWbvX716tXx05/+NG3vzDPPzKlXAAAAAAAAAFoWmf1/yOybTlmhGwAAAAAAAIBczJgxo9FqDR06tNFqtXQLFiyoM/js3bt3g+pu7vy8efMaVLcprV27NnbfffcYNWpUfPe7343DDjssysrqjk4//vjjuOiii+Kaa65J2z/llFNi3333rfdehx12WBx11FHx0EMPRUTEgw8+GCeccEJcc801se2226Zd++6778aJJ56YFo5/8YtfjG9961u5vkUAAAAAAACAJiGzz4/M/j9k9k3H0DgAAAAAAABFZdiwYY1WK5lMNlqtlm7x4sV17vfo0aNBdTd3fnP3aylqamri9ttvj9tvvz223nrr2HvvvWPAgAGxzTbbRLt27WLp0qUxZ86cePbZZ6OysjLt7EEHHRTXXXdd1ve66aabYtiwYalg+Y477oiHH344jjzyyPjc5z4XVVVV8a9//SueeOKJtHttt912MWnSpGjTpk3jvGkAAAAAAACABpLZ50dmn05m3zQMjQMAAAAAABSpzOdPw+YtXbq0zv0uXbo0qG7btm2joqIi1qxZk7a/ZMmSBtVtTitXroynn346nn766Xqv/dGPfhRXXHFFtG/fPuv62267bUyZMiVGjhwZL7zwQkRErFq1Ku66667Nntltt93iwQcfjD59+mR9HwAAAAAAAKD5yOzJhcx+82T2jad4xtsBAAAAAACAvK1evbrO/U6dOjW4dkVFRcbepoF0S9KxY8c477zzYtiwYVkFyZ06dYqTTjopnn/++fjzn/8cW221Vc733HnnnWPGjBlx6aWXxk477bTZ63r16hW/+93vYvbs2dGvX7+c7wMAAAAAAABAyyOz/w+ZfdPxTeMAAAAAAABQAqqqqurcLytreGRYXl6esVdZWdnguk2lXbt2cckll0RERHV1dbz55pvx7rvvxgcffBArV66M6urq6NKlS2yzzTax++67x5577hlt27Zt8H3Ly8vj3HPPjXPOOSeef/75eOutt+Kjjz6KRCIR2223Xey9996x1157Nfg+AAAAAAAAALQsMvv/kNk3HUPjAAAAAAAAFJXp06cXuoWiVFNTU+d+YwSrddWorq5ucN3mUFZWFrvvvnvsvvvuzXbPRCIRQ4YMiSFDhjTbPQEAAAAAAAAag8w+PzL7usnsG5ehcQAAAAAAAIrK0KFDC91CUdrc08kbIyiuq0ZdTzIHAAAAAAAAoLjJ7PMjs6c5GBoHAAAAAAAoUslCN0BRad++fZ37lZWVDa5dV43N3Q8AAAAAAACgNZDZkwuZPc2hTaEbAAAAAAAAAJpe586d69xftWpVg2vXVWPrrbducF0AAAAAAAAAaA1k9jQHQ+MAAAAAAABQArp161bn/vLlyxtUd/369bFhw4as7wcAAAAAAAAApUZmT3MwNA4AAAAAAAAlYIcddqhz/+OPP25Q3c2d39z9AAAAAAAAAKDUyOxpDmWFbgAAAAAAAID81Ba6AYpKr169on379hlPGH///fcbVHdz5/v27dugugAAAAAAAAAtmcyeXMjsaQ6+aRwAAAAAAABKQCKRiH79+mXsv/XWWw2q+/bbb9e5379//wbVBQAAAAAAAIDWQmZPczA0DgAAAAAAACVi0KBBGXtz5sxpUM0XX3wxY2/HHXeM7t27N6guAAAAAAAAALQmMnuamqFxAAAAAAAAKBH77bdfxt5rr70WK1asyLvmjBkzsroPAAAAAAAAAJQymT1NzdA4AAAAAAAAlIjDDz88Y6+mpiamTp2aV71FixbV+dTyuu4DAAAAAAAAAKVMZk9TMzQOAAAAAABQpGoTpfkifwMGDIh+/fpl7N9xxx151bvzzjsjmUym7SUSiTj66KPzqgcAAAAAAABQLAqdncvsi4/MnqZmaBwAAAAAAABKyEknnZSxd++998aCBQtyqpNMJuPPf/5zxv4hhxwSO+64Y979AQAAAAAAAEBrJbOnKRkaBwAAAAAAgBIyduzYaNeuXdpeVVVVXHDBBTnVufHGG+ONN97I2P/xj3/coP4AAAAAAAAAoLWS2dOUDI0DAAAAAABACenVq1d873vfy9i/6aab4q677sqqxltvvRVnn312xv7AgQPj2GOPbWiLAAAAAAAAANAqyexpSobGAQAAAAAAoMRcdNFFse2222bsn3zyyXHbbbdt8eyLL74Yw4cPjxUrVmT87Kqrroo2bUSQAAAAAAAAALA5Mnuaiv/0AQAAAAAAilRtJEvyVazmzZsXiURii6++ffvWefbQQw+t9+y8efOy7qV79+5xww03ZOxv2LAhTjjhhPja174W9913X3zyySdRU1MTy5cvj2nTpsXYsWNjv/32iw8++CDj7M9+9rM49NBDs+4BAAAAAAAAoJgVOjuX2edGZk8pKCt0AwAAAAAAAEDzO/bYY+PSSy+N8847L+NnkydPjsmTJ2dd6+ijj47LL7+8MdsDAAAAAAAAgFZLZk9T8E3jAAAAAAAAUKLOPffcuPLKK6Nt27Z51zjppJNi0qRJUV5e3oidAQAAAAAAAEDrJrOnsRkaBwAAAAAAgBJ21llnxTPPPBP77rtvTud69uwZEydOjIkTJ0b79u2bqDsAAAAAAAAAaL1k9jSmskI3AAAAAAAAAKWgZ8+eMWPGjCatn6/99tsvZs2aFVOnTo2bb745pk6dGh9++GHGdV27do2DDjooRo4cGd/+9rcFzwAAAAAAAAAUBZk9pcDQOAAAAAAAQJFKFroBctK+ffvYf//9C93GFh1++OFx+OGHR0TE8uXLY+HChbFmzZro0KFDdO/evUEhNwAAAAAAAEBrIrMvLjJ7SoGhcQAAAAAAACBD165do2vXroVuAwAAAAAAAABKjsyefLQpdAMAAAAAAAAAAAAAAAAAAADkz9A4AAAAAAAAAAAAAAAAAABAETM0DgAAAAAAAAAAAAAAAAAAUMTKCt0AAAAAAAAA+aktdAMAAAAAAAAAUKJk9kBL45vGAQAAAAAAAAAAAAAAAAAAipihcQAAAAAAAAAAAAAAAAAAgCJmaBwAAAAAAAAAAAAAAAAAAKCIGRoHAAAAAAAAAAAAAAAAAAAoYmWFbgAAAAAAAID81Eay0C0AAAAAAAAAQEmS2QMtjW8aBwAAAAAAAAAAAAAAAAAAKGKGxgEAAAAAAAAAAAAAAAAAAIqYoXEAAAAAAAAAAAAAAAAAAIAiVlboBgAAAAAAAMhPstANAAAAAAAAAECJktkDLY2hcWhulRsK3UHxqKwqdAfFo7K60B0Ul/V+b2UrWekfYbJVW5UodAtFo7qyTaFbKBpV1T6rbFUlfVbZqmrjv69yscHHlbUqf/SZNZ9V9nxW2atM1hS6haJRlawtdAtFpdrvraxV1vjzGQAAKAoy++zJ7HMjt8+ezD5rMvvsyeyzJ7PPnsw+ezL73Mjtsyezz55sNXs+q+z5rLIns8+ezD43MvvsyewB4N/8KQ0AAAAAAAAAAAAAAAAAAEARMzQOAAAAAAAAAAAAAAAAAABQxAyNAwAAAAAAAAAAAAAAAAAAFLGyQjcAAAAAAABAfmoL3QAAAAAAAAAAlCiZPdDS+KZxAAAAAAAAAAAAAAAAAACAImZoHAAAAAAAAAAAAAAAAAAAoIgZGgcAAAAAAAAAAAAAAAAAAChihsYBAAAAAAAAAAAAAAAAAACKWFmhGwAAAAAAACA/tZEsdAsAAAAAAAAAUJJk9kBL45vGAQAAAAAAAAAAAAAAAAAAipihcQAAAAAAAAAAAAAAAAAAgCJmaBwAAAAAAAAAAAAAAAAAAKCIGRoHAAAAAAAAAAAAAAAAAAAoYmWFbgAAAAAAAID8JAvdAAAAAAAAAACUKJk90NL4pnEAAAAAAAAAAAAAAAAAAIAiZmgcAAAAAAAAAAAAAAAAAACgiBkaBwAAAAAAAAAAAAAAAAAAKGKGxgEAAAAAAAAAAAAAAAAAAIpYWaEbAAAAAAAAID+1hW4AAAAAAAAAAEqUzB5oaXzTOAAAAAAAAAAAAAAAAAAAQBHzTeM0m1deeSWmTZsWM2fOjEWLFsWSJUti9erVse2220b37t1j5513jkMPPTQOPfTQ6Nq1a6HbBQAAAAAAAIBWQ2YPAAAAAAAArZuhcZpUVVVVTJgwIX73u9/Fu+++m/azZDIZERGJRCK19+c//znatGkTI0aMiAsvvDC+8IUvNGu/AAAAAAAAANBayOwBAAAAAACgdBgaJ0NtbW3885//TNvr1q1b7L777jnVmT17dowaNSrmzZuXCps3lUgkMn5WU1MTd911V0yaNCl++MMfxpVXXhllZX6rAgAAAADAppJR95+/AwDFS2YPAAAAAADFQWYPtDRSPTLMnDkzDjnkkLSnif/+97/PKYC+6aab4vTTT4/169dHRPqTyTdV18+SyWQkk8m45pprYs6cOfH3v/89tttuuxzeBQAAAAAAAAAUH5k9AAAAAAAAkI82hW6Aluehhx6KiP+EwB06dIjvfe97WZ+fMmVKfP/734/169dHIpHYYsD82ddnbTyXTCbjmWeeia9//etRWVnZsDcGAAAAAAAAAC2czB4AAAAAAADIh28aJ8NTTz0VEf95mviXv/zl6Nq1a1Zn33vvvTj++OOjpqYmI3jeGDJ36dIl9txzz+jWrVtUVFTEihUrYtGiRTFnzpzYsGFD2r03htDPP/98nHbaaTFhwoRGeIcAAAAAAAAA0DLJ7AEAAAAAAIB8GBonTXV1dbz44oup4DeRSMTXv/71rM//6le/ipUrV6aFz8lkMrbaaqsYM2ZMjB07Nvbaa686z1ZVVcXTTz8df/rTn+L+++9P7W/s5eabb45TTz01DjrooPzfIAAAAAAAAAC0UDJ7AAAAAAAAIF+Gxknz1ltvxfr169MC5GwD3zfffDNuvfXW1NmNTynfZ5994tZbb41dd911i+fLy8tj+PDhMXz48HjsscdizJgx8fHHH6d+nkwm41e/+lU88cQTub6tBpsxY0aj1dq70SoBAAAAAFDqagvdAADQqGT2dZPZAwAAAADQEsnsgZbG0Dhp3n333bR1RUVFvcHxRnfeeWfU1tamPfF8n332iSeeeCI6d+6cUx9f/vKX4/HHH4+DDz44lixZkqo5bdq0eP3112PAgAE51WuoYcOGNVqttRPPa7RaAAAAAAAAALQeMvu6yewBAAAAAACgfm0K3QAty4cffpi27tu3b9Znp06dmrZu165d3HHHHTmHzxvttttucc0116Sefr7Ro48+mlc9AAAAAAAAAGjJZPYAAAAAAABAvgyNk2bVqlWpXycSiejSpUtW55LJZMycOTPtieVjxoyJXXbZpUH9jBw5Mvbee++0EPqJJ55oUE0AAAAAAAAAaIlk9gAAAAAAAEC+DI2TprKyMm1dVlaW1bmlS5dGVVVV2t5xxx3XKD1trLMx3J47d26j1AUAAAAAAACAlkRmDwAAAAAAAOQru3SRklFRUZH6dTKZjEWLFmV17tNPP83Y22OPPRqlp03r1HWvpjZ9+vTGK/bug41XCwAAAACAklYbyfovAgCKhsy+bjJ7AAAAAABaIpk90NIYGifNdtttl7b++OOPszq3du3aemvlq3v37mnrpUuXNkrdXAwdOrTRaq0TQAMAAAAAAABQB5l93WT2AAAAAAAAUL82hW6AlmXXXXdNWy9btixee+21es916dIlY2/lypWN0tOqVavS1uXl5Y1SFwAAAAAAAABaEpk9AAAAAAAAkC9D46TZc889o0OHDml7DzzwQL3ndtppp2jXrl3a3rx58xqlp/feey9t3a1bt0apCwAAAAAAAAAticweAAAAAAAAyJehcdK0b98+DjzwwEgmk5FIJCKZTMZ1110XGzZs2OK5tm3bxv777x/JZDK198gjjzRKT1OmTEn9OpFIZDxZHQAAAAAAAABaA5k9AAAAAAAAkC9D42Q46aST0tbz58+Pyy67rN5zI0eOjIhIBdfXXnttrF+/vkG9vPHGGzFlypRUzYiI/fffv0E1AQAAAACgtUiW6AsAWjOZPQAAAAAAFIdCZ+cye2BThsbJ8K1vfSt69eoVEf8Jky+99NK45557tnjuu9/9bnTr1i21/uCDD+Kcc87Ju4/KysoYO3ZsVFdXp+0fffTRedcEAAAAAAAAgJZMZg8AAAAAAADkw9A4GTp06BC//vWvU08JTyQSUVVVFccff3zcdNNNmz1XUVERl112WSSTyVRwffXVV8cFF1yQqpWt1atXx6hRo+Kf//xnqlYikYg999wz9ttvvwa9PwAAAAAAAABoqWT2AAAAAAAAQD4MjVOnU089NQ4//PCMEPq73/1uHHHEEfHWW2/Vee773/9+nHDCCWkh9P/93//FQQcdFE899VS9962uro5bb7019thjj3jwwQczfn7xxRc36H0BAAAAAAAAQEsnswcAAAAAAAByVVboBmi5br755hg6dGjMmzcvIiIVKE+dOjUGDBgQw4YNixNPPDG+8pWvxC677JI6N378+Kiuro4777wzdWb69OkxfPjw2GWXXeKggw6KvffeO7bddtvo2LFjrFy5MhYtWhSzZs2KadOmxaeffpoWfG8Ms48//vg46qijCvFRAAAAAAAAAECzktkDAAAAAAAAuTA0zmZtv/328cgjj8Tw4cNjwYIFkUgkUoFwRMT06dNj+vTpERFRUVERe+yxR+y8887RuXPn2HHHHaN3797x4Ycfps4kk8l49913Y+7cuTFhwoQ67/nZ4PmzBg8eHOPGjWvCdwsAAAAAAMWnNpKFbgEAaCIyewAAAAAAaNlk9kBLY2icLerfv39Mnz49vvGNb8Ts2bNTIXTEf8LiiIjVq1fHzJkzY+bMmRk1Nj51/LPrzdk0eE4mk/GlL30p7r333ujYsWND3w4AAAAAAAAAFA2ZPQAAAAAAAJCtNoVugJavd+/eMWPGjPjv//7vaNu2bdqTxT/72vhk8s++NvrsetNzn3199vqysrI4//zzY+rUqdGlS5fmfdMAAAAAAAAA0ALI7AEAAAAAAIBsGBonK+Xl5fG73/0uXnrppfj6178eEZlPH99SoJytjU84HzVqVMyZMycuuuiiaNu2baO8BwAAAAAAAAAoRjJ7AAAAAAAAoD5lhW6A4vKFL3wh7rvvvnjzzTfj+uuvjzvvvDM+/PDDtGs+GzxvKYTeNMAeOHBgjBw5MkaPHh077bRT4zYOAAAAAACtUG2hGwAAmpXMHgAAAAAAWg6ZPdDSGBonL5///OfjD3/4Q/zhD3+If/3rX/HUU0/F7Nmz49VXX433338/Pv3006itzfyfvUQiEV26dInevXvHLrvsEgMGDIjBgwfHAQccED179izAOwEAAAAAAACA4iKzBwAAAAAAADZlaJwG22OPPWKPPfZI26upqYkVK1bEhg0borq6OsrLy6Ndu3bRpUuXaNu2bYE6BQAAAAAAAIDWRWYPAAAAAAAARBgap4m0bds2tt1220K3AQAAAAAAAAAlR2YPAAAAAAAApadNoRsAAAAAAAAAAAAAAAAAAAAgf75pHAAAAAAAoEglI1noFgAAAAAAAACgJMnsgZbGN40DAAAAAAAAAAAAAAAAAAAUMUPjAAAAAAAAAAAAAAAAAAAARczQOAAAAAAAAAAAAAAAAAAAQBEzNA4AAAAAAAAAAAAAAAAAAFDEygrdAAAAAAAAAPmpLXQDAAAAAAAAAFCiZPZAS+ObxgEAAAAAAAAAAAAAAAAAAIqYoXEAAAAAAAAAAAAAAAAAAIAiZmgcAAAAAAAAAAAAAAAAAACgiBkaBwAAAAAAAAAAAAAAAAAAKGJlhW4ASk5VVaE7KB6VlYXuoGgkN/iscpGsqil0C0WjtjJZ6BaKRvWGtoVuoWhUV/usslVV47PKVlUkCt1C0diQ8FnlosrHlTWfVfY2RG2hWygalUl/756tqqTfV9mq8vsqJ5W11YVuoWhU+71FgSTDn98AAOREZp89mX1O5PbZk9lnT2afPZl99mT22ZPZZ09mnxu5ffbk0NnzWWVPZp89mX32ZPbZk9nnRmafPZk9hSKzB1oa3zQOAAAAAAAAAAAAAAAAAABQxAyNAwAAAAAAAAAAAAAAAAAAFDFD4wAAAAAAAAAAAAAAAAAAAEXM0DgAAAAAAAAAAAAAAAAAAEARKyt0AwAAAAAAAOSnttANAAAAAAAAAECJktkDLY1vGgcAAAAAAAAAAAAAAAAAAChihsYBAAAAAAAAAAAAAAAAAACKWFmhGwAAAAAAAAAoJUuXLo1nnnkmPvjgg1i5cmX07Nkzdtlllxg2bFi0aeO53wAAAAAAAADQVFpzZm9oHAAAAAAAACg5hxxySEybNq3BdX71q1/Fr3/966yuffvtt+Occ86JBx98MCorKzN+3qtXrxg7dmyce+650a5duwb3BgAAAAAAAAAtkcy+aRgaBwAAAAAAKFK1yWShW4CS16lTp6yuu+WWW+IHP/hBrFmzZrPXLFy4MH7961/H/fffH3fffXfstNNOjdUmAAAAAAAA0Mhk9lB4Mvt0hsYBAAAAAACAktO2bdto27ZtzudqampSv04kEvHNb36z3jNTpkyJ0aNHp5393Oc+F4cddlhsu+228e6778YDDzwQ69ati4iI2bNnx9FHHx3Tp0+Pzp0759wjAAAAAAAAALRkMvumYWgcAAAAAAAAKDmPP/54zmfuueeetMD5oIMOil122WWLZz7++OM4/vjjU+FzIpGIK664Is4666xo06ZN6rrFixfHqFGjYtq0aRER8corr8Tpp58et9xyS859AgAAAAAAAEBLJrNvGm3qvwQAAAAAAACA8ePHp63HjBlT75lLLrkkVqxYkVr/5je/ibPPPjstfI6I2G677WLKlCkxYMCA1N5tt90Wc+bMaVDPAAAAAAAAANAayOzrZ2gcAAAAAACgSCVL9AWFsHjx4pg8eXJqXVFREaNGjdrimUWLFsW4ceNS6379+sU555yz2es7dOgQf/rTn1LrZDIZF110UQO6BgAAAAAAAJpKobNzmT2lRGafHUPjAAAAAAAAAPW49dZbo6qqKrUeMWJEdOrUaYtn7rvvvtiwYUNqPXbs2CgvL9/imcMOOyw+//nPp9YPP/xwrF27Ns+uAQAAAAAAAKD4yeyzY2gcAAAAAAAAoB7jx49PW48ZM6beM/fff3/aeuTIkVnd67NPQ1+3bl08+uijWZ0DAAAAAAAAgNZIZp8dQ+MAAAAAAAAAW/Dyyy/HSy+9lFrvtNNOccghh9R77h//+Efq1z169Ihddtklq/sNHTo0bf30009ndQ4AAAAAAAAAWhuZffbKCt0AAAAAAAAA0LK89tpr8corr8TChQtj9erV0aFDh9huu+1iwIABMWjQoCgvLy90i81qwoQJaetTTjklEonEFs989NFHsWLFitR60KBBWd9vn332SVu//vrrWZ8FAAAAAAAAoLjJ7NPJ7LNnaBwAAAAAAKBI1Uay0C3QQHPnzo0XXngh7bVs2bKM65588smsnpLdEAsWLIirrroqbr311li4cOFmr+vcuXMcc8wxceaZZ8aQIUOatKeWoLq6Om655ZbUOpFIxOjRo+s998Ybb6St+/Tpk/U9e/ToEe3atYvKyso6awEAAAAAAACFJ7MvfjL7lk9mnxtD4wAAAAAAANAM3nvvvZg1a1a9YXNzq62tjcsuuywuvvjiWLduXb3Xr1q1Km655Za45ZZb4uSTT46rr746unTp0gydFsaUKVPik08+Sa0PPPDA6NevX73nPvzww7T1jjvumPU9E4lE9O7dO957772IiPjggw+yPgsAAAAAAABAJpl9cZLZ58bQOAAAAAAAADSDQYMGxYoVKwrdRpp169bFqFGj4qGHHsrr/MSJE2PmzJnxyCOPRN++fRu5u5ZhwoQJaesxY8ZkdW7VqlVp686dO+d0389eX11dHRs2bIj27dvnVAMAAAAAAACAf5PZFyeZfW7aFLoBAAAAAAAAoPnV1NTEiBEjNhs+l5eXx1577RXDhw+PIUOGRKdOneq87u23347DDjssPvroo6ZstyCWLl0aDzzwQGrdsWPHGDVqVFZn16xZk7bu0KFDTvfe9PrVq1fndB4AAAAAAACAlktmXz+Zfe4MjQMAAAAAAEAJuvDCC2Py5MkZ+127do0rr7wyFi9eHC+99FJMnTo1nn322Vi6dGlMmjQpdt1114wz8+bNi+985ztRU1PTHK03m9tvvz02bNiQWo8YMSLrp4+vW7cubZ3rE8c3vX7TegAAAAAAAAAUL5l9/WT2uTM0DgAAAAAAUKSSJfpXa9KnT5847rjj4pJLLokpU6bErFmzmuW+c+bMicsvvzxjv2/fvvHCCy/EWWedFV26dEn7WXl5eYwYMSJmz54dRxxxRMbZadOmxbXXXptTHzvvvHMkEokme11xxRW5fTCbmDBhQtp6zJgxWZ/d9KnjlZWVOd37s8F3XfUAAAAAAACAwip0di6zbziZvcx+c4o1sy8rdAMAAAAAAABQCvr06RP9+/ePfffdN/bdd98YPHhwdO/ePe2aefPmNUsvP//5zzOeMF5RUREPP/xw7LLLLls8W1FREXfffXcMGTIkXn311bSfXXjhhTF69Ojo1KlTo/fc3F5//fV47rnnUuuddtopDj300KzPb/oZ5PrU8fXr12+xHgAAAAAAAADZk9kXF5l9fgyNAwAAAAAAQDN4+eWXC91CRETMmjUrHn/88Yz9X/7yl7HbbrtlVaNjx44xbty4GDZsWNr+0qVL4/rrr4+zzz67UXotpE2fWH7KKadEIpHI+vymgfHq1atzuv+qVatSvy4rKyuap5YDAAAAAAAAtEQy++Iis8+PoXEAAAAAAAAoIddff33GXrdu3eInP/lJTnWGDh0aRxxxRDzyyCNp++PGjcs6gJ40aVLG07kbU9++ffM6V1tbGzfffHPa3ujRo3Oq0bt377T1ggULsj6bTCbjww8/3GwtAAAAAAAAAIqTzL5+Mvv8GRoHAAAAAACAElFdXR2TJk3K2D/xxBOjY8eOOdc77bTTMgLoN954I2bPnh377LNPvecHDx6c8z2bw2OPPZYWAB944IHRr1+/nGps+gT4999/P+uzn3zySVRWVm62FgAAAAAAAADFR2afHZl9/toUugEAAAAAAADyU1uiL/I3c+bMWLZsWcb+iBEj8qp31FFHxVZbbZWxP3ny5LzqtRQTJkxIW48ZMybnGr169YouXbqk1i+++GLWZ2fPnp22HjBgQM73BwAAAAAAAJpWobNzmX3xkdlnR2afP0PjAAAAAAAAUCKefPLJjL2OHTvG0KFD86rXoUOHGDZsWMb+E088kVe9lmDlypVx7733ptYdO3aMb33rW3nVOvDAA1O//uSTT2Lu3LlZnZs+fXra+uCDD87r/gAAAAAAAAC0HDL7+snsG8bQOAAAAAAAAJSI559/PmNv0KBBUV5ennfNIUOGZOxt+tTtYnLHHXfEunXrUutvfvOb0blz57xqHXPMMWnru+66K6tzkyZNSv26Q4cO8ZWvfCWv+wMAAAAAAADQcsjs6yezbxhD4wAAAAAAAFAiXn755Yy9gQMHNqjmnnvumbG3fPnymD9/foPqFsqECRPS1mPGjMm71je+8Y1o165daj1u3Lioqqra4pknnngi3nzzzdT6a1/7WlRUVOTdAwAAAAAAAAAtg8y+fjL7hikrdAMAAAAAAACQixkzZjRaraFDhzZarZausrIyFixYkLHfv3//BtXt169fnftz586NnXbaqUG1m9s777wTzzzzTGrdp0+fOOyww/Ku16NHjzj11FPjmmuuiYiId999Ny677LL45S9/Wef169evj5/85CepdSKRiAsuuCDv+wMAAAAAAAA0Npl9fmT29ZPZN5yhcQAAAAAAgCJVG8lCt1AQw4YNa7RayWTpfIYLFiyI2trajP3evXs3qO7mzs+bN69BdQth0yeWn3LKKZFIJBpU8/zzz4+JEyfGqlWrIiLiV7/6VXTq1Cl++tOfRps2bVLXLV68OL71rW/Fa6+9ltr79re/HYMGDWrQ/QEAAAAAAICmIbNvOJm9zP6zZPYNZ2gcAAAAAAAASsDixYvr3O/Ro0eD6m7u/Obu11Ilk8mYOHFi2t6YMWMaXLdXr15x2223xTHHHBO1tbWRTCbj7LPPjr/85S8xfPjw2HbbbeOdd96JBx54INatW5c694UvfCGuu+66Bt8fAAAAAAAAgMKT2W+ZzL5xGBoHAAAAAACAErB06dI697t06dKgum3bto2KiopYs2ZN2v6SJUsaVLe5PfXUUzF//vzU+sADD4x+/fo1Su2jjjoqbrzxxvjhD38Ya9eujYiIt99+O95+++06r997773jnnvuia233rpR7g8AAAAAAABAYcnst0xm3zja1H8JAAAAAAAAUOxWr15d536nTp0aXLuioiJjb9NAuqWbMGFC2roxnlj+WaecckrMnj07jj322CgvL6/zmp49e8aFF14Yzz77bOy8886Nen8AAAAAAAAACkdmv2Uy+8bhm8YBAAAAAACKVDKShW6hIKZPn17oFopSVVVVnftlZQ2PDOsKVCsrKxtctzmNHz8+xo8f36T3+PznPx/33HNPLFmyJJ555pn44IMPYuXKlbHDDjvELrvsEgcccEC0bdu2SXsAAAAAAAAAGofMnlzI7LdMZt84DI0DAAAAAABQVIYOHVroFopSTU1NnfuNEXjWVaO6urrBdVurbt26xTHHHFPoNgAAAAAAAAByJrPPj8y+5WjNmX2bQjcAAAAAAAAANL3NPZ28MYLiumrU9SRzAAAAAAAAAChFMnuag6FxAAAAAAAAKAHt27evc7+ysrLBteuqsbn7AQAAAAAAAECpkdnTHAyNAwAAAAAAQAno3LlznfurVq1qcO26amy99dYNrgsAAAAAAAAArYHMnuZQ9/fZAwAAAAAA0OLVFroBikq3bt3q3F++fHmD6q5fvz42bNiQ9f0AAAAAAAAAWgOZPbmQ2dMcfNM4AAAAAAAAlIAddtihzv2PP/64QXU3d35z9wMAAAAAAACAUiOzpzkYGgcAAAAAAIAS0KtXr2jfvn3G/vvvv9+gups737dv3wbVBQAAAAAAAIDWQmZPczA0DgAAAAAAACUgkUhEv379MvbfeuutBtV9++2369zv379/g+oCAAAAAAAAQGshs6c5GBoHAAAAAACAEjFo0KCMvTlz5jSo5osvvpixt+OOO0b37t0bVBcAAAAAAAAAWhOZPU3N0DgAAAAAAECRSiaTJfkif/vtt1/G3muvvRYrVqzIu+aMGTOyug8AAAAAAABAa1Lo7FxmX3xk9jQ1Q+MAAAAAAABQIg4//PCMvZqampg6dWpe9RYtWlTnU8vrug8AAAAAAAAAlDKZPU3N0DgAAAAAAACUiAEDBkS/fv0y9u+444686t15550ZT5JPJBJx9NFH51UPAAAAAAAAAFormT1NzdA4AAAAAAAAlJCTTjopY+/ee++NBQsW5FQnmUzGn//854z9Qw45JHbccce8+wMAAAAAAACA1kpmT1MyNA4AAAAAAAAlZOzYsdGuXbu0vaqqqrjgggtyqnPjjTfGG2+8kbH/4x//uEH9AQAAAAAAAEBrJbOnKRkaBwAAAAAAKFK1kSzJFw3Tq1ev+N73vpexf9NNN8Vdd92VVY233norzj777Iz9gQMHxrHHHtvQFgEAAAAAAABavEJn5zL74iSzpykZGgcAAAAAAIASc9FFF8W2226bsX/yySfHbbfdtsWzL774YgwfPjxWrFiR8bOrrroq2rQRQQIAAAAAAADA5sjsaSr+0wcAAAAAAIBmMG/evEgkElt89e3bt86zhx56aL1n582bl3Uv3bt3jxtuuCFjf8OGDXHCCSfE1772tbjvvvvik08+iZqamli+fHlMmzYtxo4dG/vtt1988MEHGWd/9rOfxaGHHpp1DwAAAAAAAADQXGT2lIKyQjcAAAAAAAAANL9jjz02Lr300jjvvPMyfjZ58uSYPHly1rWOPvrouPzyyxuzPQAAAAAAAABotWT2NAXfNA4AAAAAAAAl6txzz40rr7wy2rZtm3eNk046KSZNmhTl5eWN2BkAAAAAAAAAtG4yexqboXEAAAAAAIAiVVuiLxrXWWedFc8880zsu+++OZ3r2bNnTJw4MSZOnBjt27dvou4AAAAAAAAAWqZCZ+cy+9ZBZk9jKit0AwAAAAAAAFAKevbsGTNmzGjS+vnab7/9YtasWTF16tS4+eabY+rUqfHhhx9mXNe1a9c46KCDYuTIkfHtb39b8AwAAAAAAABAUZDZUwoMjQMAAAAAAEAzaN++fey///6FbmOLDj/88Dj88MMjImL58uWxcOHCWLNmTXTo0CG6d+/eoJAbAAAAAAAAAApFZk8pMDQOzSy5YUOhWygaycrqQrdQPKp8VrlIVtYWuoWiUbu+0B0Uj5qqNoVuoWhUV/usslVZ67PK1oaEzypbVYlCd1BcqgrdQBHZEP4eK1tVkSx0C0Wjyu+rrFUm/XNhtqpqfVa5qPZ5Za26pqbQLQA0uq5du0bXrl0L3QYANCqZffZk9jmS22dNZp89mX32ZPbZk9lnT2afPZl9buT22ZPZZ09mnz2ZffZk9tmT2WdPZp8bmX32ZPZAaySzJx+GxgEAAAAAAIpU0r/cBgAAAAAAAAAFIbMHWhqP9gMAAAAAAAAAAAAAAAAAAChihsYBAAAAAAAAAAAAAAAAAACKmKFxAAAAAAAAAAAAAAAAAACAImZoHAAAAAAAAAAAAAAAAAAAoIiVFboBAAAAAAAA8lMbyUK3AAAAAAAAAAAlSWYPtDS+aRwAAAAAAAAAAAAAAAAAAKCIGRoHAAAAAAAAAAAAAAAAAAAoYobGAQAAAAAAAAAAAAAAAAAAipihcQAAAAAAAAAAAAAAAAAAgCJWVugGAAAAAAAAyE8ymSx0CwAAAAAAAABQkmT2QEvjm8YBAAAAAAAAAAAAAAAAAACKmKFxAAAAAAAAAAAAAAAAAACAImZoHAAAAAAAAAAAAAAAAAAAoIgZGgcAAAAAAAAAAAAAAAAAAChiZYVuAAAAAAAAgPzUFroBAAAAAAAAAChRMnugpfFN4wAAAAAAAAAAAAAAAAAAAEXM0DgAAAAAAAAAAAAAAAAAAEARKyt0A5SmVatWxYsvvpi2d/DBBxeoGwAAAAAAAAAoLXJ7AAAAAAAAaF0MjVMQr732WhxyyCGRSCQiIiKRSER1dXWBuwIAAAAAAACA0iC3BwAAAAAAgNbF0DgFl0wmC90CAAAAAAAUpWT4M3YAoOHk9gAAAAAAkDuZPdDStCl0AwAAAAAAAAAAAAAAAAAAAOTP0DgAAAAAAAAAAAAAAAAAAEARMzQOAAAAAAAAAAAAAAAAAABQxMoK3QAty29/+9tmuc8HH3yQ170POeSQOPjgg5uiJQAAAAAAAAAoOLk9AAAAAAAAkA9D46T59a9/HYlEotnul0wmU//3N7/5TVZnhM8AAAAAAPBvtZEsdAsAQCOT2wMAAAAAQHGQ2QMtjaFx6rQxFG5J92zOUBwAAAAAAAAACkluDwAAAAAAAOTC0Dh1ao6gd9OweUv3LEQY/lkzZsxotFp7NVolAAAAAAAAAForuf1/yOwBAAAAAACgfobGqdPGsLelPCW80H0MGzas0Wqt+cuZjVYLAAAAAAAAgNZJbv8fMnsAAAAAAACon6Fxtqg5nxRe6G8TBwAAAACAYuPP1gGg9ZPbAwAAAABAy+TP1YGWxtA4dUokEpFMJqNt27Zx+umnx//93/9Fp06dGq3+zJkzY9iwYan7JBKJqKmpabT6AAAAAAAAAFDM5PYAAAAAAABALtoUugFaloMOOij1hJNEIhG1tbVxzTXXxBe+8IW49957G+0+iUSi0WoBAAAAAAAAQGshtwcAAAAAAADy4ZvGSTNt2rS49tpr45xzzomVK1emnij+wQcfxIgRI+KYY46JP/3pT9G7d+9Ct9qspk+f3njF5tzeeLUAAAAAAAAAaFXk9plk9gAAAAAAAFA/Q+NkOP300+PrX/96nH766fHQQw+lni6eTCbj/vvvjyeeeCIuueSSOOOMM0rmyeNDhw5ttFprBdAAAAAAAAAAbIHcPp3MHgAAAAAAAOrXptAN0DL17t07Hnjggbj11luje/fukUwmU08vX7VqVfz0pz+NoUOHxssvv1zoVgEAAAAAoGTVRrIkXwBQCuT2AAAAAADQshU6O5fZA5syNM4WHX/88fH666/HiSeemAqgN4bQzz33XAwePDh+8YtfxLp16wrdKgAAAAAAAAC0OnJ7AAAAAAAAIBuGxqnXtttuGxMnToyHH344/uu//isthK6uro4rrrgi9thjj3j00UcL3SoAAAAAAAAAtDpyewAAAAAAAKA+hsbJ2pFHHhmvvvpqnHHGGZFIJCIiUk8vnzt3bnz1q1+NE088MRYtWlTgTgEAAAAAAACg9ZHbAwAAAAAAAJtjaJycVFRUxNVXXx1PP/10fP7zn097enkymYzbb789BgwYEDfccEOhWwUAAAAAAACAVkduDwAAAAAAANTF0Dh5GTZsWLz00ktx/vnnR1lZWUT85+nly5Yti7Fjx8aXvvSlePPNNwvcKQAAAAAAtF7JEv0LAJDbAwAAAABAoRU6O5fZA5syNE7e2rVrFxdddFHMmjUr9t1334ynl//jH/+IvffeO37zm99EVVVVodsFAAAAAAAAgFZFbg8AAAAAAABsZGicBttjjz1i5syZ8fvf/z622mqrVAgdEbFhw4b47W9/G3vttVc8/fTTBe4UAAAAAAAAAFofuT0AAAAAAABgaJxG0aZNm/j5z38eL7/8chx66KEZTy9/44034tBDD41TTz01li1bVuh2AQAAAAAAAKBVkdsDAAAAAABAaTM0TqPaZZdd4vHHH49x48ZFly5dMkLoG2+8MQYMGBB33XVXoVsFAAAAAAAAgFZHbg8AAAAAAAClydA4TeL73/9+vPbaa3HcccdFMpmMiEgF0IsWLYorr7yywB0CAAAAAEDxq00mS/IFANRPbg8AAAAAAE2r0Nm5zB7YlKFxmswOO+wQf//73+Ouu+6KHj16ZDy9HAAAAAAAAABoOnJ7AAAAAAAAKB2GxmlyI0aMiNdffz3GjBmT9vTyRCJR4M4AAAAAAAAAoPWT2wMAAAAAAEDrZ2icZtGlS5f429/+Fo899ljsvPPOkUwmUy8AAAAAAAAAoGnJ7QEAAAAAAKB1Kyt0A5SW4cOHxyuvvBLPP/+84BkAAAAAAAAAmpncHgAAAAAAAFonQ+M0u6222ioOPvjgQrcBAAAAAABFz5gXAJAPuT0AAAAAADSczB5oadoUugEAAAAAAAAAAAAAAAAAAADyZ2gcAAAAAAAAAAAAAAAAAACgiBkaBwAAAAAAAAAAAAAAAAAAKGJlhW4AAAAAAACA/NRGstAtAAAAAAAAAEBJktkDLY1vGgcAAAAAAAAAAAAAAAAAAChihsYBAAAAAAAAAAAAAAAAAACKmKFxAAAAAAAAAAAAAAAAAACAImZoHAAAAAAAAAAAAAAAAAAAoIiVFboBAAAAAAAA8lMbyUK3AAAAAAAAAAAlSWYPtDS+aRwAAAAAAAAAAAAAAAAAAKCIGRoHAAAAAAAAAAAAAAAAAAAoYmWFbgBKTlVVoTsoHj6rrCXX+6xyUbu+ptAtFI3aqkShWygaNVWexZOtquq2hW6haFQl/b7KVlUb/32VrQ1+W+VkQyJZ6BaKRlX4rLJVHbWFbqFobEj6rLJV7bPKWlXSPxPmwueVvcra6kK3AAAAZEMOnT2fVU7k9tmT2WdPZp89mX32ZPbZk9lnT2afG7l99mT22ZPZZ09mnz2ZffZk9tmTQefG55U9mT0A/Js/dgAAAAAAAAAAAAAAAAAAAChivmkcAAAAAACgSCWTvj0GAAAAAAAAAApBZg+0NL5pHAAAAAAAAAAAAAAAAAAAoIgZGgcAAAAAAAAAAAAAAAAAAChihsYBAAAAAAAAAAAAAAAAAACKmKFxAAAAAAAAAAAAAAAAAACAIlZW6AYAAAAAAADIT20kC90CAAAAAAAAAJQkmT3Q0vimcQAAAAAAAAAAAAAAAAAAgCJmaBwAAAAAAAAAAAAAAAAAAKCIGRoHAAAAAAAAAAAAAAAAAAAoYobGAQAAAAAAAAAAAAAAAAAAilhZoRsAAAAAAAAgP8lIFroFAAAAAAAAAChJMnugpfFN4wAAAAAAAAAAAAAAAAAAAEXM0DgAAAAAAAAAAAAAAAAAAEARMzQOAAAAAAAAAAAAAAAAAABQxMoK3QAAAAAAAAD5SSaThW4BAAAAAAAAAEqSzB5oaXzTOAAAAAAAAAAAAAAAAAAAQBEzNA4AAAAAAAAAAAAAAAAAAFDEDI0DAAAAAAAAAAAAAAAAAAAUMUPjAAAAAAAAAAAAAAAAAAAARays0A0AAAAAAACQn9pIFroFaFWqqqriX//6V7z88suxdOnSWLduXWy99dbRq1evGDx4cOy0006FbhEAAAAAAABoIWT20Lhk9g1naBwAAAAAAAAoaQsXLozLL788brrppli+fPlmr9t9993jjDPOiLFjx0bbtm0b7f5nnnlmXH311Wl7o0ePjvHjxzfaPQAAAAAAAACgJZLZN542hW4AAAAAAAAAoFDuu+++2H333eOqq67aYvgcEfHqq6/Gj370oxg2bFh89NFHjXL/mTNnxp///OdGqQUAAAAAAAAAxURm37h80zgAAAAAAABQkh599NEYNWpUVFVVpfbKysrisMMOiz322CMqKiri008/jenTp8dLL72Uuua5556L4cOHx8yZM2PrrbfO+/5VVVVx2mmnRW1tbUPeBgAAAAAAAAAUHZl94zM0DgAAAAAAAJScdevWxdixY9PC54MPPjgmTpwYffr0ybj+iSeeiJNOOin1tPLXX389fv3rX8cf//jHvHu47LLL4pVXXomIiJ49ezbak9ABAAAAAAAAoCWT2TeNNoVuAAAAAAAAgPwkk8mSfEFjeOCBB2L+/Pmp9ec+97l4+OGH6wyfIyIOO+ywmDx5cpSV/ee53DfccENUVlbmdf8333wzLrnkkoiI6NixY1x66aV51QEAAAAAAAAKo9DZucyeYiazbxqGxgEAAAAAAICSM3Xq1LT12WefHRUVFVs8s9dee8Vxxx2XWq9cuTKef/75nO+dTCbjtNNOiw0bNkRExIUXXhg777xzznUAAAAAAAAAoBjJ7JuGoXEAAAAAAACg5Hz44Ydp6/333z+rc0OHDk1bL1y4MOd7X3fddfGPf/wjIiIGDhwYZ599ds41AAAAAAAAAKBYyeybhqFxAAAAAAAAoOTU1tamrTt27JjVuU2vSyQSOd134cKFcc4556TOXnfddVFeXp5TDQAAAAAAAAAoZjL7pmFoHAAAAAAAACg5ffv2TVvPnz8/q3Pz5s1LW/fr1y+n+/74xz+OFStWRETEaaedFsOGDcvpPAAAAAAAAAAUO5l90ygrdAMAAAAAAADkpzaShW6BVuq1116LV155JRYuXBirV6+ODh06xHbbbRcDBgyIQYMGtYqnbB955JHxl7/8JbW+44474stf/vIWz1RXV8ekSZNS6//6r/+KvfbaK+t73n333XHPPfdERMT2228fl112WY5dAwAAAAAAAC2FzJ6mIrOvm8y+fobGAQAAAAAAoEDmzp0bL7zwQtpr2bJlGdc9+eSTccghhzRpLwsWLIirrroqbr311li4cOFmr+vcuXMcc8wxceaZZ8aQIUOatKemdNRRR8Wee+4ZL7/8ckREjB8/Pr7+9a/HN77xjTqvTyaT8fOf/zzeeeed1N6FF14Ybdq0yep+K1asiB//+Mep9R//+MfYZpttGvAOAAAAAAAAAGgImX3hyOybhqFxAAAAAAAAaAbvvfdezJo1q96wubnV1tbGZZddFhdffHGsW7eu3utXrVoVt9xyS9xyyy1x8sknx9VXXx1dunRphk4bV9u2beP222+Pgw46KJYsWRI1NTXxzW9+M0477bQYM2ZM7LHHHtGxY8dYsmRJTJ8+Pf74xz/GtGnTUudPPfXUOPXUU7O+3//8z//ERx99FBERhx9+eJx44omN/p4AAAAAAAAAqJvMvmWR2TcNQ+MAAAAAAADQDAYNGhQrVqwodBtp1q1bF6NGjYqHHnoor/MTJ06MmTNnxiOPPBJ9+/Zt5O6a3oABA+LZZ5+N73//+zFt2rSora2N6667Lq677rrNntl+++3jN7/5TZx++ulZ3+fpp5+Ov/71rxER0aFDh/jLX/7S4N4BAAAAAAAAyJ7MvuWR2Te+7L53HQAAAAAAAGhVampqYsSIEZsNn8vLy2OvvfaK4cOHx5AhQ6JTp051Xvf222/HYYcdlnoid7Hp169fPPXUU3HjjTfGNttss8VrBw0aFPfff39O4fOGDRti7NixkUwmIyLivPPOi/79+zeoZwAAAAAAAACKm8z+32T2jcvQOAAAAAAAQJFKluhfNI4LL7wwJk+enLHftWvXuPLKK2Px4sXx0ksvxdSpU+PZZ5+NpUuXxqRJk2LXXXfNODNv3rz4zne+EzU1Nc3ReqN644034itf+Up897vfjWXLlm3x2hdffDH233//OOqoo+KDDz7Iqv5FF10Ub775ZkREfP7zn49f/OIXDe4ZAAAAAAAAKLxCZ+cy++Ims/83mX3jMjQOAAAAAAAABdKnT5847rjj4pJLLokpU6bErFmzmuW+c+bMicsvvzxjv2/fvvHCCy/EWWedFV26dEn7WXl5eYwYMSJmz54dRxxxRMbZadOmxbXXXptTHzvvvHMkEokme11xxRVbvP9jjz0W++67bzz22GMREdGuXbv40Y9+FE8//XQsW7YsKisr46OPPor77rsvvvrVr6bOPfzww7HPPvvE66+/vsX6//rXv+J3v/tdan3ttddGu3btcvqMAAAAAAAAAGgaMnuZfWtTVugGAAAAAAAAoBT06dMn+vfvH/vuu2/su+++MXjw4OjevXvaNfPmzWuWXn7+859nPGG8oqIiHn744dhll122eLaioiLuvvvuGDJkSLz66qtpP7vwwgtj9OjR0alTp0bvubG9++67cdxxx8XatWsj4t9Pa58yZUrst99+adftsMMOccwxx8QxxxwT1157bfzwhz+MiIjFixfHMcccE3PmzImOHTtm1K+trY1TTz01qqqqIiJi9OjRccghhzTtmwIAAAAAAACgTjL7lkVm3zR80zgAAAAAAAA0g5dffjnuvvvuOP/88+PII4/MCJ+by6xZs+Lxxx/P2P/lL38Zu+22W1Y1OnbsGOPGjcvYX7p0aVx//fUN7rE5/OIXv4g1a9ak1tdff31G+Lyp008/PRVAR0S88847cc0119R57dVXXx3PPfdcRER069at3ieoAwAAAAAAANB0ZPYti8y+afimcQAAAAAAACghdQXE3bp1i5/85Cc51Rk6dGgcccQR8cgjj6Ttjxs3Ls4+++ysakyaNCnWr1+f031z0bdv3zr3V6xYEffee29q3a9fvxg5cmRWNc8555z4y1/+klpPnDgx/vu//zvtmnXr1sUFF1yQWv/+978v2L9wAAAAAAAAAEDLIbOX2TclQ+MAAAAAAABFqjaZLHQLFJnq6uqYNGlSxv6JJ54YHTt2zLneaaedlhFAv/HGGzF79uzYZ5996j0/ePDgnO/ZGJ5//vmoqalJrb/0pS9FIpHI6myfPn2ib9++8d5770VExCuvvBLr16+PDh06pK7ZsGFDrF69OrU+7bTT4rTTTtti3eQm//980003xc0335xajx49Om644YasegQAAAAAAACansyeXMns/01m33TaFLoBAAAAAAAAoHnMnDkzli1blrE/YsSIvOodddRRsdVWW2XsT548Oa96zWXRokVp6x122CGn85+9vra2NpYuXbrF62tqaup91dbWpp1JJpMZ1wAAAAAAAABQvGT2/yazbzqGxgEAAAAAAKBEPPnkkxl7HTt2jKFDh+ZVr0OHDjFs2LCM/SeeeCKves3ls08Yj4hYt25dTufXrl2btq6oqGhwTwAAAAAAAAC0bjL7f5PZNx1D4wAAAAAAAFAinn/++Yy9QYMGRXl5ed41hwwZkrE3e/bsvOs1h+233z5t/frrr2d9tqqqKt55553Uun379tGlS5e0a7p27RrJZDKn16b/csDo0aPTfj5+/Pjc3ygAAAAAAAAALYbM/t9k9k3H0DgAAAAAAECRSpboX+Tv5ZdfztgbOHBgg2ruueeeGXvLly+P+fPnN6huU9p7772jXbt2qfVTTz0VH3/8cVZn77vvvlizZk1qvf/++zd6fwAAAAAAAEDLV+jsXGZffGT2/yazbzqGxgEAAAAAAKAEVFZWxoIFCzL2+/fv36C6/fr1q3N/7ty5DarblDp16hSHHnpoar1+/fo488wz6z23ZMmS+J//+Z+0vWOOOabR+wMAAAAAAACgdZHZ/4fMvumUFboBAAAAAAAAyMWMGTMardbQoUMbrVZLt2DBgqitrc3Y7927d4Pqbu78vHnzGlS3qV144YXxyCOPpNZ33XVXjBo1Kq6++urYYYcdMq5/7rnnYvTo0Wnvq0ePHvGDH/ygOdoFAAAAAAAAaBFk9vmR2aeT2TcNQ+MAAAAAAAAUlWHDhjVarWQy2Wi1WrrFixfXud+jR48G1d3c+c3dr6UYNmxYnHfeeXHppZem9iZNmhQPPPBAHHLIIbHHHntERUVFLFmyJGbMmBEvvPBC2vny8vK45ZZboqKiorlbBwAAAAAAACgYmX1+ZPbpZPZNw9A4AAAAAAAAlIClS5fWud+lS5cG1W3btm1UVFTEmjVr0vaXLFnSoLrN4ZJLLony8vK4+OKLo6amJiIiNmzYEI888kjaE803td1228WECRNi+PDhzdUqAAAAAAAAAEVMZp9JZt/42hS6AQAAAAAAAPJTm0yW5Iv8rF69us79Tp06Nbh2XU/u3jSQbql+/etfx/PPPx8nnXRSdOjQYYvXbr/99nHuuefGK6+8El/96lebqUMAAAAAAACgJSp0di6zLy4y+7rJ7BuXbxoHAAAAAACAElBVVVXnfllZwyPD8vLyjL3KysoG120ugwYNiokTJ8Zf//rXePHFF+P111+PZcuWxbp166Jz587x/7N332F2VWX/uJ+ZTArpgSQEQknBYOihhE4KvXdBmkhTvhSxoQgvVVDEVxBRBAVERAEReemhJYAQOoTQJSSQhJBCGmmTycz+/eEPZDhnklPnlLlvr7kus87stZ/MedjZsz6z9vTu3TuGDRsWX/3qV6OmpqYoNYwcOTISP2ABAAAAAAAAUJVk9i2T2ReOTeMAAAAAAABUlGeeeabUJVSkxsbGtOPt2rXLe+50c6xYsSLveVtbx44dY7vttovtttuu1KUAAAAAAAAAlCWZfW5k9qsms8+fTeMAAAAAAABUlO23377UJVSklp5OXoigON0c6Z5kDgAAAAAAAEBlk9nnRmZPa6gtdQEAAAAAAABA8XXs2DHt+PLly/OeO90cLZ0PAAAAAAAAANoamT2twW8aBwAAAAAAqFBJJKUugQrSrVu3tOOffvpp3nOnm6N79+55zwsAAAAAAABQrmT2ZENmT2vwm8YBAAAAAACgDVhjjTXSjs+fPz+veZctWxb19fUZnw8AAAAAAAAA2hqZPa3BpnEAAAAAAABoA/r165d2/OOPP85r3paOb+l8AAAAAAAAANDWyOxpDTaNAwAAAAAAQBuw9tprR8eOHVPGP/zww7zmben4gQMH5jUvAAAAAAAAAFQLmT2twaZxAAAAAAAAaANqampi8ODBKePvvvtuXvP++9//Tju+wQYb5DUvAAAAAAAAAFQLmT2toa7UBQAAAAAAAJCbpiQpdQlUmGHDhsWbb77ZbGzChAl5zfnKK6+kjK2zzjrRu3fvvOYFAAAAAAAAKGcye7Ils6fY/KZxAAAAAAAAaCO23XbblLE333wzFixYkPOc48ePz+g8AAAAAAAAANCWyewpNr9pHFpbQ0OpK6gYSf3yUpdQMZKGxlKXUFGS5Z7klKkV9e1KXULFaGjwtcrUikbPLcrUCs94ylh9TU2pS6gY7kaz4+uVuRXhHitT9UlTqUuoGCsS3+tkqsHXKmPLm1aUuoSK0tDo65WpFU3+OwQqw2677ZYy1tjYGI8++mgceuihWc83a9astE8tT3ceACgLMvuMyeyzI7fPnMw+czL7zMnsMyezz5zMPnMy++y4I82cr1XmZPaZk9lnTmafOZl95mT22ZHZZ05mD1QKmT3FZkULAAAAAAAA2oihQ4fG4MGDU8Zvv/32nOa74447Ikma/0BqTU1N7LfffjnNBwAAAAAAAADVSmZPsdk0DgAAAAAAAG3IMccckzJ29913x9SpU7OaJ0mS+O1vf5syPnLkyFhnnXVyrg8AAAAAAAAAqpXMnmKyaRwAAAAAAKBCJW30f+TnlFNOiQ4dOjQba2hoiPPOOy+reW666aZ4++23U8ZPP/30vOoDAAAAAAAAqASlzs5l9pVJZk8x2TQOAAAAAAAAbcjaa68dJ5xwQsr4n//85/j73/+e0RzvvvtufO9730sZ32STTeKggw7Kt0QAAAAAAAAAqEoye4rJpnEAAAAAAABoYy655JJYffXVU8aPPfbY+Nvf/rbSY1955ZXYddddY8GCBSmvXX311VFbK4IEAAAAAAAAgJbI7CkW7z4AAAAAAAC0gilTpkRNTc1KPwYOHJj22FGjRq3y2ClTpmRcS+/eveOGG25IGa+vr4+jjjoq9tlnn/i///u/mDlzZjQ2Nsb8+fPjiSeeiFNOOSW23XbbmDZtWsqx3/3ud2PUqFEZ1wAAAAAAAAAArUVmT1tQV+oCAAAAAAAAyE1TkpS6BCrYQQcdFJdddln85Cc/SXntwQcfjAcffDDjufbbb7+4/PLLC1keAAAAAAAAQFmT2ZMPmT3F4DeNAwAAAAAAQBt1zjnnxJVXXhnt2rXLeY5jjjkm7rzzzmjfvn0BKwMAAAAAAACA6iazp9BsGgcAAAAAAIA27Kyzzoqnn346ttpqq6yOW2utteKWW26JW265JTp27Fik6gAAAAAAAACgesnsKaS6UhcAAAAAAAAAbcFaa60V48ePL+r8udp2223jxRdfjEcffTT+8pe/xKOPPhrTp09P+byePXvGzjvvHIcddlgcccQRgmcAAAAAAAAAKoLMnrbApnEAAAAAAABoBR07doztttuu1GWs1G677Ra77bZbRETMnz8/Pvroo1i8eHF06tQpevfunVfIDQAAAAAAAAClIrOnLbBpHAAAAAAAoEIlkZS6BKpYz549o2fPnqUuAwAAAAAAAKAsyewpJpk9uagtdQEAAAAAAAAAAAAAAAAAAADkzqZxAAAAAAAAAAAAAAAAAACACmbTOAAAAAAAAAAAAAAAAAAAQAWzaRwAAAAAAAAAAAAAAAAAAKCC1ZW6AAAAAAAAAHKTJE2lLgEAAAAAAAAA2iSZPVBu/KZxAAAAAAAAAAAAAAAAAACACmbTOAAAAAAAAAAAAAAAAAAAQAWzaRwAAAAAAAAAAAAAAAAAAKCC2TQOAAAAAAAAAAAAAAAAAABQwepKXQAAAAAAAAC5aYqk1CUAAAAAAAAAQJskswfKjd80DgAAAAAAAAAAAAAAAAAAUMH8pnGyMmfOnBgzZkx88MEH8fHHH0dtbW2stdZascEGG8Qee+wR3bp1K+j5Xn311TjkkEM+/3NNTU1MmjSpoOcAAAAAAAAAgEogswcAAAAAAABaYtM4GXn22Wfj3HPPjSeffDKamprSfk779u1j9OjR8cMf/jBGjRpVkPPW19fHlClToqamJpIkiZqamoLMCwAAAAAAAACVQmYPAAAAAAAArEptqQugvDU2Nsa3v/3t2GmnnWLcuHHR2NgYSZKk/Vi+fHmMGTMmdttttzjwwANj2rRppS4fAAAAAAAAACqWzB4AAAAAAADIlN80TouWL18eX/va1+Lee++NJEkiIlb51PDPPu++++6Lp556Kq677ro4/PDDi15rsY0fP75gc21esJkAAAAAAGjrPluXBwCqj8z+v2T2AAAAAACUI5k9UG5sGqdF3/72t+Oee+6JiFUHz5/57POSJIn58+fHkUceGc8880z86le/yniOcrTDDjsUbK7F/3tSweYCAAAAAAAAoDrJ7P9LZg8AAAAAAACrVlvqAihP9913X/zpT3+KmpqaZsFxkiSfPwGlV69e0bdv36ipqWk2HhGfH5ckSVx99dVx2GGHRUNDQ6v/PQAAAAAAAACg0sjsAQAAAAAAgGzZNE6KJEnizDPPTDu+/fbbx1133RULFy6MOXPmxIwZM2LhwoVx//33x6GHHvp56PyZz/589913x4EHHhj19fWt+VcBAAAAAAAAgIoiswcAAAAAAAByYdM4Ke6///6YMmXK508r/yxQ/vnPfx5PP/10HHTQQdGlS5fPP79z586x9957x9///vd46aWXYtttt00bQo8ZMyb22WefWLJkSev+hQAAAAAAoEo1RdImPwCgmsnsAQAAAACgMpQ6O5fZA19WV+oCKD9//OMfP///SZJETU1NXHTRRXH22Wev8tjNN988nn766fjpT38aF1988edB9Gch9Lhx42KvvfaKBx54ILp27Vq0v0OhPfPMM4WbbPyNhZsLAAAAAAAAgKois08lswcAAAAAAIBVs2mcFE899dTnTyyPiBg2bFicd955GR9fW1sb559/fmy77bZx5JFHxsKFCyPivyH0008/HXvssUc89NBD0b1794LXXwzbb799weZaIoAGAAAAAAAAoAUy+1QyewAAAAAAAFi12lIXQHl55513Yt68eRHx3yeW//CHP8xprj333DOefvrpWHfddT8f+yyEfu6552K33XaL+fPnF6JsAAAAAAAAAKh4MnsAAAAAAAAgVzaN08ybb77Z7M+1tbWx77775jzfRhttFE8//XR89atfjSRJIuK/IfSLL74Yo0ePjrlz5+ZVMwAAAAAAAABUA5k9AAAAAAAAkCubxmnmsyeWf2bIkCHRtWvXvObs379/PPHEE7H55ps3C6EjIl599dUYPXp0zJkzJ69zAAAAAABAW5QkSZv8AIBqJbMHAAAAAIDKUersXGYPfJlN4zTzxQC6pqYm+vTpU5B5e/fuHWPHjo2tt946JYR+7bXXYtSoUTFr1qyCnAsAAAAAAAAAKpHMHgAAAAAAAMiVTeM009DQULS5e/bsGY899lhsv/32KSH0G2+8EaNGjYqZM2cW7fwAAAAAAAAAUM5k9gAAAAAAAECubBqnmR49enz+/5MkKfiTxLt16xYPP/xw7LTTTikh9FtvvRWjRo2Kjz/+uKDnBAAAAAAAAIBKILMHAAAAAAAAcmXTOM2svvrqzf5c6AA6IqJLly7x0EMPxYgRI1JC6LfffjtGjhwZM2bMKPh5AQAAAAAAAKCcyewBAAAAAACAXNk0TjNf+cpXmv153rx5MWXKlIKfp3PnzvHAAw/E6NGjU0Lod999N0aMGBHTp08v+HkBAAAAAKCaNCVJm/wAgGolswcAAAAAgMpR6uxcZg98mU3jNLPRRhtFbW3ztnjyySeLcq7VVlst7rvvvthtt91SQuj33nsvRo4cGR9++GFRzg0AAAAAAAAA5UZmDwAAAAAAAOTKpnGa6dSpU8qTy8eOHVvU8917772x1157pYTQkyZNihNOOKFo5wYAAAAAAACAciKzBwAAAAAAAHJl0zgpRowYEUmSRE1NTSRJEnfddVcsXbq0aOfr2LFj3H333bHvvvs2C6Frampi8eLFRTsvAAAAAAAAAJQbmT0AAAAAAACQC5vGSTF69Ohmf160aFHceeedRT1nhw4d4q677ooDDzzw8xA64r9PMAcAAAAAAACAtkBmDwAAAAAAAOTCpnFSjBo1Kmprm7fGddddV/Tztm/fPu6888449NBDm4XQAAAAAABAekkb/R8AVDOZPQAAAAAAVIZSZ+cye+DLbBonRZ8+fWKXXXaJJEmipqYmkiSJ8ePHx9ixY4t+7nbt2sXtt98eX//61z8PoT25HAAAAAAAAIC2QmYPAAAAAAAA5MKmcdI6/PDDIyI+D4GTJIkLLrigVc5dW1sbf/nLX+Ib3/iGp5cDAAAAAAAA0ObI7AEAAAAAAIBs1ZW6AMrToYceGi+//HLK+IwZM2KttdYq+vlramripptuii5dusT9999f9PMBAAAAAAAAQLmQ2QMAAAAAAADZqkk8Fhpa1ZJfnVzqEipG0+y5pS6hYjTN+bTUJVSUFbPqS11CxVg6q12pS6gYi+Z1LHUJFWPhp51KXULFmLdCX2VqdjvPw8rUXJf2rHxS61vmTM2tWVHqEirGnGR5qUuoGPOalpW6hIoxr3FpqUuoGHMbFpW6hIqyYLmvV6bm1y8udQkVo37Z1FKXUFX69Rxa6hJK4uP5b5W6BACgQsnsMyezz47cPnMy+8zJ7DMns8+czD5zMvvMyeyzI7fPnMw+czL7zMnsMyezz5zMPnMy++zI7DMns8+czL6wZPZAubFKAwAAAAAAUKE8GxgAAAAAAAAASkNmD5Sb2lIXAAAAAAAAAAAAAAAAAAAAQO5sGgcAAAAAAAAAAAAAAAAAAKhgNo0DAAAAAAAAAAAAAAAAAABUMJvGAQAAAAAAAAAAAAAAAAAAKlhdqQsAAAAAAAAgN02RlLoEAAAAAAAAAGiTZPZAufGbxgEAAAAAAAAAAAAAAAAAACqYTeMAAAAAAAAAAAAAAAAAAAAVzKZxAAAAAAAAAAAAAAAAAACAClZX6gIAAAAAAADITZIkpS4BAAAAAAAAANokmT1Qbmwah1aW1C8vdQmVo2FFqSuoGMnyxlKXUFGalpW6gsrR2FBT6hIqRmNDbalLqBgNTb5Wmaqv8d9gplyuMrfc1yor9TUW8zJVH02lLqFiNPhaZczXKnPLE99DZ2pF4nvobDQ0+XplqrHJNQsAACqBzD4LMvusyO0zJ7PPnMw+czL7zMnsMyezz5zLVXbk9pmT2WdOZp85OXTmfK0yJ7PPnMw+OzL7zMnsAeA/rP4BAAAAAAAAAAAAAAAAAABUMJvGAQAAAAAAAAAAAAAAAAAAKphN4wAAAAAAAAAAAAAAAAAAABWsrtQFAAAAAAAAkJumJCl1CQAAAAAAAADQJsnsgXLjN40DAAAAAAAAAAAAAAAAAABUMJvGAQAAAAAAAAAAAAAAAAAAKphN4wAAAAAAAAAAAAAAAAAAABXMpnEAAAAAAAAAAAAAAAAAAIAKVlfqAgAAAAAAAMhNkiSlLgEAAAAAAAAA2iSZPVBu/KZxAAAAAAAAAAAAAAAAAACACmbTOAAAAAAAAAAAAAAAAAAAQAWzaRwAAAAAAAAAAAAAAAAAAKCC2TQOAAAAAAAAAAAAAAAAAABQwepKXQAAAAAAAAC5aYqk1CUAAAAAAAAAQJskswfKjd80DgAAAAAAAAAAAAAAAAAAUMFsGgcAAAAAAAAAAAAAAAAAAKhgNo0DAAAAAAAAAAAAAAAAAABUMJvGAQAAAAAAAAAAAAAAAAAAKlhdqQsAAAAAAAAgN0mSlLoEAAAAAAAAAGiTZPZAufGbxgEAAAAAAAAAAAAAAAAAACqYTeMAAAAAAAAAAAAAAAAAAAAVzKZxAAAAAAAAAAAAAAAAAACAClZX6gIAAAAAAADITVOSlLoEAAAAAAAAAGiTZPZAufGbxgEAAAAAAAAAAAAAAAAAACqYTeMAAAAAAAAAAAAAAAAAAAAVzKZxAAAAAAAAAAAAAAAAAACACmbTOAAAAAAAAAAAAAAAAAAAQAWrK3UBAAAAAAAA5CaJpNQlAAAAAAAAAECbJLMHyo3fNA4AAAAAAAAAAAAAAAAAAFDBbBoHAAAAAAAAAAAAAAAAAACoYDaNAwAAAAAAAAAAAAAAAAAAVDCbxgEAAAAAAAAAAAAAAAAAACpYXakLAAAAAAAAIDdNSVLqEgAAAAAAAACgTZLZA+XGbxoHAAAAAAAAAAAAAAAAAACoYDaNAwAAAAAAAAAAAAAAAAAAVDCbxgEAAAAAAAAAAAAAAAAAACqYTeMAAAAAAAAAAAAAAAAAAAAVrK7UBQAAAAAAAJCbJElKXQIAAAAAAAAAtEkye6Dc+E3jAAAAAAAAAAAAAAAAAAAAFcymcQAAAAAAAAAAAAAAAAAAgApm0zgAAAAAAAAAAAAAAAAAAEAFs2kcAAAAAAAAAAAAAAAAAACggtWVugAAAAAAAAByk0RS6hIAAAAAAAAAoE2S2QPlxm8aBwAAAAAAAAAAAAAAAAAAqGA2jQMAAAAAAAAAAAAAAAAAAFQwm8YBAAAAAAAAAAAAAAAAAAAqWF2pCwAAAAAAACA3SZKUugQAAAAAAAAAaJNk9kC58ZvGAQAAAAAAAAAAAAAAAAAAKphN4wAAAAAAAAAAAAAAAAAAABXMpnEAAAAAAAAAAAAAAAAAAIAKZtM4AAAAAAAAAAAAAAAAAABABasrdQEAAAAAAADkJkmSUpcAAAAAAAAAAG2SzB4oN37TOAAAAAAAAAAAAAAAAAAAQAWzaRwAAAAAAAAAAAAAAAAAAKCC2TQOAAAAAAAAAAAAAAAAAABQwWwaBwAAAAAAAAAAAAAAAAAAqGB1pS4AAAAAAACA3CSlLgAAAAAAAAAA2iiZPVBu/KZxAAAAAAAAAAAAAAAAAACACmbTOAAAAAAAAAAAAAAAAAAAQAWzaRwAAAAAAAAAAAAAAAAAAKCC2TQOAAAAAAAAAAAAAAAAAABQwWqSJElKXQRQGuPHj48ddtih2dgzzzwT22+/fYkqohroK4pBX1Eseoti0FcUg76iWPQWxaCvKAZ9BQAAVCPf61AM+opi0FcUi96iGPQVxaCvKBa9RTHoK4pBXwFA5fCbxgEAAAAAAAAAAAAAAAAAACqYTeMAAAAAAAAAAAAAAAAAAAAVzKZxAAAAAAAAAAAAAAAAAACACmbTOAAAAAAAAAAAAAAAAAAAQAWzaRwAAAAAAAAAAAAAAAAAAKCC2TQOAAAAAAAAAAAAAAAAAABQwWwaBwAAAAAAAAAAAAAAAAAAqGA2jQMAAAAAAAAAAAAAAAAAAFQwm8YBAAAAAAAAAAAAAAAAAAAqmE3jAAAAAAAAAAAAAAAAAAAAFcymcQAAAAAAAAAAAAAAAAAAgApm0zgAAAAAAAAAAAAAAAAAAEAFs2kcAAAAAAAAAAAAAAAAAACggtk0DgAAAAAAAAAAAAAAAAAAUMFsGgcAAAAAAAAAAAAAAAAAAKhgNo0DAAAAAAAAAAAAAAAAAABUMJvGAQAAAAAAAAAAAAAAAAAAKphN4wAAAAAAAAAAAAAAAAAAABWsJkmSpNRFAAAAAAAAAAAAAAAAAAAAkBu/aRwAAAAAAAAAAAAAAAAAAKCC2TQOAAAAAAAAAAAAAAAAAABQwWwaBwAAAAAAAAAAAAAAAAAAqGA2jQMAAAAAAAAAAAAAAAAAAFQwm8YBAAAAAAAAAAAAAAAAAAAqmE3jAAAAAAAAAAAAAAAAAAAAFcymcQAAAAAAAAAAAAAAAAAAgApm0zgAAAAAAAAAAAAAAAAAAEAFs2kcAAAAAAAAAAAAAAAAAACggtk0DgAAAAAAAAAAAAAAAAAAUMFsGgcAAAAAAAAAAAAAAAAAAKhgNo0DAAAAAAAAAAAAAAAAAABUMJvGAQAAAAAAAAAAAAAAAAAAKphN4wAAAAAAAAAAAAAAAAAAABXMpnEAAAAAAAAAAAAAAAAAAIAKZtM4AAAAAAAAAAAAAAAAAABABbNpHAAAAAAAAAAAAAAAAAAAoILZNA4AAAAAAAAAAAAAAAAAAFDBbBoHAAAAAAAAAAAAAAAAAACoYDaNAwAAAAAAAAAAAAAAAAAAVLC6UhcAVK7Zs2fHK6+8Eu+9914sWLAgIiJ69OgRG2ywQQwbNiz69OlT4grJ1bJly+K1116Ld999N2bPnh2LFy+ODh06RLdu3aJ///4xePDgGDJkSLRv374o59db1WPu3Lnx4osvxowZM2L+/PmxaNGi6Ny5c/Ts2TP69u0bW265Zay11lqtUsu0adNiwoQJMXny5Fi4cGG0a9cuevbsGUOGDIktt9wyevTo0Sp1UB7KqR8WLFgQL7/8crz77rsxf/78aGxsjO7du8fAgQNjiy22iP79+7daLWRvxYoV8d5778Vbb70Vs2fPjvnz50dTU1P07NkzevXq9fn72KFDh1ata8mSJfHyyy/HO++8E3Pnzo3ly5dH165dY/3114/NNtssBg0a1Kr1UB30VXVqamqKt956K95+++2YPn16LFq0KGpqaqJr167Rt2/fGDx4cGy44YbRrVu3otWgt6rD0qVL45VXXonJkyfH/PnzY8GCBdG+ffvo2bNnrL766rHpppvGV77ylaipqWmVetxj5Wbp0qXx5ptvxr///e+YO3fu5+9jr169olevXrHRRhvFhhtu2GrvY0R5rRG4XgEAAOWmnL5norBk9hSKzJ5yVU79YD25ssnsaUv0VXWS2VMoMvvqILNfOdcrAMhQAlS8pqamZJdddkkiIu3HBRdcULBz1dfXJzfeeGOy7bbbJjU1NS2es6amJtluu+2SG2+8MVm+fHnBzk/xLFmyJLn55puT3XbbLenUqVOL7+1nH506dUq233775Jxzzkn+9a9/JStWrMjr/HqrekyaNCk555xzkg022GCVfRQRSf/+/ZP/9//+X/LKK68UvJZPP/00ueqqq5JNNtlkpTXU1dUlu+66a3LnnXcmTU1NBa+jrZs0aVJyxx13JD/60Y+S3XbbLenVq1fa92Hs2LFFraOc+qGpqSm58847k9GjRyd1dXUrrWfTTTdNrrrqquTTTz8tSi2VqlR9tXjx4uShhx5KfvSjHyXDhw9POnbsuMrrXMeOHZMdd9wx+f3vf58sWrSooPV82SOPPJIccMABq/y3fPDgwcnFF1+czJ49u6j1VJpyuV6tynnnndfieztixIiCn09f5a/cequpqSl5+OGHk69//evJ6quvvsrrWG1tbbLxxhsn3/rWt5L/+7//K9i1TG/lpxz6at68ecnVV1+dbLPNNqu8p4mIpEePHskhhxySPPDAA0ljY2PB63GPlb2ZM2cmt912W3LKKackG264YVJbW7vK97FXr17JAQcckNxzzz1FeR+TpPzWCFyvAACAVZHZUwgyewpFZs+XlcN6cpKUVz9YT86fzD4968n5KZfr1arI7CtPufWWzL46lENfyewrn8w+M65XAJAdm8ahClx77bUrvfktVAD9r3/9K9lwww1X+Y3Ilz+++tWvJk8//XRBaqDwmpqakj/84Q/J2muvnfV7W6hFDb1VHebNm5eccMIJK10cWNXHfvvtl0ydOrUg9dx9991J//79s65h2223Td58882C1NAWvf/++xkthLb24mg59cMbb7yRDB8+POta+vfvn9xzzz0FraVSlLqvlixZktxxxx3J4YcfnnTu3Dmvfy+7d++e/PznP8/7B7e+bOrUqclee+2VdT29evVK/vjHPxa0lkpR6r7K1WuvvZa0b9++xdoKGUDrq9yUe2+NGzcu2WqrrfK6luX7Pabeyl659dWKFSuSX/7yl3n9uzh06NCCfj/nHitzH3/8cfLb3/42GTlyZEaB88o+BgwYUPCvXzmtEbheAQAAmZLZkw+ZPYUisydJym89+TPl1A/Wk7NX6r6S2VenUvdVrmT25a/ce0tmX5nKra9k9pVNZp851ysAyI1N41Dhpk6dmnTv3r2oiwNJkiQ33HDDShe6VvXRvn375MYbb8z/L0xBffzxx8nuu++e1zeb+S5q6K3qMGHChLx/iOGzj+7duycPPfRQXvVcdNFFeQXh3bp1Sx544IECfXXalh49erT6dWRVyqkf7r///qRr164511JTU5NcfPHFBamlkpS6r2655ZaCXN+++LHtttsmH3zwQf5fnCRJXnjhhWTNNdfMq55TTjmlaE8dLVel7qtcrFixItlmm21WWluhAmh9lbty7a2Ghobku9/9bl7/Jn72kc/3mHorN+XUV/PmzUt23HHHgvx7WFtbm/z0pz/Nuyb3WNk58cQTC/L+ffHj+OOPT5YtW5Z3beW0RuB6BQAAZEpmTz5k9hSKzJ7PlNN68mfKqR+sJ+em1H0ls69Ope6rXMjsK0O59pbMvrKVU1/J7CufzD4zrlcAkLu6ACraqaeeGgsXLizqOf7yl7/ESSedFEmSpH19/fXXjwEDBkSSJDF58uSYOnVqyuc0NDTEiSeeGB07doyjjjqqqPWSmffeey/23HPPeP/991v8nF69ekW/fv2ib9++sWLFiliwYEFMnjw5Fi9eXJAa9FZ1eP3112PXXXeNOXPmtPg5a6yxRgwcODB69OgRixYtiunTp8e0adPSfu7ChQvjoIMOinvvvTd22223rOu57LLL4oILLkj7Wk1NTQwePDjWXXfdaGhoiH//+98xc+bMlM/79NNP4+CDD46HHnooRo4cmXUNlI9y6oexY8fGIYccEvX19Wlf79evX3zlK1+Jurq6+PDDD2PSpEkpn5MkSZx//vnRvn37+PGPf5xzLRRe586dP/83c7XVVotPPvkk/v3vf8fSpUvTfv5zzz0Xo0ePjieffDLWXnvtnM/7xhtvxB577BHz5s1L+/rqq68eQ4cOjY4dO8aMGTPinXfeiaamppTPu/7666OmpiZ+//vf51wLxXfVVVfFCy+8UPTz6Kvqs3jx4jjssMPioYceavFzunTpEv369Ys111wzOnToEPPmzYvp06ev9B4vW3qr8n366aex5557xvPPP9/i56y22moxZMiQWH311aOhoSFmzZoV7733Xtr3sqmpKc4777yIiDj33HNzqsk9VnH06tUr+vbtG3379o2IiNmzZ8e7776b9n2MiPjTn/4Un3zySfzjH/+I9u3b53TOclojcL0CAACyIbMnVzJ7CkVmTzkrp36wnlzdZPa0Bpk9uZLZUygy+7ZDZu96BQB5af196kCh/O1vf0t52lekeUJSPk+Ue+2115LVVlst7bxHH3108uabb6Yc8/rrrydf//rX0x6z2mqrJa+99loef2sKYdq0acl6662X9j1af/31k0svvTSZOHFi2mMbGxuTt956K7n++uuT/fffP+nUqVNOT8LTW9WhoaEh2WyzzdK+J3V1dclpp53WYi9NnTo1ueSSS5JevXqlPX7NNddM5s+fn1U9Y8aMSfskztra2uTMM89MpkyZknLM+PHjkz322CNtDX379k2mT5+e09emrSqnJ2qWUz9Mnz496dOnT9p599prr+S5555LOWby5MnJ6aefnvbf99ra2mTMmDE51VKJSt1X6Z5a3q5du2SvvfZKrrrqquSll15K+zTK+vr65PHHH08OOuigFuvbeOONk/r6+pzq+vTTT5MNN9ww7bzDhw9PHn300aSpqanZMTNmzEjOP//8pGPHjmmP+8Mf/pBTLZWo1H2VrUmTJiWdO3dOuRZ8ubZ8n1qur/JXbr3V0NCQ7LXXXmnP16VLl+Sss85Kxo0bl6xYsSLt8VOnTk3uvPPO5Pjjj//837JcvsfUW/kpl7469dRTWzzPPvvskzz22GPJ8uXLU45bsGBBctNNN7XYAzU1NcnTTz+ddT3usXKT7qnlXbt2TY477rjkpptuSiZNmpT2uAULFiR//etfk2HDhrXYByeffHJONZXTGoHrFQAAkA2ZPbmS2VMoMnu+rFzWk5OkvPrBenJ+St1XMvvqVOq+ypbMvnKUW2/J7KtDufSVzL46yOxXzvUKAPJn0zhUqDlz5qR8k/X//t//S3uTm2sA3djYmGyzzTZpvyH74x//uMrjr7/++rQL/8OHD0+5Uaf11NfXJ1tttVXK+1JXV5f8z//8T7JkyZKs5vvkk0+SK664Iqtv7PRW9bjmmmvSXnfWWGON5Nlnn81ojqlTpyZbbLFF2nnOOuusjGtZvHhx2h+s6NSpU/LAAw+s8vjzzjsvbQ2HHXZYxjWQfnF0vfXWSw4++ODk0ksvTR566KHkxRdfLPriaLn1w6GHHprzv9H33Xdf2oWs9ddfP+trdqUqdV99MYAeOHBg8rOf/SzrH0a4++67WwwPLrvsspzq+v73v592vhNPPDFpaGhY6bHPP/982h8A6tatWzJjxoyc6qk0pe6rbI0ePbpZDZtttlmy4447ptSWbwCtr/JXbr11xhlntPhv2tSpU7Oaq76+PvnrX/+a/P3vf8+6Dr2Vn3LoqwkTJrQY2l5//fUZzbF06dLkmGOOSVvnFltskXVN7rFy88UAevvtt09uuummZNGiRRkf39jYmFx00UVpv/a5/DBBua0RuF4BAACZktmTK5k9hSSz58vKYT05ScqvH6wn56fUfSWzr06l7qtsyewrR7n1lsy+OpRDX8nsq4fMfuVcrwAgfzaNQ4X68jdsa6+9drJgwYKcv/FKJ90TOiMiufjiizOeo6VvSG699dacaiJ/P/zhD1Pej7q6upwWkXKlt6rH1ltvnXbB4cknn8xqno8//jjt0wb79OmT9knA6VxyySVpe+LPf/5zxnV885vfTDtHLk9QbKs23XTT5OCDD05++tOfJg8++GAye/bslM+ZPHly0Rfdy6kfnnrqqbTznHDCCRnPcfPNN6ed49JLL82qlkpV6r665ZZbkgEDBiR/+MMfVrnouDLjxo1LOnTokFJjly5dslr0TZIkef/995P27dunzLX77rtnfN18/PHH0wYJuT5ttNKUuq+y8cc//jFlQf7ZZ59NRowYkVJbPgG0viqMcuqt+++/P+15svkhv0LQW/krh776wQ9+kHb+Sy65JKt5VqxYkYwaNSrtXNn8YLN7rNydeOKJyY477pg88sgjec3z85//PO3Xb+TIkVnNU05rBK5XAABANmT25EpmTyHJ7PmyclhPTpLy6gfryfkrdV/J7KtTqfsqGzL7ylJOvSWzrx7l0Fcy++ohs2+Z6xUAFIZN41CBHnzwwZSb2DvvvDNJkiTtzXauAfQmm2ySMtcmm2ySrFixIuM5Ghoako033jhlnk033TSnmsjPG2+8kdTV1aW8HzfeeGOr1qG3qsP06dPTXnMOPvjgnOb71a9+lXa+TMK+JUuWpA2w99prr6xqmD9/ftK3b9+Uefbff/+c/k6kV+zF0XLrh3333Tdljr59+yYLFizIap4999wz7TxLly7Nap5qVcy+mjVrVrJ8+fL8i0yS5Mc//nHaOj+7l8vUaaedljJHp06dksmTJ2c1z7e+9a2UeTp06JB89NFHWc1TrcohgP7oo4+Snj17Njv/6aefniRJUvAAWl+1ntboraVLlyYDBw5MOcdxxx1XsHNkSm+1jmL31ZAhQ1Lm7tevX7Js2bKs53r55ZfT1ppN8OseK3fTpk0r2Fzbb799ytevtrY2mTlzZsZzlNMagesVAACQKZk9uZLZU0gye3Ils7eeXAwye+vJxSCz11fFIrPXW8Ugs3ePlSmZfctcrwCgMGoDqCiLFi2Kb33rW83G9t9//zj00EMLep5nnnkmXn/99ZTx8847L9q1a5fxPHV1dXHeeeeljE+cODGeffbZvGoke+ecc06sWLGi2diuu+4a3/zmN1utBr1VPd57772047lejw4//PC045MmTVrlsf/85z9j9uzZKeMXXnhhVjX06NEjvvvd76aM33///fHRRx9lNRelU079MG3atHjwwQdTxr/3ve9F9+7ds6onXf2zZs2Ku+++O6t5yF6fPn2iffv2BZnr+9//ftTWpn4b9sADD2Q8x7Jly+KWW25JGT/++ONjwIABWdVz7rnnRl1dXbOx5cuXx80335zVPBTP6aefHvPnz//8z/37949LL7204OfRV9Xn2muvjcmTJzcb69OnT1x55ZWtWofeqg5NTU3x/vvvp4zvt99+0bFjx6znGzZsWAwePDhlPJN7/wj3WPnq379/web64Q9/mDLW1NQUY8aMyej4clojcL0CAAAyJbMnHzJ7CklmT7kqp36wnlwdZPaUksyeXMnsKSSZfXWR2afnegUAhWPTOFSYc845Jz788MPP/9y1a9f47W9/W/Dz/O1vf0sZW2ONNeKQQw7Jeq5DDz00Vl999ZTxv/71rznVRm7efvvtuPfee1PGf/Ob37RqHXqresycOTPt+EYbbZTTfOuss0507do1ZXzGjBmrPDZdX2222Wax7bbbZl3HCSeckLLQ0dTUFLfddlvWc1Ea5dQPt99+ezQ1NTUbq6urixNOOCHrWrbbbrvYZJNNUsZd8ypL7969Y8stt0wZ/+CDDzKe4/7774+FCxemjJ9yyilZ17PuuuvGXnvtlTKur8rDP/7xj7jrrruajf3mN7/JOlzJhL6qLitWrEgbNF988cVp75+LSW9Vh08++STlh5kjcr/3j4gYOnRoylgm9/4R7rHKye677x41NTUp45ne25TTGoHrFQAAkCmZPbmS2VNoMnvKVTn1g/VkvkxmTzZk9uRKZk+hyexpicw+PdcrANo6m8ahgjzzzDPxu9/9rtnYT3/601h33XULfq50T/864IADcnpiZ/v27eOAAw7I6BwUzx/+8IdIkqTZ2A477JD2m/5i0lvV48v99Jl0IXKm0i2or+pJdcuXL4/HH388ZTzXp6f37ds3dt5555RxfVUZyq0f0n3ezjvvHH369MmpnsMOOyxl7PHHH4/ly5fnNB+lsd5666WMffzxxxkfn66vBg4cGMOGDcupnnR9NXHixJg+fXpO81EY8+fPj9NPP73Z2EEHHRQHH3xwUc6nr6rLgw8+GFOnTm021qlTpzjqqKNKUsuX6a3KUy73/p9xj1U+unbtGr169UoZz/TeppzWCFyvAACATMjsyYfMnkIrl3W7cstoKa1y6wfryaQjsycTMnvyIbOn0Mrl3v8z7rHKh8y+Za5XALRlNo1Dhaivr4+TTjqp2VO5tt5665RFqUKYOnVqTJo0KWV81113zXnOdMe+9957KYsiFEeSJHH77benjB999NGtWofeqi5rrrlm2vFPPvkk5znTHduvX7+VHvPcc8/FkiVLUsYL3Vf/+te/oqGhIec5aR3l1A/Lly+Pp59+uui1LF68OJ577rmc56T1pVtQra3N/FuzsWPHpowVuq8iIu0Pc9B6vve97zVbvO/WrVtRf9uMvqou6X67xv7771+UJ96vit6qDquvvnrU1dWljOdz7z9nzpyUsVXd+0e4xypHud7blNsagesVAACwKjJ78iGzpxhk9pSjcuoH68m0RGZPJmT25ENmT6HJ7FkZmX3mtUS4XgHQNtg0DhXipz/9abz11luf/7ldu3Zx/fXXZ/xEr2y88MILace33XbbnOccPnx42vGXXnop5znJXEtPxdpjjz1atQ69VV222mqrtNeg559/Pqf5Xn311aivr08Z32677VZ6XLq+qquri6222iqnOiLS99WyZcvijTfeyHlOWkc59cPrr78ey5YtSxnP55q35ZZbpv3vzjWvskyZMiVlbK211sro2Llz58b777+fMp5PX62zzjppz6+vSuexxx6Lm266qdnYpZdeGuuss05RzqevqkuSJDFmzJiU8da+94/QW9Wkrq4uttxyy5TxXO/9m5qa4sUXX0wZX9W9f4R7rHKzePHimD17dsp4Jvc25bRG4HoFAABkQmZPPmT2FIPMnnJUTv1gPZmWyOxZFZk9+ZDZUwwye1ois2+Z6xUAbZlN41ABJk6cGJdffnmzsbPOOiuGDRtWlPO99tprKWOrrbZaDB48OOc5v/KVr0SnTp1SxidMmJDznGRu3LhxKWNdunRp8T1dsWJFTJo0KV5++eV4++23Y86cOc2emJ8rvVVdunbtmnYh8+abb44kSbKe78Ybb0wZGzZs2Cr7I11fDR48OG1fZGqzzTZLO66vyl859UO6WiIiNtlkk5xr6dy5c2ywwQZZ10L5mD9/frz88ssp4+ne13SK0VcR6ftcX5XGkiVL4pRTTmk2ts0228Rpp51WtHPqq+oyceLEtE+Sbunfs4iIadOmxauvvhqvvfZazJgxo2C/qUVvVZdDDz00ZWzMmDHNfsNCpu6+++6YO3dus7GOHTvG/vvvv8pj3WOVlyeeeCLtekEm9zbltEbgegUAAKyKzJ58yewpBpk95aic+sF6MunI7FkVmT35ktlTLDJ70pHZr5zrFQBtlU3jUOYaGxvjxBNPbLYAMGDAgLjooouKds5JkyaljA0aNChqampynrOmpiYGDRqUMp7uiVAUXrqF7k033bTZe7po0aK45pprYsSIEdGlS5fYYIMNYquttoqhQ4dGnz59olOnTrHLLrvExRdfHG+//XZOdeit6nP22WenjL388stx9dVXZzXP008/Hb///e9Txn/yk5+s8th0fZVpkNOSfv36RZcuXVLG9VX5K6d+SFdL165do1+/fnnVk25BTm9WjltvvTVtsLPvvvtmdHy6vorIv8/1Vfk477zzmn3t6+rq4g9/+EPU1hbv23d9VV3S3fvX1tY2C1Gamprin//8ZxxyyCHRo0ePWHfddWPYsGGx+eabx9prrx0dOnSITTfdNL773e/G2LFjc65Fb1WXk08+OXr16tVsbMmSJXHaaadl9QOos2bNih/84Acp4yeddFL07dt3lce7xyovX/4tGxER7du3z+g3JZTTGoHrFQAAsDIyewpBZk+xyOwpN+XUD9aTSUdmz6rI7MmXzJ5ikdmTjsx+5fQVAG2VTeNQ5q666qp44YUXmo397ne/S7sQXihTpkxJGevfv3/e86abI925KLw33ngjZWzAgAGf//8bbrghBgwYEGeccUY8+eSTsXz58pTPb2hoiKeeeiouuOCC2HjjjePYY4/N+psmvVV9Ro4cGd/+9rdTxr/3ve/FL37xi4yedv9///d/sd9++6UEMkcccUQcdthhqzy+WH219tprZ3Quyks59UO619PNky3XvMq1ZMmSlN9EExHRvXv32HXXXTOaI9173bFjx+jdu3detaXrq2nTpsWKFSvympfsPP/88/HrX/+62dj3vve92HzzzYt6Xn1VXdLd+/ft2zc6d+4cERH/+te/YvPNN49DDjkk/vnPf8bChQvTzvP666/HVVddFaNHj46ddtopnnjiiaxr0VvVpVevXvG73/0uZfyuu+6Ko446qsVe+qI33ngjRo8eHZMnT242vsEGG8TPfvazjOpwj1U+JkyYEHfddVfK+KhRo6JHjx6rPL6c1ghcrwAAgJWR2VMIMnuKRWZPuSmnfrCezJfJ7FkVmT2FILOnWGT2fJnMPrdaXK8AaAtsGocy9v7778f555/fbOyII46Ivffeu6jnnT17dsrYmmuumfe86Z4glu5cFN6HH36YMtatW7doaGiIY445Jk466aT45JNPMp6vqakp/vKXv8SwYcPiwQcfzPg4vVWdfvOb38TBBx/cbKypqSl+9KMfxcYbbxy/+tWv4sUXX4y5c+fGihUrYuHChfHmm2/GjTfeGCNGjIiDDjoo5s+f3+z4ffbZJ26++eaMzq+v+KJy6odyqoXycOGFF8bUqVNTxs8444zo2LFjRnOke68zecLrqqTrq6amppg7d27ec5OZhoaGOOmkk5r98NbAgQPjggsuKPq59VV1aeneP+I/920jR46M119/Pas5n3766Rg1alRceumlWR2nt6rPkUceGVdccUXK+G233RaDBw+OH//4x/H444/HzJkzY/ny5bFkyZL44IMP4q677oqjjz46hg0blvJDEoMGDYpHH3308z5dFfdY5aGxsTG+/e1vp/2h4x/+8IcZzVFO76XrFQAA0BKZPYUis6eYZPaUk3Lqh3KqhfIgs2dlZPYUisyeYpLZ8xmZfe61uF4B0BbYNA5l7OSTT44lS5Z8/ueePXvGVVddVfTzprsJzuRpU6vSvXv3lLFsQk9ys2LFipgzZ07KeNeuXeOYY46JW2+9Nee5Fy5cGPvvv3/86U9/yujz9VZ1qqurizvvvDN+9rOfRadOnZq99vbbb8f3v//92GabbWKNNdaI9u3bR48ePWLjjTeOE088MZ588slmn9+5c+e49NJL4957780ojFmyZEnU19enjOurtqnc+qE1r3lLly6NpUuX5j03xTN27Nj43//935TxtdZaK370ox9lPE9r9lWE615r+tnPfhYTJ05sNnbttdd+/qTpYtJX1WXGjBkpY926dYvf/e53ceaZZ0ZjY2NO8yZJEuedd16ceOKJGR+jt6rTD37wg7jvvvtirbXWajY+Z86cuPzyy2PXXXeNfv36RceOHaNLly4xYMCAOPTQQ+Ovf/1rs99UVFNTE8ccc0y89NJLsf7662d8fvdY5eHSSy+NZ599NmV83333jd122y2jOcppjcD1CgAAaInMnkKQ2VNsMnvKRbn1g/Vkvkhmz6rI7CkUmT3FJrMnQmafTy2Z1AMAlc6mcShTN9xwQzz++OPNxi6//PK0TzsqtEWLFqWMde3aNe95u3TpkjK2ePHivOdl5RYsWJD2KWJ33HFH3HHHHc3G1llnnbjkkkvihRdeiNmzZ0d9fX1MmzYtHnzwwTjllFOiQ4cOKfN89qSyF198cZW16K3qVVtbGz/+8Y9j8uTJ8ZOf/CSGDBmS1fEbb7xxXHLJJTFlypT4yU9+ErW1md2ipOupCH3VVpVbP7TmNS+Teiid6dOnx5FHHpn23+Nrr70246e0RuiravXmm2+mPA3661//euy5556tcn59VV3mzZuXMjZt2rT4zne+02ysc+fOccYZZ8Sjjz4a06dPj/r6+pg1a1aMHz8+/ud//qfFp/XeeOON8Zvf/CajWvRW9dp3333j/fffj2uuuSa23377jO/fI/7zFOfTTz89Jk6cGLfcckv07Nkzq3Prq9IbM2ZMXHTRRSnjPXr0iN/97ncZz1NOawT6CgAASEdmT6HI7GkNMnvKQbn1g3U/PiOzZ1Vk9hSSzJ7WILNv22T2+dWSST0AUOlsGocyNGPGjPjBD37QbGzHHXeMk08+uVXO/8WniH2mrq4u73nbt2+fMrZ8+fK852Xl0j3BN+I/i+FfdPrpp8c777wT5513Xmy99dbRu3fv6NChQ/Tv3z/22muvuO666+KNN96ILbfcMu05Dj/88BbP9Rm9Vf1qamqic+fOWT/d7aOPPoq333473nzzzayOS9dTEfqqrSq3fmjNa14m9VAaixcvjv333z9mzZqV8tq3vvWtOPDAA7OaT19Vn6ampjjppJOafa179eoVV155ZavVoK+qS7p78lmzZsWKFSs+//Muu+wSb7/9dlx99dWx6667xtprrx0dOnSIPn36xHbbbRcXX3xxvPvuu3HsscemPcf3v//9eP3111dZi96qfh07dowePXpk9b7OnTs33nvvvXjllVea9WWm9FVpvfnmm3HEEUek/cG63//+97HeeutlPFc5rRHoKwAA4Mtk9hSSzJ7WJLOnlMqtH6z7ESGzZ9Vk9hSazJ7WJLNve2T2+deSST0AUOlsGocydPrpp8f8+fM//3OHDh3i+uuvj5qamlY5f2NjY8pYu3bt8p433Ry5fLNJdjL5Gv/4xz+O3/zmN9G5c+eVft4GG2wQY8eOTRtCT5kyJW6++eaVHq+3qld9fX2cffbZMWDAgDjvvPPihRdeyOr4efPmxa233hojR46MESNGxHvvvZfRcel6KkJftVXl1g+tec3LpB5aX0NDQxx++OHxyiuvpLy29dZbx69//eus59RX1eeaa66J8ePHNxv7xS9+EWuuuWar1aCvqsuqvr6jRo2KMWPGxLrrrrvSz+vRo0fcfPPNaX8QuqGhIS677LJV1qK3qtdNN90UAwcOjJNPPjkeeuihrMK05cuXx0MPPRTHHntsDBkyJB5++OGszq2vSmf69Omxzz77xIIFC1JeO+OMM+LII4/Mar5yWiPQVwAAwJfJ7CkkmT2tQWZPOSi3frDuh8yeTMjsKTSZPa1BZt82yewLU0sm9QBApcv/0StAQf3jH/+Iu+66q9nYj370o9hoo41arYa6urqUpzUV4sY43RwtPb2JwlnV13i77baLn/70pxnP17179/jrX/8aw4YNi6VLlzZ77Re/+EWcfPLJLf6whN6qTh999FHstddeMXHixJTXOnfuHPvtt1/ssssusd5660XPnj1j0aJFMXPmzHjmmWfivvvuixkzZjQ75sknn4wtttgi/v73v8fee++90nO39BQ5fdU2lVs/pKunWLVkUg+tq6mpKY499th48MEHU17bYIMN4t57742OHTtmPa++qi4ffPBBnHvuuc3GdtlllzjxxBNbtQ59VV1W9vXt1atX3HLLLdGpU6eM5qqpqYmrr746nn766ZTfLnPHHXfEpZdeGgMHDmzxeL1VfRoaGuK4446L2267LeW1mpqaGD16dIwePTqGDh0aq6++ejQ0NMQnn3wSL730Ujz00EMp3zNMnjw59tprr7jwwgvj/PPPz6gGfVUas2fPjj322CM++OCDlNcOPPDAnH7bRjmtEegrAADgi2T2FJrMnmKT2VMuyq0frPu1bTJ7MiGzpxhk9hSTzL7tktkXrpZM6gGASmfTOJSR+fPnx+mnn95sbMiQISmLUsXWsWPHlG8AsnkCWUvSzZHLwivZ6dChw0pf/+lPf5r1k7g23HDDOP744+Paa69tNj5p0qSYOHFibLbZZmmP01vVZ+7cuTF69Oh45513Ul4744wz4vzzz4/evXunPfb444+P5cuXxx/+8Ic4++yzY8mSJZ+/tnjx4jj44INjzJgxMWLEiBbP39L7rK/apnLrh3SvF6uWTOqh9SRJEieeeGLcfvvtKa+tt9568eijj0a/fv1ymltfVZdvfetbsWjRos//3KFDh7juuuta7bcVfUZfVZeV3f+fdtpp0b9//6zm69SpU1xwwQVxxBFHNBtvbGyMe++9N84888wWj9Vb1efoo4+Ov//97ynjo0ePjmuuuSaGDh2a9rgjjjgifvGLX8SYMWPi29/+dkyZMuXz15IkiQsuuCA6duwYP/rRj1ZZg75qffPmzYs99tgj5QdRIiL22GOPuP3223N6wnc5rRHoKwAA4DMye4pBZk8xyewpJ+XWD9b92i6ZPZmS2VMMMnuKSWbfNsnsC1tLJvUAQKWrLXUBwH9973vfi48//rjZ2O9///tWvynt1q1bytinn36a97zp5ujevXve87JyPXr0aHERc9CgQbHrrrvmNO8pp5ySdvyJJ55o8Ri9VX1OPfXUlPC5pqYmbr755rj66qtbDJ8/06FDhzjttNNi/Pjx0bNnz2av1dfXx7HHHhsLFixo8fh0PRWhr9qqcuuH1rzmtXQ+SuPUU0+NP/3pTynja6+9djz22GOx/vrr5zx3a/eV617x/PnPf44xY8Y0GzvnnHPiq1/9aqvXoq+qy5fvqb7opJNOymnOQw45JO193cru/SP0VrW59tpr04bPJ598cjzyyCMths9ftOeee8bLL78cW221Vcpr5513XrzwwgurnMM9VutauHBh7LnnnvHqq6+mvDZixIi4++67c163Kqc1AtcrAADgMzJ7ikFmTzHJ7Ckn5dYP1pPbLpk9mZDZUywye4pFZt82yewLX0sm9QBApbNpHMrEY489FjfddFOzseOPPz5GjRrV6rWsscYaKWPz58/Pe950c6Q7F4VVV1cXPXr0SPvazjvvnPO8m2++edp5n3322RaP0VvV5Zlnnok77rgjZfzss8+O4447Lqu5Nttss/jrX/+aMj516tS46qqrWjyuQ4cO0bVr15RxfdU2lVs/tOY1r3v37tG+ffu85yZ/3/nOd+K6665LGe/bt2889thjscEGG+Q1f2v2VUvnI3+zZs2K7373u83GNtxwwzjnnHNKUo++qi4t/QDg+uuvn/MPwNTV1cX222+fMr6ye/8IvVVNFi9enPY3qu24445x7bXXRm1t5kuMvXr1invuuSflhyVWrFgRZ5999iqPd4/VehYtWhR777132h8M2GGHHeK+++6L1VZbLef5y2mNwPUKAACIkNlTPDJ7ikVmT7kpt36wntw2yezJhMxeXxWTzJ5ikNm3TTL74tSSST0AUOlsGocysGTJkpQnQPfp0yd++ctflqSefv36pYx9+WnquUg3R7pzUXj9+/dPO77FFlvkPGdNTU1sttlmKeOzZs1q8Ri9VV2uueaalLHVV1897cJUJvbee+/YbbfdUsavvfbaaGpqavE4fcUXlVM/lFMttI7vf//7cfXVV6eM9+7dOx577LGCPI063Xs9e/bslV4nM5Gurzp27LjSpx+TuzPPPDPmzp37+Z9ramriuuuua/XfVvQZfVVdinHv39Lxs2fPXukxeqt63HrrrTFv3ryU8csvvzzatWuX9Xxrr712/OAHP0gZHzduXLzxxhsrPdY9VutYvHhx7LPPPvHMM8+kvDZ8+PB48MEH0/7wZzbK6b10vQIAAGT2FJvMnmKQ2VOOyqkfyqkWWofMnkzJ7HvmNS8rJ7OnGGT2bY/M3vUKAPJRV+oCgIgXXngh3n///WZjxxxzTPz73/+Of//733nPP23atLRPk9too42ie/fuKeMDBw5MGfvwww/zriPdHOnOReENGjQo7Tfxq6++el7zpnvK1ieffNLi5+ut6pEkSTz88MMp4wcccEB069Yt53mPOuqoePTRR5uNzZw5M1577bUWF00HDhwY7733XrOxfPuqsbExPvroo7TnoryVUz+ke3369OnR2NiY00LtZ1zzytPZZ58dv/rVr1LGe/XqFY888khssskmBTlPuve6sbExpk+fHuuuu27O86brqwEDBkRNTU3Oc9Ky22+/vdmfd9lll+jYseMqnwD9ZQsXLkw7lm6eddZZJ9ZZZ5208+ir6jJo0KC048W4929oaIiFCxem/b4yQm9VkzFjxqSMDRgwIHbcccec5zzqqKPivPPOSxl/5JFHYuONN27xOPdYxbdkyZLYb7/94qmnnkp5bcstt4wxY8a0+N99NsppjcD1CgAAkNlTbDJ7Ck1mT7kqp36wnty2yOzJhsxeXxWTzJ5ikNm3LTL7/3C9AoDc2TQOZSBJkpSxK6+8Mq688sqCzH/DDTfEDTfckDI+duzYGDlyZMr4V77ylZSxDz74IJYvXx4dOnTIqYb6+vq0N93pzkXhDR06NO69996U8c6dO+c1b5cuXVLGFi1a1OLn663q8eGHH6b9YYOddtopr3l33nnntOOvvvpqiwH0V77ylXjkkUeajb377rt51TFlypRoaGhIey7KWzn1Q7rXGxoaYsqUKTF48OCc60n3w2l6s7R+8pOfxBVXXJEy3qNHj3j44YfzflLwF7X0Xr/77rt5LY7qq9J64oknYvvtty/IXK+88krauS644IK48MIL0x6jr6rL0KFD044X494/4j/3/y0FUXqrerz88sspY/ne+w8cODD69+8f06dPbzb+6quvrvQ491jFtXTp0jjggANi3LhxKa9tttlm8cgjjxTsidvltEbgegUAAMjsKTaZPYUms6dclVM/WE9uO2T25EtmTyHJ7CkGmX3bIbNvzvUKAHJTW+oCgPIzbNiwlLHGxsZ4/fXXc55z4sSJ0djYmDJeyAVZWrb11lunHU/3pMtsLFiwIGVsZU9D1FvVY/bs2WnH11xzzbzmben4OXPmtHhMur6aNm1azJ07N+c6XnnllbTj+qr8lVM/pKslImLChAk51zJnzpyYNm1a1rVQPOeff3787Gc/Sxnv3r17PPzwwy3+G5yrTTfdNOrqUp/9lU9fJUmS9nh91Xboq+rSmvf+ESu//9db1SPd/X++9/4tzbGye/8I91jFtGzZsjjwwAPjscceS3ltk002icceeyzv34DwReW0RuB6BQAAlJty+p6JwpDZU2gye8pVOfWD9eS2QWZPNdBX1UVmTzHI7NsGmb3rFQAUik3jQIqtt946amtTLw/PPPNMznOOHz8+Zaxdu3ax1VZb5Twnmdtxxx3Tjs+aNSuvedMd37t37xY/X29VjxUrVqQdb9++fV7ztnR8U1NTi8dsu+22accL3Ve9e/eOQYMG5TwnraOc+mHw4MGxxhprFL2WiJb/3hTXJZdcEpdccknKeLdu3eKhhx6K4cOHF/ycnTp1is022yxlPJ++ev311+PTTz9NGddXbYe+qi59+vRJ+0TcYtz7d+nSJTp16tTiMXqreqS7/8/33r+lOVZ27x/hHqtY6uvr45BDDkn5DUAR//ltCI899thKv9/PRTmtEbheAQAA5aacvmeiMGT2FJrMnnJVTv1gPbn6yeypFvqqusjsKQaZffWT2bteAUAh2TQOpOjZs2faJ92NGTMm5znTHbv11ltHz549c56TzK299tqxySabpIy/+OKLOc+5fPnytE/fGjBgQIvH6K3q0dLCQ0tPM89US8f36dOnxWM22WSTtE87LHRf7brrrlFTU5PznLSOcuqHmpqa2HXXXYteS79+/dJe4ymun/3sZ3H++eenjHft2jUeeOCB2H777Yt27t122y1l7PHHH2/xh4NWJV1ftW/fPkaMGJHTfFQmfVVd9txzz5Sxl156Ka85X3jhhZSxld37f0ZvVYd09//53vu3NMfK7v0j3GMVw/Lly+Owww6LBx98MOW1DTfcMB5//PHo27dvwc9bbmsErlcAAEA5KbfvmcifzJ5Ck9lTrsqpH6wnVzeZPdVGX1UXmT2FJrOvbjL7/3C9AoDCsWkcysDIkSMjSZKCfKRzwQUXpP3ckSNHtljT/vvvnzL28MMPx7x587L++82dOzftU68OOOCArOcid4cddljK2BNPPBHLly/Pab4nn3wy6uvrU8ZHjRq10uP0VnVoafGhGAubEStfhKqpqYn99tsvZfzOO++MxsbGrGt4/fXX44033kgZ11eVodz6Id017/XXX48333wz61pWrFgRd955Z0bnoLh++ctfxk9+8pOU8c6dO8f9998fO+20U1HPn+49nzdvXjz88MM5zXfbbbeljI0cOTK6deuW03ysWqHu/dMtYI8YMSLt51544YUrrUlfVZd09/5z5syJl19+Oaf5Fi5cGM8991zK+Kru/SP0VrVId/+f773/nDlzYsqUKSnjqwqgI9xjFdKKFSviiCOOiPvuuy/ltSFDhsTYsWOjX79+RTt/Oa0RuF4BAEDbJrOnNcjsKSSZPeWq3PrBenJ1ktmTL5k9xSazp9Bk9tVLZr/yWlyvACA3No0DaR199NEpT2Ndvnx5XHfddVnPdf3116eEnDU1NXHUUUflVSPZ+cY3vhG1tc0v+3PmzIk77rgjp/l++9vfpozV1tauchFKb1WH7t27xwYbbJAyfs899+QU8n3mrrvuShmrqamJbbbZZqXHHXPMMSljH3/8cfz973/PuoZrrrkmZaxr165x4IEHZj0XpVFO/XDwwQdHly5dUsavvvrqrGu58847Y+bMmSnj6f6+FM+vf/3r+OEPf5gy3rlz57jvvvtil112KXoNO+64Y9onBefSV88++2zaAEFftT36qrrssssuMXjw4JTx3/3udznNd9NNN8WSJUtSxtM9OfrL9FZ12GqrrVLGJkyYEJMnT855zrvvvjuamppSxocPH77KY91jFUZjY2N8/etfj7vvvjvltQ022CAef/zxWGuttYpaQzmtEbheAQAA5aacvmeiMGT2FJLMnnJWTv1gPbn6yOypVvqqusjsKTSZfXWS2TfnegUABZQAVSUiUj4uuOCCnObad999U+ZaffXVkzlz5mQ8x+zZs5NevXqlzLP//vvnVBP5Ofzww1Pei/XWWy9ZsGBBVvM8/PDDSU1NTcpchx12WEbH663qcPrpp6e95tx44405zff6668n7dq1S5lviy22WOWxTU1NySabbJJy7Fe+8pWkvr4+4xrefvvtpH379inznHHGGTn9nUhv8uTJaXtn7NixBZm/3PrhtNNOS5mjffv2yTvvvJPxHMuWLUs22GCDlHk222yzrGqpZsXuqyRJkt/97ndpz7Haaqsljz76aMHOk4krrrgibS2PP/54xnM0NTUlu+yyS8ocffv2TZYuXVrE6itHa/RVPkaMGJFS24gRI3KeT1+1ntbord/+9rcp89fV1SUvvPBCVvPMmDEj6d27d8pc66yzTrJs2bKM5tBbraOYfXXnnXemnfu4447Lab6lS5cmAwYMSJmvtrY2+eSTTzKawz1WfhobG5Ojjjoq7fs6aNCgZOrUqa1WSzmtEbheAQAAhZDu+wqZPZ+R2VNIMntyJbO3nlwMMnvrycUgs9dXxSKz11vFILN3j5UNmX16rlcAUBg2jUOVSXeTnGsAPX78+LTz7b///kljY+Mqj1+xYkWy3377pRxfU1OTPPvssznVRH7efPPNtGHKfvvtl/Hi0VtvvZWstdZaad/XiRMnZjSH3qoOTz/9dNr3sWvXrskrr7yS1VyffPJJMmTIkLTzXX755RnNcdttt6U9/rTTTsvo+MWLFydbbbVVyvGdOnVKPvjgg6z+Pqxcayy6l1M/TJkyJenYsWPKXFtvvXWyZMmSjOY49dRT0/597rjjjqxqqWbF7qsbbrgh7Q9fderUKXn44YcLco5sLFy4MOnTp09KPeuvv34ye/bsjOb4+c9/nvZr9otf/KLI1VeOthZA66vW0xq9tWzZsmTw4MEp5xg0aFDG/5YtXLgw2XnnndPWes0112Rci95qHcXsq4ULFyarr7562vn/+Mc/ZjVXY2Nj8rWvfS3tXHvvvXfG87jHyl1TU1Ny/PHHp/27Dxw4sNW//ymnNQLXKwAAoBDSfU8gs+czMnsKSWZPrmT21pOLQWZvPbkYZPb6qlhk9nqrGGT27rEyJbNvmesVABSGTeNQZdLd4OYaQCdJkhx33HFp5zzyyCOTxYsXt3jcokWLWvyG8hvf+EbO9ZC/c889N+37stNOOyVvvvnmSo/9+9//nvaJhRGRnHrqqVnVobeqQ7pv8iMi6d69e3LbbbdlNMfzzz+fdnE0IpK1114748WjJEm/EB8Ryfe+972koaGhxeNmz56djBw5suDXUNJrrUCnnPrh/PPPTzvf6NGjV7qQ1dDQkHznO99Je2w+IVM1KmZf3X777UltbW3a+S+88MJk/PjxBfnI9IfBPnPjjTemrWmzzTZLJk+evNJjr7jiirSBerZP9692bS2AThJ91Vpaq7da+m1D66yzTvLAAw+s9NiXXnop2XLLLdPWucUWW7hmlaFi99Uvf/nLtPPX1tYm5557bkbvxYwZM5I999wz7Tw1NTVZ/yCre6zcpHvie0QknTt3Tm677baC3Ne8/PLLWdVUTmsErlcAAEC+CpkvJEl5fc9EYcjsKSSZPbmQ2VtPLgaZvfXkYpDZ66tikdnrrWKQ2bvHypTMfuVcrwAgfzaNQ5Up5GJ5kiTJvHnzkgEDBqSdd7311kuuvPLK5O23306WLVuWLFu2LHnzzTeTX/3qV8k666yT9piBAwcm8+bNK9jfl+w1NDS0GMrU1dUl++23X3LNNdck999/f/Lkk08md911V3LRRRclW2yxRdpjIiLZYYcdsv5GSm9Vh3feeSfp1atXi72xxRZbJFdddVXy0ksvJXPmzEkaGhqS+fPnJ2+//XZy4403JnvvvXeLx9bU1CR33nlnVvVMnjw56dmzZ9r5Ntpoo+QPf/hD8v777yfLly9PFi9enLz66qvJRRdd1OITGLfddttk+fLlRfrqVaeWFj4L9bGqBZ8v11Iu/VBfX58MHz487bxrrLFGcskllyQTJkxIlixZkixfvjyZNGlSct111yVDhw5Ne0yvXr2SKVOm5FRLJSp1X33jG98o6vlz6e/PHHTQQWnn6tKlS3L22Wcnzz//fLJo0aKkoaEh+fDDD5O//OUvybbbbpv2mA4dOiQvvPBCbm9SBSp1XxVCMQLoJNFX+Sq33mrpB1AjIhk+fHhy6aWXJv/85z+TJ598Mrn33nuTX//618kee+zR4g/e9O7dO+d/g/RW7sqhr5YtW9biDyVERLLWWmsl//M//5OMHTs2mTFjRlJfX58sWrQomTJlSvKPf/wjOemkk5JOnTq1ePyZZ56Z9dfFPVZu1l9//aL2U8R/nvKdjXJbI3C9AgAA8pHuewOZPV8ks6eQZPZ8WTmsJ3+xlnLpB+vJ+Sl1X8nsq1Op+6oQZPblqdx6S2ZfHcqhr2T21UNmv2quVwCQH5vGocqku9HN94m7r732WouL8dl8rLHGGsnEiRML8xclL/PmzUu23nrrgnxTufXWWycff/xxTnXorerw1FNPJauttlrBFyyuvPLKnOp57LHHVrqwlenHoEGDkmnTphX2i9UGlMPi6BeVUz9MmzYtGThwYN61rLbaasnjjz+eVy2VptR9Vc4B9IIFCwryb3ptbW1y66235vYGVahS91UhFCuA1lf5KbfeampqSk4++eSCnLtv377J+PHjc/7a6K3clUtfzZw5M9lggw0Kfv5DDjkkaWxszOlr4x4re+UYQCdJea0RuF4BAAD5SPf9gcyeL5PZU0gye76oXNaTP1NO/WA9OXel7iuZfXUqdV8Vgsy+PJVbb8nsq0O59JXMvjrI7FfN9QoA8lMbAKuw6aabxrhx42LgwIE5zzFo0KAYN25cbLLJJgWsjFz17Nkzxo4dG0ceeWRe8xx99NHx1FNPxZprrpnT8XqrOuy0004xbty4GDJkSEHm69GjR9x8881x1lln5XT86NGj48EHH4zevXvnXMOWW24Z48aNi/79++c8B+WhnPqhf//+8cQTT8SwYcNynqNPnz7x4IMPxqhRo/KqherRvXv3ePjhh2O33XbLeY4uXbrEbbfdFkcddVQBK6OS6avqUlNTE9ddd138/Oc/j7q6upznGTZsWLzwwgux3Xbb5TyH3qp8ffv2jSeffDL22muvgsxXW1sbP/jBD+Jvf/tb1NbmtkzpHqt6lNMagesVAABQbsrpeyYKQ2ZPIcnsKWfl1A/WkykG68kUg76qLjJ7CklmTzGV0xqB6xUA5MemcSAjm266abz00kvx7W9/O9q1a5fxce3atYtTTz01XnrpJQFhmenatWv87W9/i3vuuSc222yzrI7dZZddYuzYsfGXv/wlOnXqlFcdeqs6DB8+PF555ZU499xzo0+fPjnN0alTpzjuuONi4sSJcdxxx+VVz8iRI+PVV1+Nr33ta1FTU5NVDeedd148/fTTse666+ZVA+WjnPph3XXXjWeeeSbOPffcrK6fNTU18bWvfS1effXVGDFiREFqoXr06tUrHnroobjyyiujR48eWR272267xUsvvRSHH354kaqjUumr6lJTUxM/+tGP4pVXXol99903q38PBw8eHDfddFO88MILsd566+Vdi96qfGuttVY8+OCDceONN8ZGG22U0xw1NTWx6667xhNPPBFXXHFFdOjQIa+a3GNVj3JaI3C9AgAAyk05fc9EYcjsKSSZPeWsnPrBejLFYD2ZYtBX1UVmTyHJ7CmmclojcL0CgNzVJEmSlLoIoHAuvPDClLGRI0fGyJEjC3aODz/8MG644Ya4//77Y8KECbFixYpmr9fV1cXmm28e++67b5x44okFWaSg+MaPHx/33XdfPPvss/Huu+/GJ598Eg0NDbH66qtH7969Y9CgQTF69OjYY489YuONNy5KDXqrOixfvjzuuuuueOyxx+K5556LN998MxobG9N+7oABA2L48OGx0047xVFHHRVrrLFGwet566234oYbboiHHnoo3nrrrWhqamr2eseOHWObbbaJAw44IL75zW/m9XRrIurr6+OVV14p2vzDhg2Ljh075nx8OfXD7Nmz46abbop77rknXnzxxaivr2/2em1tbQwdOjT23nvvOOGEE2Lo0KFFq6XclXtflZNPP/00/vznP8fdd98d48ePj8WLFzd7vaamJgYNGhR77rlnfOMb34jhw4eXqNLSq4a++tOf/hRTpkxpNjZgwIA4/vjjC3oefZWdSuitSZMmxd133x1PPPFEvPXWW/Hxxx/H0qVLo3v37tG7d+/o379/7LzzzrH77rvH9ttvn9fTzldGb2WunPtq3Lhxcc8998Tzzz8fr7zySixZsiTt5/Xu3Tu22Wab2G677eLII48s2G89+jL3WNWjnNYIXK8AAIBsyOzJlcyeQpHZt23lvJ4cUV79YD05c+XeV+XEenLmqqGvZPblqRJ6S2Zfecq5r2T2FEs5rRG4XgFAdmwaB/LS0NAQH374YSxYsCAiInr06BHrrbdetG/fvsSVUen0VvVoaGiIuXPnxvz58+PTTz+N1VZbLXr27Bmrr756rLbaaq1ay7Jly+LDDz+MTz/9NNq1axc9e/aMddddN6un4VE9yqkfGhsbY+rUqTF//vxobGyM7t27x7rrrpv3b4agbUuSJKZNmxZz586NhoaG6Nq1a6y77rrRpUuXUpdGBdNXFIveqg5NTU0xb968mD9/fixYsODze6yePXtm/dTnQnCPVT3KaY3A9QoAACg35fQ9E9VFb1UPmT3lqpz6wXoyxWA9mWLQVxSL3qoOMnuKpZzWCFyvAGDVbBoHAAAAAAAAAAAAAAAAAACoYLWlLgAAAAAAAAAAAAAAAAAAAIDc2TQOAAAAAAAAAAAAAAAAAABQwWwaBwAAAAAAAAAAAAAAAAAAqGA2jQMAAAAAAAAAAAAAAAAAAFQwm8YBAAAAAAAAAAAAAAAAAAAqmE3jAAAAAAAAAAAAAAAAAAAAFcymcQAAAAAAAAAAAAAAAAAAgApm0zgAAAAAAAAAAAAAAAAAAEAFs2kcAAAAAAAAAAAAAAAAAACggtk0DgAAAAAAAAAAAAAAAAAAUMFsGgcAAAAAAAAAAAAAAAAAAKhgNo0DAAAAAAAAAAAAAAAAAABUMJvGAQAAAAAAAAAAAAAAAAAAKphN4wAAAAAAAAAAAAAAAAAAABXMpnEAAAAAAAAAAAAAAAAAAIAKZtM4AAAAAAAAAAAAAAAAAABABbNpHAAAAAAAAAAAAAAAAAAAoILZNA4AAAAAAAAAAAAAAAAAAFDBbBoHAAAAAAAAAAAAAAAAAACoYDaNAwAAAAAAAAAAAAAAAAAAVDCbxgEAAAAAAAAAAAAAAAAAACqYTeMAAAAAAAAAAAAAAAAAAAAVzKZxAAAAAAAAAAAAAAAAAACACmbTOAAAAAAAAAAAAAAAAAAAQAWzaRwAAAAAAAAAAAAAAAAAAKCC2TQOAAAAAAAAAAAAAAAAAABQwWwaBwAAAAAAAAAAAAAAAAAAqGA2jQMAAAAAAAAAAAAAAAAAAFQwm8YBAAAAAAAAAAAAAAAAAAAqmE3jAAAAAAAAAAAAAAAAAAAAFcymcQAAAAAAAAAAAAAAAAAAgApm0zgAAFB0I0eOjJqampSPcePGlbo0iClTpqTtzwEDBpS6NAAAAAAAAIC8yewpZzJ7AAAAKBybxgEAAAAAAAAAAAAAAAAAACqYTeMAAAAAAAAAAAAAAAAAAAAVzKZxAAAAAAAAAAAAAAAAAACAClZX6gIAAAAgnfnz58dVV12VMt6zZ88466yzWr0eAAAAAAAAAGgrZPYAAABQeWwaBwAAoCzNnz8/LrroopTx9ddfXwANAAAAAAAAAEUkswcAAIDKU1vqAgAAAAAAAAAAAAAAAAAAAMidTeMAAAAAAAAAAAAAAAAAAAAVzKZxAAAAAAAAAAAAAAAAAACACmbTOAAAAAAAAAAAAAAAAAAAQAWzaRwAAAAAAAAAAAAAAAAAAKCC2TQOAAAAAAAAAAAAAAAAAABQwWwaBwAAAAAAAAAAAAAAAAAAqGB1pS4AAACA8jV79uxYsGBBJEkS3bt3j969e0e7du1KXRYAAAAAAAAAVD2ZPQAAAJANm8YBAICqUV9fH2PHjo0nn3wyXn755Zg8eXLMmjUrFi9eHDU1NdG1a9dYZ511YsiQIbHjjjvGPvvsE0OGDClZvY2NjfHEE0/EfffdFy+99FL8+9//jvnz50eSJNGnT5/o27dvbLTRRrHPPvvEnnvuGb169Sp6TTNnzoxbbrklHnjggXjppZdi4cKFzV7v1KlTfPWrX43ddtstDj/88Bg+fHjKHPPnz49XX301Zbxnz56xxRZbtHjuWbNmxaxZsz7/80cffZT28xoaGuL111/P7C/0/xs4cGB06dIlq2NW5qOPPoq77747xo0bFxMnToyPP/44Fi1aFN27d4++ffvGWmutFaNGjYp99tknttxyy6ipqSnYuQEAAAAAAADKkcw+fzL7zMjsAQAAIL2aJEmSUhcBAABUt5EjR8YTTzyRMj527NgYOXJk3vO///77ccUVV8Rtt90W8+fPz+rY7bbbLn784x/HgQcemHcdxx9/fNx8880p4zfddFMcf/zxn/85SZK46aab4rLLLotJkyZlNHfHjh3jrLPOip/85CfRvXv3vGv9sjlz5sT5558ff/zjH6OhoSHj43beeee48sorY6uttvp8bNy4cTFq1KiUzx0xYkSMGzeuxbkuvPDCuOiii7KqO1Mr67UpU6bEwIEDU8bXX3/9mDJlSrOxyZMnx/nnnx+33XZbrFixIqNzb7HFFnHllVcWpNcBAAAAAAAAsiWzl9lHyOxl9gAAALQFtaUuAAAAIFeLFi2Ks846K4YMGRK///3vsw6fIyKeffbZOOigg2L33XePDz74oPBFfsn06dNj5MiRceKJJ2YcPkf854nsl19+eQwZMiReeumlgtb02GOPxaabbhrXXnttVuFzRMRTTz0V2223Xfz85z8vaE3l6Pe//31ssskm8Ze//CXj8Dki4tVXX41Ro0bFt771rWhqaipihQAAAAAAAACtR2ZfGDL7zMjsAQAAYNVsGgcAACrS66+/HsOGDYtf//rX0djYmPd8jz76aGy99dbx5JNPFqC69F577bXYdttt8zrHzJkzY9ddd41nnnmmIDX97W9/i7322is+/vjjnOdYsWJFnHPOOfGd73ynIDWVmyRJ4swzz4xTTz01lixZkvM8119/fRxzzDFZhdcAAAAAAAAA5UhmL7NvLTJ7AAAAyJxN4wAAQMX517/+FTvssEO89957BZ13zpw5sffee8cTTzxR0HkjIiZNmhR77LFHTJ8+Pe+5FixYEAcddFB88sknec3zwAMPxLHHHluwQPTqq6+Oq666qiBzlZOzzz47fvOb3xRkrr/97W9x2WWXFWQuAAAAAAAAgFKQ2cvsW5PMHgAAADJXV+oCAAAAsvHyyy/H3nvvHYsWLWrxc/r06ROjR4+OESNGxHrrrRdrrLFGtGvXLmbOnBlvv/12PPDAA/Hkk0+mfdr5kiVL4uCDD44XX3wxBg0aVJCaly5dGgcccEDMnDmz2XiPHj1i9913j9133z3WWWed6Nu3byxbtiw+/vjjGDduXNx1110xY8aMtHPOnj07vv/978ef/vSnnGqaPHlyfP3rX1/pE9+32GKLOPLII2PXXXeNtddeO3r37h1z5syJ6dOnx6OPPhq33357TJgwodkxZ599dvzv//5vTjWVo5tvvjl++ctfpoxvvvnmsc8++8SWW24Zffv2ja5du8bs2bPjnXfeiXvvvTcee+yxSJIk7ZyXXXZZHHHEEbHhhhsWu3wAAAAAAACAgpLZ/4fMvnXI7AEAACA7NUlL3xEDAAAUyMiRI9M+CXzs2LExcuTIjOeZM2dObLnlljF16tS0r6+33npx7rnnxje+8Y3o2LHjSud666234vvf/348+OCDaV8fPnx4jB8/PmprazOu7/jjj4+bb745ZXzttdeOjz766PM/d+7cOX7wgx/E2WefHV26dGlxviVLlsTFF18cl19+eYufM2HChNhss80yrvEzu+yySzz11FNpX+vdu3dcddVVcfTRR69ynltuuSXOOuusmDt37udj3bt3j4ULF6Z87ogRI2LcuHEZ1zhlypQYOHBgyvj6668fU6ZMyXieXM/TvXv3aGpqavbDDtttt1387//+b+ywww4rnXP8+PHxzW9+M9555520rx9yyCHxj3/8I7/CAQAAAAAAADIgs5fZR8jsv0hmDwAAQLXKfCUFAACgxE477bQWw+cDDzwwJkyYEKeccsoqw+eIiKFDh8YDDzwQ5513XtrXn3/++bj22mvzqvczXwyf11prrXjmmWfioosuWmn4HPGfoPrnP/95/OpXv2rxc2666aas67nttttaDJ/XWWedePHFFzMKnyMijj322HjxxRdj7bXX/nwsXfhciRYuXNgsfD799NPj6aefXmX4HBGx/fbbx7hx42LIkCFpX7/33ntjzpw5BasVAAAAAAAAoNhk9qlk9sUjswcAAIDs2TQOAABUhEceeSTuuOOOtK8dccQR8c9//jN69uyZ9byXXHJJ/PCHP0z72mWXXRb19fVZz9mSnj17xr/+9a/YfPPNszruu9/9buy+++5pX7v11ltjxYoVGc+VJElcdNFFaV/r3r17PPzww7H++utnVd/AgQPj4Ycfjm7dumV1XCU588wz4ze/+U1WT7Hv169f3HjjjVFTU5PyWkNDQ9x6662FLBEAAAAAAACgaGT2MvtSktkDAABAZmwaBwAAKsL//M//pB3faqut4uabb04b8mXqsssui2222SZl/KOPPorbb78953m/7LrrrotBgwbldOzll1+ednz27NkxceLEjOd55JFH4u2330772oUXXhhDhw7Nqb6NN964xfeo0m2xxRZxxRVX5HTsjjvuGPvvv3/a1x5//PF8ygIAAAAAAABoNTJ7mX2pyOwBAAAgczaNAwAAZe/ZZ5+N5557Lu1rV199dXTs2DGv+evq6uLiiy9O+9rNN9+c19yfGTlyZHzta1/L+fhhw4a1GA6/8sorGc/T0pOyhwwZEmeccUZOtX3mrLPOisGDB+c1Rzm66qqrokOHDjkff/TRR6cdz+Z9AwAAAAAAACgVmb3MvpRk9gAAAJA5m8YBAICyd9NNN6Ud32effWKHHXYoyDn22muv2HDDDVPGn3zyyfj000/znv873/lO3nPsueeeacczDTKbmprivvvuS/vaCSecEHV1dTnXFhHRvn37OOGEE/Kao9xsvvnmMWLEiLzmaOl9mzp1anzyySd5zQ0AAAAAAABQbDL7/5DZtz6ZPQAAAGTHpnEAAKCsJUkS99xzT9rXvv71rxf0XLvvvnvK2IoVK+Jf//pXXvN26dIl9ttvv7zmiIjYdNNN045PmTIlo+MnTJgQc+fOTRmvqakp2NfyqKOOipqamoLMVQ6OPPLIvOfo0aNHrLvuumlfy/S9AwAAAAAAACgFmf1/yexbn8weAAAAsmPTOAAAUNYmTpwYH3/8ccp4u3bt4oADDijouXbaaae045k+Fbwl2267bd5PBI+I2GCDDdKOL1y4MKPjX3jhhbTjX/3qV2O99dbLua4vGjBgQAwZMqQgc5WDHXfcsSDz5PveAQAAAAAAAJSCzP6/ZPatT2YPAAAA2bFpHAAAKGsvvvhi2vEBAwZE9+7dC3qu/v37px1/++2385p32LBheR3/mZb+vpmGmG+88Uba8c033zznmlpjvlIql/cOAAAAAAAAoBRk9v8ls2995fLeAQAAQKWwaRwAAChrEydOTDv+1a9+teDnWmONNdKOT58+Pa95e/fundfxn+nWrVva8UxDzA8++CDt+GabbZZzTelUSwDdqVOn6Nq1a0Hmyve9AwAAAAAAACgFmf1/yexbl8weAAAAsldX6gIAAABWpqXQ9P7774+amppWqeGTTz7J6/hevXoVpI527dqlHW9sbMzo+JkzZ6Yd79evX841pbPmmmsWdL5S6dmzZ8Hmyve9AwAAAAAAACgFmf1/yexbl8weAAAAsuc3jQMAAGXto48+KnUJsXTp0ryO79ixY4EqyU9LT8ju3r17Qc/To0ePgs5XKuXyvgEAAAAAAACUisy+cGT22SmX9w0AAAAqiU3jAABAWfv0009LXUIsX7681CUURH19fdrxQgfQhZ4PAAAAAAAAgNKQ2ReOzB4AAAAoNpvGAQCAstZSaNqakiQpdQlF1dTUVND5GhsbCzofAAAAAAAAAKUhsy8+mT0AAABQKDaNAwAAZa221rcthdKpU6e04wsXLizoeQo9HwAAAAAAAAClIbMvHJk9AAAAUGx1pS4AAABgZTp37px2fO+9945f/OIXrVJDhw4dWuU8xdazZ8+04wJoAAAAAAAAANKR2ReOzB4AAAAoNpvGAQCAsrbGGmukHW9qaopNNtmklaupbP369Us7PnXq1IKep9DzAQAAAAAAAFAaMvvCkdkDAAAAxVZb6gIAAABWZr311ks7Pnfu3FaupPINGjQo7fiECRMKep5CzwcAAAAAAABAacjsC0dmDwAAABSbTeMAAEBZGzp0aNrxSZMmRZIkrVxNZdt4443Tjr/66qsFPU+h5wMAAAAAAACgNGT2hSOzBwAAAIrNpnEAAKCsDR8+PO343LlzY+LEia1cTWXbbrvt0o5PmTIlXn/99YKcY8KECfHhhx8WZC4AAAAAAAAASktmXzgyewAAAKDYbBoHAADK2v/X3t2FZl23cQC/9lJpspmT2GoqBKlMQlLGWpOW2kiJ3LIXDzJ24kEWO+ioRidBEYYnIrLCsBeyQDAP1KhZk2DRi+8hiwWKNTPmMJ2buvWyl+fg4Ykedvs8uv3d7d99Poe/373rd93HX773KisrY8qUKRnvWlpaxnmbdJs7d27ceeedGe8++uijRN5Iak5ERF5eXsbzP//8M7E3AAAAAAAAALg8mX1yZPYAAADAtaY0DgAAXNcmTZoUy5cvz3jX1NQUg4OD47xRuq1cuTLj+XvvvRcXLlwY0+yenp54//33xzTjnyZNmpTxvL+/P7E3AAAAAAAAALg8mX2yZPYAAADAtaQ0DgAAXPfWrFmT8fzEiROJ/kr2RFBfX5/xvKurK1599dUxzX7llVfizJkzY5rxT9OmTYucnJwR5+fPn4++vr7E3gEAAAAAAADg8mT2yZHZAwAAANeS0jgAAHDdW758ecybNy/j3QsvvBDHjx8f543Sq6KiIqqqqjLebdy4MVpaWkY1d8+ePdHU1DSW1UbIz8+P4uLijHft7e2JvgUAAAAAAABAZjL75MjsAQAAgGtJaRwAALju5eTkxBtvvJHxrru7O2pra+P06dOJv9vR0RH79u1LfG62vfbaaxnP//rrr1i5cmV8/fXXVzXvq6++iscffzwGBgaSWO+/lJWVZTzfvXt34m8BAAAAAAAAMJLMPlkyewAAAOBaURoHAABSYcWKFfHkk09mvGtvb4+FCxdGa2trIm99//33sXr16rj77rvjiy++SGTm9WTp0qWxatWqjHcXL16MxYsXx8svvxz9/f3/c05/f380NjbGkiVLoq+v7+/zmTNnJrbr5X5hfcOGDXH06NHE3gEAAAAAAADg8mT2yZHZAwAAANdKfrYXAAAAuFKbN2+OQ4cOxU8//TTirrOzM5YsWRJPPPFEvPjii1FeXn5Vs9va2mLHjh3x8ccfR1tbW1IrX7feeuut+Oabb+LUqVMj7gYGBmLdunXR1NQUdXV18dBDD0VpaWkUFRXF2bNn49dff429e/fGzp0748KFC//1t4WFhbFu3bp45plnEtmztrY2Xn/99RHnvb29UVFREStXroylS5fG7Nmzo7CwMG6++eaMc+66666YMmVKIjsBAAAAAAAATEQy++TI7AEAAIBrQWkcAABIjaKiomhubo5FixbFb7/9NuJ+aGgotm/fHtu3b4/Zs2dHdXV13H///VFcXBxFRUVx6623Rm9vb5w/fz66u7ujvb09jhw5EkeOHIkzZ85k4RtlT1FRUezatSuqq6vj4sWLGT/T29sbW7duja1bt17RzNzc3Pjggw9i6tSpGe/z8vKues+KioooLy+PgwcPjrj7448/Ytu2bbFt27b/O+fLL7+MxYsXX/X7AAAAAAAAAPybzD45MnsAAADgWlAaBwAAUmXOnDnR2toaDz/8cMZf3P6PY8eOxbFjx+Kdd94Zx+3SZcGCBdHc3ByPPvponD9/fkyzcnNz480334y6urrYu3dvxs/ccssto5q9cePGqK6ujsHBwbGsCAAAAAAAAMAYyeyTI7MHAAAAkpab7QUAAACuVllZWRw4cCBqamqyvUrqLVq0KPbt2xcLFiwY9Yzp06fHjh074tlnn42IiJ6enoyfmzx58qjmV1VVxbvvvhs33XTTqHcEAAAAAAAAIBky++TI7AEAAIAkKY0DAACpVFJSEp9//nls2bIliouLE59fWloajY2NUV9fn/js682cOXNi//79sWnTpigtLb3iv5s0aVKsXbs2fvjhh3jsscf+Pr/cL6Dffvvto96xvr4+9u/fH8uWLRv1DAAAAAAAAACSIbNPjsweAAAASEp+thcAAAAYrZycnFizZk08/fTTsXXr1nj77bfj0KFDo543d+7cqKmpidra2qipqYnc3InzO1v5+fnR0NAQzz33XOzZsyc+++yzOHjwYBw/fvzvXyEvLCyMGTNmxD333BM1NTWxYsWKmD59+ohZnZ2dGd8oKSkZ04733ntvNDc3R0dHR3z66aexb9+++PHHH+PUqVPR3d0dv//+ewwNDY3pDQAAAAAAAACujMw+OTJ7AAAAIAk5w8PDw9leAgAAICkdHR3R0tISBw4ciPb29jh58mScPXs2+vv7Izc3NwoKCqKgoCCmTZsWs2fPjrKysigrK4uqqqqYOXNmtte/IdTV1cWuXbtGnH/44YexevXqLGwEAAAAAAAAwHiQ2WefzB4AAAAmLqVxAAAAElVSUhJdXV0jzg8fPhwLFizIwkYAAAAAAAAAMDHI7AEAAGDiys32AgAAANw4WlpaMobPBQUFMX/+/CxsBAAAAAAAAAATg8weAAAAJjalcQAAABKzadOmjOcPPPBA5OXljfM2AAAAAAAAADBxyOwBAABgYlMaBwAAIBHNzc2xe/fujHdPPfXUOG8DAAAAAAAAABOHzB4AAADIGR4eHs72EgAAAKTbyZMno7y8PM6cOTPiburUqfHLL79EQUFBFjYDAAAAAAAAgBubzB4AAACI8J/GAQAAJqympqZYv3599Pb2jmnOd999F/fdd1/G8Dki4vnnnxc+AwAAAAAAAMA/yOwBAACApCmNAwAATFCdnZ3x0ksvxaxZs6KhoSFaW1tjaGjoiv/+xIkTsXbt2njwwQfj9OnTGT9zxx13RGNjY1IrAwAAAAAAAMANQWYPAAAAJC0/2wsAAACQXT09PdHU1BRNTU1RXFwclZWVsXDhwigrK4uioqK47bbbYmhoKM6dOxdnz56Nw4cPR2traxw+fDgGBwcvOzc3Nze2bNkShYWF4/htAAAAAAAAACA9ZPYAAABAUpTGAQAA+FtXV1fs3Lkzdu7cOeZZ69evj0ceeSSBrQAAAAAAAADgxiezBwAAAMZCaRwAAIBE5efnx4YNG6KhoSHbqwAAAAAAAADAhCKzBwAAgIlLaRwAAIDEzJ8/PzZv3hyVlZXZXgUAAAAAAAAAJhSZPQAAAExsOcPDw8PZXgIAAIDxd+nSpfjkk09i+/bt0dzcHJcuXRr1rKqqqmhoaIhVq1ZFXl5eglsCAAAAAAAAwI1HZg8AAAAkTWkcAACAGBgYiKNHj8a3334bbW1t8fPPP0dHR0ecO3cu+vr6or+/PyIiJk+eHNOnT49Zs2bFvHnzory8PJYtWxYzZszI8jcAAAAAAAAAgHSS2QMAAABJUBoHAAAAAAAAAAAAAAAAAABIsdxsLwAAAAAAAAAAAAAAAAAAAMDoKY0DAAAAAAAAAAAAAAAAAACkmNI4AAAAAAAAAAAAAAAAAABAiimNAwAAAAAAAAAAAAAAAAAApJjSOAAAAAAAAAAAAAAAAAAAQIopjQMAAAAAAAAAAAAAAAAAAKSY0jgAAAAAAAAAAAAAAAAAAECKKY0DAAAAAAAAAAAAAAAAAACkmNI4AAAAAAAAAAAAAAAAAABAiimNAwAAAAAAAAAAAAAAAAAApJjSOAAAAAAAAAAAAAAAAAAAQIopjQMAAAAAAAAAAAAAAAAAAKSY0jgAAAAAAAAAAAAAAAAAAECKKY0DAAAAAAAAAAAAAAAAAACkmNI4AAAAAAAAAAAAAAAAAABAiimNAwAAAAAAAAAAAAAAAAAApJjSOAAAAAAAAAAAAAAAAAAAQIopjQMAAAAAAAAAAAAAAAAAAKSY0jgAAAAAAAAAAAAAAAAAAECKKY0DAAAAAAAAAAAAAAAAAACkmNI4AAAAAAAAAAAAAAAAAABAiimNAwAAAAAAAAAAAAAAAAAApJjSOAAAAAAAAAAAAAAAAAAAQIopjQMAAAAAAAAAAAAAAAAAAKSY0jgAAAAAAAAAAAAAAAAAAECKKY0DAAAAAAAAAAAAAAAAAACkmNI4AAAAAAAAAAAAAAAAAABAiimNAwAAAAAAAAAAAAAAAAAApJjSOAAAAAAAAAAAAAAAAAAAQIopjQMAAAAAAAAAAAAAAAAAAKSY0jgAAAAAAAAAAAAAAAAAAECKKY0DAAAAAAAAAAAAAAAAAACkmNI4AAAAAAAAAAAAAAAAAABAiimNAwAAAAAAAAAAAAAAAAAApJjSOAAAAAAAAAAAAAAAAAAAQIopjQMAAAAAAAAAAAAAAAAAAKSY0jgAAAAAAAAAAAAAAAAAAECKKY0DAAAAAAAAAAAAAAAAAACkmNI4AAAAAAAAAAAAAAAAAABAiv0L/vzRG2maS94AAAAASUVORK5CYII=;" vertex="1" parent="1">
          <mxGeometry x="156" y="62" width="1322.72" height="524" as="geometry" />
        </mxCell>
        <mxCell id="s8cMF6kNTprsF7-LKTiT-5" value="" style="shape=manualInput;whiteSpace=wrap;html=1;size=213;fillColor=none;strokeColor=#00FF00;strokeWidth=5;fillStyle=auto;gradientColor=none;" vertex="1" parent="1">
          <mxGeometry x="390" y="101" width="290" height="410" as="geometry" />
        </mxCell>
        <mxCell id="s8cMF6kNTprsF7-LKTiT-9" value="" style="shape=manualInput;whiteSpace=wrap;html=1;size=173;fillColor=none;strokeColor=#00FF00;strokeWidth=5;fillStyle=auto;gradientColor=none;rotation=-180;direction=north;flipV=0;flipH=1;" vertex="1" parent="1">
          <mxGeometry x="1070" y="101" width="280" height="410" as="geometry" />
        </mxCell>
      </root>
    </mxGraphModel>
  </diagram>
</mxfile>
